<svg width="21" height="21" viewBox="0 0 21 21" fill="none" xmlns="http://www.w3.org/2000/svg">
<path d="M19.1232 6.14062V14.474C19.1232 15.0265 18.9037 15.5564 18.513 15.9471C18.1223 16.3378 17.5924 16.5573 17.0399 16.5573H4.53988C3.98734 16.5573 3.45744 16.3378 3.06674 15.9471C2.67604 15.5564 2.45654 15.0265 2.45654 14.474V6.14062" stroke="#373737" stroke-width="1.4" stroke-linecap="round" stroke-linejoin="round"/>
<path d="M19.1232 6.14046C19.1232 5.58793 18.9037 5.05802 18.513 4.66732C18.1223 4.27662 17.5924 4.05713 17.0399 4.05713H4.53988C3.98734 4.05713 3.45744 4.27662 3.06674 4.66732C2.67604 5.05802 2.45654 5.58793 2.45654 6.14046L9.68571 10.6544C10.0168 10.8613 10.3994 10.971 10.7899 10.971C11.1803 10.971 11.5629 10.8613 11.894 10.6544L19.1232 6.14046Z" stroke="#373737" stroke-width="1.4" stroke-linecap="round" stroke-linejoin="round"/>
</svg>
