<svg width="21" height="26" viewBox="0 0 21 26" fill="none" xmlns="http://www.w3.org/2000/svg">
<path d="M17.6507 14.147C17.6507 19.5258 12.1415 22.8396 10.9966 23.4708C10.9332 23.5057 10.862 23.5241 10.7895 23.5241C10.7171 23.5241 10.6458 23.5057 10.5824 23.4708C9.43668 22.8396 3.9292 19.5258 3.9292 14.147C3.9292 9.859 6.50198 6.85742 10.79 6.85742C15.0779 6.85742 17.6507 9.859 17.6507 14.147Z" stroke="#373737" stroke-width="1.4" stroke-linecap="round" stroke-linejoin="round"/>
<path d="M7.35962 13.718C7.35962 14.6278 7.72103 15.5003 8.36435 16.1436C9.00768 16.7869 9.88021 17.1484 10.79 17.1484C11.6998 17.1484 12.5723 16.7869 13.2156 16.1436C13.859 15.5003 14.2204 14.6278 14.2204 13.718C14.2204 12.8082 13.859 11.9357 13.2156 11.2923C12.5723 10.649 11.6998 10.2876 10.79 10.2876C9.88021 10.2876 9.00768 10.649 8.36435 11.2923C7.72103 11.9357 7.35962 12.8082 7.35962 13.718V13.718Z" stroke="#373737" stroke-width="1.4" stroke-linecap="round" stroke-linejoin="round"/>
</svg>
