<svg width="21" height="21" viewBox="0 0 21 21" fill="none" xmlns="http://www.w3.org/2000/svg">
<g clip-path="url(#clip0_15_310)">
<path d="M13.0415 17.576L13.0506 17.5824C13.8376 18.0835 14.7721 18.3011 15.6995 18.1993C16.627 18.0974 17.492 17.6822 18.1515 17.0222L18.7244 16.4493C18.8514 16.3224 18.9521 16.1717 19.0208 16.0059C19.0896 15.8401 19.1249 15.6623 19.1249 15.4828C19.1249 15.3033 19.0896 15.1256 19.0208 14.9598C18.9521 14.7939 18.8514 14.6433 18.7244 14.5164L16.3079 12.1016C16.181 11.9747 16.0303 11.874 15.8645 11.8052C15.6987 11.7365 15.5209 11.7011 15.3414 11.7011C15.1619 11.7011 14.9842 11.7365 14.8184 11.8052C14.6525 11.874 14.5019 11.9747 14.375 12.1016C14.1188 12.3578 13.7713 12.5017 13.409 12.5017C13.0467 12.5017 12.6992 12.3578 12.443 12.1016L8.57905 8.23678C8.32291 7.98055 8.17901 7.63309 8.17901 7.27079C8.17901 6.90849 8.32291 6.56102 8.57905 6.3048C8.70602 6.17791 8.80674 6.02725 8.87546 5.86143C8.94418 5.6956 8.97955 5.51786 8.97955 5.33836C8.97955 5.15885 8.94418 4.98111 8.87546 4.81529C8.80674 4.64946 8.70602 4.4988 8.57905 4.37191L6.1634 1.95717C5.90718 1.70102 5.55971 1.55713 5.19741 1.55713C4.83511 1.55713 4.48765 1.70102 4.23142 1.95717L3.65757 2.53011C2.99772 3.18975 2.58266 4.05477 2.48097 4.98223C2.37928 5.90969 2.59705 6.8441 3.09829 7.63104L3.10375 7.64015C5.75094 11.5567 9.12438 14.9296 13.0415 17.576V17.576Z" stroke="#373737" stroke-width="1.4" stroke-linecap="round" stroke-linejoin="round"/>
</g>
<defs>
<clipPath id="clip0_15_310">
<rect width="20" height="20" fill="white" transform="translate(0.789917 0.124023)"/>
</clipPath>
</defs>
</svg>
