<?xml version="1.0" encoding="UTF-8" standalone="no"?>
<svg
   xmlns:dc="http://purl.org/dc/elements/1.1/"
   xmlns:cc="http://creativecommons.org/ns#"
   xmlns:rdf="http://www.w3.org/1999/02/22-rdf-syntax-ns#"
   xmlns:svg="http://www.w3.org/2000/svg"
   xmlns="http://www.w3.org/2000/svg"
   id="svg5755"
   version="1.1"
   viewBox="0 0 135.27 135.19"
   height="510.95"
   width="511.24">
  <defs
     id="defs5749" />
  <metadata
     id="metadata5752">
    <rdf:RDF>
      <cc:Work
         rdf:about="">
        <dc:format>image/svg+xml</dc:format>
        <dc:type
           rdf:resource="http://purl.org/dc/dcmitype/StillImage" />
        <dc:title></dc:title>
      </cc:Work>
    </rdf:RDF>
  </metadata>
  <g
     transform="translate(-30.642,-55.534)"
     id="layer1">
    <g
       transform="matrix(0.35278,0,0,0.35278,33.086,57.905)"
       id="g5861">
      <g
         id="#ffffffff">
        <path
           style="opacity:1;fill:#ffffff"
           d="m 167.12,21.57 c 24.19,-2.23 48.99,-0.06 71.96,8.17 26,9.41 50.14,24.78 68.29,45.81 19.15,21.61 32.89,48.14 38.36,76.57 7.4,36.72 2.11,76.06 -15.56,109.17 -7.78,-8.12 -15.83,-15.97 -23.63,-24.07 10.55,-24.77 13.16,-52.74 7.93,-79.1 -8.82,-44.7 -41.66,-84.59 -85.06,-99.44 -5.33,10.68 -10.99,21.21 -16.52,31.79 -17.33,-5.11 -36,-5.45 -53.6,-1.52 -3.72,-3.79 -7.41,-7.63 -11.39,-11.15 -3.71,-6.22 -6.82,-12.78 -10.18,-19.19 -2.12,0.7 -4.21,1.48 -6.27,2.33 -7.24,-7.41 -14.56,-14.74 -21.78,-22.17 17.84,-9.3 37.42,-15.22 57.45,-17.2 z"
           id="path5779" />
        <path
           style="opacity:1;fill:#ffffff"
           d="m 232.79,99.06 c 2.1,-4.58 4.7,-8.91 7.14,-13.32 25.51,14.44 44.55,39.22 52.86,67.24 6.68,22.28 6.15,46.65 -1.44,68.63 -7.89,-7.1 -15.07,-14.95 -22.69,-22.33 -12.01,-12.63 -24.7,-24.6 -36.72,-37.23 -7.27,-7.2 -14.42,-14.53 -21.76,-21.66 4.63,-8.58 9.29,-17.16 13.98,-25.71 7.19,4.15 12.87,10.32 17.72,16.96 4.46,-4.83 9.14,-9.46 13.38,-14.49 -6.59,-7.09 -14.46,-12.75 -22.47,-18.09 z"
           id="path5781" />
        <path
           style="opacity:1;fill:#ffffff"
           d="m 176.07,105.82 c 9.37,-0.6 18.83,-0.32 28.1,1.35 -3.04,5.9 -6.1,11.78 -9.21,17.64 -6.29,-6.34 -12.68,-12.57 -18.89,-18.99 z"
           id="path5783" />
        <path
           style="opacity:1;fill:#ffffff"
           d="m 38.66,109.55 c 7.52,7.1 14.47,14.79 21.99,21.91 -18.31,42.37 -13.11,94.35 14.48,131.57 18.33,25.23 45.27,44.65 75.75,52 0.28,-6.99 0.1,-13.99 0.12,-20.99 C 114.26,283.29 84.45,252.67 73.88,216 c -6.41,-22.41 -5.72,-46.84 2.23,-68.77 3.95,3.99 7.92,7.96 11.91,11.92 -4.55,16.87 -4.46,34.98 0.16,51.82 9.57,35.51 41,63.49 76.93,70.37 0.1,12.03 0,24.06 0,36.1 6.44,0.31 12.9,0.1 19.35,0.15 0.23,-11.53 0,-23.06 0.1,-34.58 8.01,0.43 15.93,-0.96 23.71,-2.71 3.89,4.2 8.08,8.11 12.04,12.25 -1.45,0.5 -2.89,0.99 -4.34,1.49 -0.1,6.98 0.1,13.96 0.26,20.95 6.55,-1.23 12.79,-3.66 18.9,-6.25 3.08,0.94 4.85,3.9 7.14,5.96 5.71,5.48 10.98,11.38 16.71,16.84 -19.99,9.81 -41.8,16.26 -64.1,17.54 -6.62,0.11 -13.24,0.1 -19.86,0 -18.94,-1 -37.56,-5.81 -55,-13.18 C 89.01,322.87 62.5,299.62 44.86,270.99 14.78,223.19 12.54,159.54 38.66,109.55 Z"
           id="path5785" />
        <path
           style="opacity:1;fill:#ffffff"
           d="m 105,176.44 c 20.14,19.9 39.85,40.23 59.95,60.17 0.4,8.47 0.1,16.96 0.18,25.44 -11.23,-3.41 -22.3,-8.07 -31.31,-15.77 C 113.37,229.74 101.95,202.65 105,176.44 Z"
           id="path5787" />
        <path
           style="opacity:1;fill:#ffffff"
           d="m 184.57,256.54 c 2.54,2.43 5.03,4.93 7.52,7.41 -2.49,0.21 -4.99,0.2 -7.48,0.2 0,-2.54 -0.1,-5.08 0,-7.61 z"
           id="path5789" />
      </g>
      <g
         id="#1d150bff">
        <path
           style="opacity:1;fill:#1d150b"
           d="M 54.58,54.6 C 88,20.68 135.27,0.41 183,0.82 c 26.7,-0.56 53.68,4.75 77.84,16.22 42.4,18.93 76.81,54.83 94.33,97.78 8.44,20.13 12.64,41.83 13.83,63.56 v 13.07 c -1.28,22.51 -5.78,44.99 -14.8,65.73 -8.42,19.84 -20.45,38.16 -35.34,53.74 -18.64,19.91 -41.65,35.99 -67.29,45.49 -17.55,7.24 -36.34,10.97 -55.19,12.59 H 173.51 C 154.69,367.41 135.95,363.71 118.4,356.6 91.81,346.76 67.95,329.98 48.87,309.09 25.28,283.6 9.36,251.23 3.22,217.07 -0.56,194.18 -0.33,170.59 4.09,147.81 11.49,112.76 29,79.76 54.58,54.6 M 170.46,2.74 C 144.38,4.52 118.85,12.38 96.04,25.11 70.72,38.9 49.13,59.17 32.98,83 20.46,101.8 11.53,122.94 6.33,144.9 1.9,165.3 0.88,186.42 3.37,207.14 c 4.5,36.4 20.26,71.4 44.61,98.85 18.14,20.28 40.64,36.92 65.95,47.1 22.4,9.4 46.67,14.88 71.04,14.29 22.01,0.5 43.99,-3.96 64.49,-11.85 36.08,-13.19 67.3,-38.74 88.29,-70.82 17.01,-26.14 27.1,-56.67 29.26,-87.77 1.43,-21.49 -1.02,-43.21 -7.09,-63.87 C 350.07,99.51 330.39,68.94 303.83,46.19 287.54,31.97 268.42,21.25 248.33,13.42 223.58,4.08 196.78,0.83 170.46,2.74 Z"
           id="path5792" />
        <path
           style="opacity:1;fill:#1d150b"
           d="m 168.6,19.76 c 24.26,-2.2 49.09,0.43 72.06,8.69 22.77,8.42 43.98,21.43 61.12,38.71 12.81,12.96 23.74,27.82 31.91,44.13 23.03,46.31 22.4,103.4 -1.17,149.37 -13.27,25.63 -33.31,47.67 -57.39,63.54 -12.36,8.34 -26.12,14.33 -40.22,19.01 -21.3,6.96 -44.03,9.15 -66.3,7.05 -18.72,-1.65 -36.91,-7.18 -54.04,-14.78 C 86.98,322.62 63.28,301.78 46.36,276.54 30.98,253.57 21.43,226.65 19.44,199.04 18.22,181.66 19.08,164.06 22.88,147.02 30.83,112.56 50.6,81.25 77.35,58.27 102.94,36.65 135.11,22.54 168.6,19.76 m -1.48,1.81 c -20.03,1.98 -39.61,7.9 -57.45,17.2 C 79.19,54 54.54,79.55 38.66,109.55 c -26.12,49.99 -23.88,113.64 6.2,161.44 17.64,28.63 44.15,51.88 75.19,64.93 17.44,7.37 36.06,12.18 55,13.18 6.62,0 13.24,0.1 19.86,0 22.3,-1.28 44.11,-7.73 64.1,-17.54 30.2,-15.39 55.33,-40.3 71.16,-70.25 17.67,-33.11 22.96,-72.45 15.56,-109.17 C 340.26,123.69 326.52,97.16 307.37,75.55 289.22,54.52 265.08,39.15 239.08,29.74 216.11,21.51 191.31,19.34 167.12,21.57 Z"
           id="path5794" />
        <path
           style="opacity:1;fill:#1d150b"
           d="m 131.45,60.94 c 2.06,-0.85 4.15,-1.63 6.27,-2.33 3.36,6.41 6.47,12.97 10.18,19.19 1.98,4.16 4.02,8.3 6.25,12.33 1.71,-0.39 3.42,-0.79 5.14,-1.18 17.6,-3.93 36.27,-3.59 53.6,1.52 5.53,-10.58 11.19,-21.11 16.52,-31.79 43.4,14.85 76.24,54.74 85.06,99.44 5.23,26.36 2.62,54.33 -7.93,79.1 -13.58,31.64 -39.45,58.29 -71.38,71.52 -6.11,2.59 -12.35,5.02 -18.9,6.25 -0.18,-6.99 -0.33,-13.97 -0.26,-20.95 1.45,-0.5 2.89,-0.99 4.34,-1.49 25.2,-8.7 47.23,-26.39 60.85,-49.34 4.09,-6.84 7.44,-14.11 10.16,-21.6 7.59,-21.98 8.12,-46.35 1.44,-68.63 -8.31,-28.02 -27.35,-52.8 -52.86,-67.24 -2.44,4.41 -5.04,8.74 -7.14,13.32 8.01,5.34 15.88,11 22.47,18.09 -4.24,5.03 -8.92,9.66 -13.38,14.49 -4.85,-6.64 -10.53,-12.81 -17.72,-16.96 -4.69,8.55 -9.35,17.13 -13.98,25.71 -8.13,15.13 -16.44,30.16 -24.56,45.29 -0.75,0.9 -1.1,2.66 -2.53,2.63 -2.22,-3.08 -3.74,-6.58 -5.61,-9.87 -11.32,-20.71 -22.45,-41.52 -33.89,-62.16 -21.27,12.67 -36.13,35.47 -38.59,60.16 -3.05,26.21 8.37,53.3 28.82,69.84 9.01,7.7 20.08,12.36 31.31,15.77 -0.1,-8.48 0.22,-16.97 -0.18,-25.44 0.25,-11.5 -0.1,-23.02 0.22,-34.52 18.01,-0.23 36.03,0 54.05,-0.1 0.21,6.1 0.14,12.2 0.1,18.29 -10.12,0.12 -20.23,0.1 -30.34,0 -1.35,0.19 -3.04,-0.35 -4.17,0.59 -0.4,4.45 -0.1,8.94 -0.1,13.41 5,0.22 10.02,-0.24 15.01,0.22 0.2,0.2 0.62,0.6 0.82,0.79 0.39,5.94 0,11.9 0.16,17.84 -4.88,0.41 -9.78,0 -14.65,0.26 -1.85,-0.2 -1.26,2.01 -1.47,3.14 0,2.53 0,5.07 0,7.61 2.49,0 4.99,0 7.48,-0.2 18.88,-2.2 36.64,-11.23 49.91,-24.79 4.84,4.07 9.53,8.32 14.01,12.78 -12.62,13.98 -29.55,23.65 -47.71,28.36 -7.78,1.75 -15.7,3.14 -23.71,2.71 -0.1,11.52 0.13,23.05 -0.1,34.58 -6.45,-0.1 -12.91,0.16 -19.35,-0.15 0,-12.04 0,-24.07 0,-36.1 -35.93,-6.88 -67.36,-34.86 -76.93,-70.37 -4.62,-16.84 -4.71,-34.95 -0.16,-51.82 5.7,-21.55 19.14,-40.82 37.02,-54.05 2.99,-2.17 6.12,-4.12 9.15,-6.22 -2.33,-4.38 -4.66,-8.75 -7.11,-13.06 -23.75,13.4 -41.84,35.81 -50.97,61.41 -7.95,21.93 -8.64,46.36 -2.23,68.77 10.57,36.67 40.38,67.29 77.12,78.04 -0.1,7 0.16,14 -0.12,20.99 -30.48,-7.35 -57.42,-26.77 -75.75,-52 C 47.54,225.81 42.34,173.83 60.65,131.46 68.66,113.72 79.94,97.28 94.51,84.28 105.4,74.5 117.96,66.6 131.45,60.94 m -21.87,13.8 c -23.57,15.75 -41.33,39.6 -50.83,66.22 -9.12,26.78 -9.6,56.49 -1.12,83.5 8.49,27.35 26.23,51.6 49.44,68.32 13.02,8.73 27.16,15.92 42.27,20.25 0,-5.92 0.12,-11.84 -0.1,-17.75 C 116.41,285.21 89.4,259.43 76.21,227.93 67.1,206.18 65.71,181.56 70.66,158.62 77.34,130 95.16,103.93 120,88.06 c 2.55,-1.48 4.9,-3.68 7.84,-4.24 18.84,33.8 36.91,68.06 55.69,101.91 18.44,-34.09 36.99,-68.12 55.53,-102.16 36.74,19.09 60.84,60.11 59.9,101.49 0.3,17.91 -4.42,35.68 -12.39,51.65 -13.87,27.71 -39.32,49.34 -68.91,58.57 -0.35,5.91 0.35,11.82 0.22,17.73 15.07,-4.27 29.13,-11.49 42.14,-20.14 32.16,-23.18 53.37,-61.21 55.11,-100.93 1.6,-27.03 -5.14,-54.57 -19.72,-77.45 -14.98,-24.43 -38.12,-43.92 -65.11,-53.74 -15.22,29.31 -30.53,58.58 -45.87,87.82 -2.24,2.2 -3.22,-3.09 -4.38,-4.57 -14.4,-27.78 -28.89,-55.52 -43.26,-83.32 -9.56,3.67 -18.77,8.32 -27.26,14.06 m 45.49,17.22 c 2.7,4.66 4.53,10.03 7.85,14.21 4.67,-0.79 9.31,-1.98 14.07,-2.15 9.23,0 18.59,-0.54 27.63,1.73 2.87,-4.33 4.91,-9.12 7.45,-13.64 -18.41,-5.55 -38.56,-5.65 -57,-0.15 M 87,196 c 2.64,23.54 14.6,45.87 32.65,61.19 16.11,14.09 37.02,22.68 58.35,24.16 27.97,1.85 56.52,-9.18 75.85,-29.51 -4.03,-3.4 -7.8,-7.09 -11.77,-10.55 -15.59,15.86 -37.72,25.5 -60.07,24.63 -13.45,0 -26.56,-4.39 -38.3,-10.71 -19.2,-11.2 -33.86,-30.34 -38.78,-52.12 -3.06,-13.76 -2.72,-28.36 1.38,-41.88 5.69,-19.39 19.3,-36.15 36.59,-46.44 -2.6,-4.69 -5.07,-9.45 -7.73,-14.11 C 102.08,119.07 82.13,158.41 87,196 m 138.05,-82.93 c 6.92,3.93 12.56,9.63 17.37,15.9 3.41,-4.1 7.33,-7.74 10.75,-11.82 -6.47,-6.26 -13.51,-11.95 -21.35,-16.41 -2.38,4.04 -4.52,8.22 -6.77,12.33 m -61.45,-5.09 c 6.27,12.99 13.27,25.64 19.79,38.51 4.19,-7.04 7.6,-14.52 11.57,-21.68 3.11,-5.86 6.17,-11.74 9.21,-17.64 -9.27,-1.67 -18.73,-1.95 -28.1,-1.35 -4.21,0.35 -8.37,1.13 -12.47,2.16 m 3.34,95.65 c 0,19.64 -0.26,39.29 0.15,58.93 5.25,1 10.55,1.78 15.9,1.55 0,-4.08 0,-8.16 0,-12.24 5.31,-0.35 10.63,-0.16 15.95,-0.15 0.1,-5.24 0.1,-10.48 0.1,-15.72 -5.34,0 -10.67,0 -16,0 0,-5.71 0,-11.42 0,-17.13 11.55,-0.43 23.13,-0.1 34.69,-0.2 -0.1,-5.04 0.16,-10.08 -0.15,-15.12 -16.86,0.16 -33.73,0 -50.59,0.1 m 0,78.18 c 0,11.39 0,22.79 0,34.18 5.36,0 10.72,0 16.09,0 0,-11 0,-22 0,-33 -5.4,0.25 -10.77,-0.23 -16.08,-1.19 z"
           id="path5796" />
      </g>
      <g
         id="#ffad2cff">
        <path
           style="opacity:1;fill:#ffad2c"
           d="m 170.46,2.74 c 26.32,-1.91 53.12,1.34 77.87,10.68 20.09,7.83 39.21,18.55 55.5,32.77 26.56,22.75 46.24,53.32 56.09,86.88 6.07,20.66 8.52,42.38 7.09,63.87 -2.16,31.1 -12.25,61.63 -29.26,87.77 -20.99,32.08 -52.21,57.63 -88.29,70.82 -20.5,7.89 -42.48,12.35 -64.49,11.85 -24.37,0.59 -48.64,-4.89 -71.04,-14.29 C 88.62,342.91 66.12,326.27 47.98,305.99 23.63,278.54 7.87,243.54 3.37,207.14 0.88,186.42 1.9,165.3 6.33,144.9 11.53,122.94 20.46,101.8 32.98,83 49.13,59.17 70.72,38.9 96.04,25.11 118.85,12.38 144.38,4.52 170.46,2.74 m -1.86,17.02 c -33.49,2.78 -65.66,16.89 -91.25,38.51 -26.75,22.98 -46.52,54.29 -54.47,88.75 -3.8,17.04 -4.66,34.64 -3.44,52.02 1.99,27.61 11.54,54.53 26.92,77.5 16.92,25.24 40.62,46.08 68.21,58.94 17.13,7.6 35.32,13.13 54.04,14.78 22.27,2.1 45,-0.1 66.3,-7.05 14.1,-4.68 27.86,-10.67 40.22,-19.01 24.08,-15.87 44.12,-37.91 57.39,-63.54 23.57,-45.97 24.2,-103.06 1.17,-149.37 C 325.52,94.98 314.59,80.12 301.78,67.16 284.64,49.88 263.43,36.87 240.66,28.45 217.69,20.19 192.86,17.56 168.6,19.76 Z"
           id="path5799" />
        <path
           style="opacity:1;fill:#ffad2c"
           d="m 109.58,74.74 c 8.49,-5.74 17.7,-10.39 27.26,-14.06 14.37,27.8 28.86,55.54 43.26,83.32 1.16,1.48 2.14,6.77 4.38,4.57 15.34,-29.24 30.65,-58.51 45.87,-87.82 26.99,9.82 50.13,29.31 65.11,53.74 14.58,22.88 21.32,50.42 19.72,77.45 -1.74,39.72 -22.95,77.75 -55.11,100.93 -13.01,8.65 -27.07,15.87 -42.14,20.14 0.13,-5.91 -0.57,-11.82 -0.22,-17.73 29.59,-9.23 55.04,-30.86 68.91,-58.57 7.97,-15.97 12.69,-33.74 12.39,-51.65 0.94,-41.38 -23.16,-82.4 -59.9,-101.49 -18.54,34.04 -37.09,68.07 -55.53,102.16 -18.78,-33.85 -36.85,-68.11 -55.69,-101.91 -2.94,0.56 -5.29,2.76 -7.84,4.24 -24.84,15.87 -42.66,41.94 -49.34,70.56 -4.95,22.94 -3.56,47.56 5.55,69.31 13.19,31.5 40.2,57.28 73.03,67.35 0.17,5.91 0.1,11.83 0.1,17.75 -15.11,-4.33 -29.25,-11.52 -42.27,-20.25 -23.21,-16.72 -40.95,-40.97 -49.44,-68.32 -8.48,-27.01 -8,-56.72 1.12,-83.5 9.5,-26.62 27.26,-50.47 50.83,-66.22 z"
           id="path5801" />
        <path
           style="opacity:1;fill:#ffad2c"
           d="m 155.07,91.96 c 18.44,-5.5 38.59,-5.4 57,0.15 -2.54,4.52 -4.58,9.31 -7.45,13.64 -9.04,-2.27 -18.4,-1.75 -27.63,-1.73 -4.76,0.17 -9.4,1.36 -14.07,2.15 -3.32,-4.18 -5.15,-9.55 -7.85,-14.21 z"
           id="path5803" />
        <path
           style="opacity:1;fill:#ffad2c"
           d="m 87,196 c -4.87,-37.59 15.08,-76.93 48.17,-95.34 2.66,4.66 5.13,9.42 7.73,14.11 -17.29,10.29 -30.9,27.05 -36.59,46.44 -4.1,13.52 -4.44,28.12 -1.38,41.88 4.92,21.78 19.58,40.92 38.78,52.12 11.74,6.32 24.85,10.71 38.3,10.71 22.35,0.87 44.48,-8.77 60.07,-24.63 3.97,3.46 7.74,7.15 11.77,10.55 C 234.52,272.17 205.97,283.2 178,281.35 156.67,279.87 135.76,271.28 119.65,257.19 101.6,241.87 89.64,219.54 87,196 Z"
           id="path5805" />
        <path
           style="opacity:1;fill:#ffad2c"
           d="m 225.05,113.07 c 2.25,-4.11 4.39,-8.29 6.77,-12.33 7.84,4.46 14.88,10.15 21.35,16.41 -3.42,4.08 -7.34,7.72 -10.75,11.82 -4.81,-6.27 -10.45,-11.97 -17.37,-15.9 z"
           id="path5807" />
        <path
           style="opacity:1;fill:#ffad2c"
           d="m 166.94,203.63 c 16.86,-0.1 33.73,0.1 50.59,-0.1 0.31,5.04 0.1,10.08 0.15,15.12 -11.56,0.14 -23.14,-0.23 -34.69,0.2 0,5.71 0,11.42 0,17.13 5.33,0 10.66,0 16,0 0,5.24 0,10.48 -0.1,15.72 -5.32,0 -10.64,-0.2 -15.95,0.15 0,4.08 0,8.16 0,12.24 -5.35,0.23 -10.65,-0.55 -15.9,-1.55 -0.41,-19.64 -0.11,-39.29 -0.15,-58.93 z"
           id="path5809" />
        <path
           style="opacity:1;fill:#ffad2c"
           d="m 166.92,281.81 c 5.31,0.96 10.68,1.44 16.08,1.19 0,11 0,22 0,33 -5.37,0 -10.73,0 -16.09,0 0,-11.39 0,-22.79 0,-34.18 z"
           id="path5811" />
      </g>
      <g
         id="#674986ff">
        <path
           style="opacity:1;fill:#674986"
           d="M 38.66,109.55 C 54.54,79.55 79.19,54 109.67,38.77 116.89,46.2 124.21,53.53 131.45,60.94 117.96,66.6 105.4,74.5 94.51,84.28 79.94,97.28 68.66,113.72 60.65,131.46 53.13,124.34 46.18,116.65 38.66,109.55 Z"
           id="path5814" />
        <path
           style="opacity:1;fill:#674986"
           d="m 147.9,77.8 c 3.98,3.52 7.67,7.36 11.39,11.15 -1.72,0.39 -3.43,0.79 -5.14,1.18 -2.23,-4.03 -4.27,-8.17 -6.25,-12.33 z"
           id="path5816" />
        <path
           style="opacity:1;fill:#674986"
           d="m 76.11,147.23 c 9.13,-25.6 27.22,-48.01 50.97,-61.41 2.45,4.31 4.78,8.68 7.11,13.06 -3.03,2.1 -6.16,4.05 -9.15,6.22 -17.88,13.23 -31.32,32.5 -37.02,54.05 -3.99,-3.96 -7.96,-7.93 -11.91,-11.92 z"
           id="path5818" />
        <path
           style="opacity:1;fill:#674986"
           d="m 163.6,107.98 c 4.1,-1.03 8.26,-1.81 12.47,-2.16 6.21,6.42 12.6,12.65 18.89,18.99 -3.97,7.16 -7.38,14.64 -11.57,21.68 -6.52,-12.87 -13.52,-25.52 -19.79,-38.51 z"
           id="path5820" />
        <path
           style="opacity:1;fill:#674986"
           d="m 143.59,116.28 c 11.44,20.64 22.57,41.45 33.89,62.16 1.87,3.29 3.39,6.79 5.61,9.87 1.43,0 1.78,-1.73 2.53,-2.63 8.12,-15.13 16.43,-30.16 24.56,-45.29 7.34,7.13 14.49,14.46 21.76,21.66 12.02,12.63 24.71,24.6 36.72,37.23 7.62,7.38 14.8,15.23 22.69,22.33 -2.72,7.49 -6.07,14.76 -10.16,21.6 -13.62,22.95 -35.65,40.64 -60.85,49.34 -3.96,-4.14 -8.15,-8.05 -12.04,-12.25 18.16,-4.71 35.09,-14.38 47.71,-28.36 -4.48,-4.46 -9.17,-8.71 -14.01,-12.78 -13.27,13.56 -31.03,22.59 -49.91,24.79 -2.49,-2.48 -4.98,-4.98 -7.52,-7.41 0.21,-1.13 -0.38,-3.34 1.47,-3.14 4.87,-0.25 9.77,0.15 14.65,-0.26 -0.19,-5.94 0.23,-11.9 -0.16,-17.84 -0.2,-0.19 -0.62,-0.59 -0.82,-0.79 -4.99,-0.46 -10.01,0 -15.01,-0.22 0,-4.47 -0.31,-8.96 0.1,-13.41 1.13,-0.94 2.82,-0.4 4.17,-0.59 10.11,0.1 20.22,0.11 30.34,0 0.1,-6.09 0.13,-12.19 -0.1,-18.29 -18.02,0.1 -36.04,-0.13 -54.05,0.1 -0.32,11.5 0,23.02 -0.22,34.52 -20.1,-19.94 -39.81,-40.27 -59.95,-60.17 2.46,-24.69 17.32,-47.49 38.59,-60.16 z"
           id="path5822" />
        <path
           style="opacity:1;fill:#674986"
           d="m 235.16,308.74 c 31.93,-13.23 57.8,-39.88 71.38,-71.52 7.8,8.1 15.85,15.95 23.63,24.07 -15.83,29.95 -40.96,54.86 -71.16,70.25 -5.73,-5.46 -11,-11.36 -16.71,-16.84 -2.29,-2.06 -4.06,-5.02 -7.14,-5.96 z"
           id="path5824" />
      </g>
    </g>
  </g>
</svg>
