<?xml version="1.0" encoding="UTF-8"?>
<svg xmlns="http://www.w3.org/2000/svg" xmlns:xlink="http://www.w3.org/1999/xlink" width="800px" height="800px" viewBox="0 0 800 800" version="1.1">
<g id="surface1">
<path style=" stroke:none;fill-rule:nonzero;fill:rgb(100%,100%,100%);fill-opacity:1;" d="M 363.300781 59.0625 C 413.792969 54.40625 465.558594 58.9375 513.503906 76.117188 C 567.777344 95.757812 618.164062 127.839844 656.050781 171.738281 C 696.023438 216.847656 724.703125 272.222656 736.121094 331.566406 C 751.570312 408.214844 740.527344 490.332031 703.644531 559.445312 C 687.402344 542.496094 670.601562 526.109375 654.320312 509.199219 C 676.339844 457.496094 681.789062 399.113281 670.871094 344.089844 C 652.460938 250.785156 583.914062 167.523438 493.320312 136.523438 C 482.195312 158.816406 470.382812 180.796875 458.839844 202.882812 C 422.664062 192.214844 383.691406 191.503906 346.957031 199.707031 C 339.191406 191.796875 331.488281 183.78125 323.179688 176.433594 C 315.4375 163.453125 308.945312 149.757812 301.929688 136.378906 C 297.507812 137.839844 293.144531 139.46875 288.84375 141.242188 C 273.730469 125.773438 258.453125 110.472656 243.382812 94.964844 C 280.621094 75.554688 321.488281 63.195312 363.300781 59.0625 Z M 363.300781 59.0625 "/>
<path style=" stroke:none;fill-rule:nonzero;fill:rgb(100%,100%,100%);fill-opacity:1;" d="M 500.375 220.8125 C 504.757812 211.25 510.1875 202.214844 515.28125 193.007812 C 568.527344 223.148438 608.273438 274.875 625.617188 333.363281 C 639.5625 379.867188 638.453125 430.738281 622.613281 476.617188 C 606.140625 461.796875 591.15625 445.410156 575.25 430.007812 C 550.179688 403.644531 523.691406 378.65625 498.601562 352.292969 C 483.425781 337.265625 468.503906 321.964844 453.179688 307.082031 C 462.84375 289.171875 472.574219 271.261719 482.363281 253.417969 C 497.371094 262.078125 509.226562 274.957031 519.351562 288.816406 C 528.660156 278.734375 538.429688 269.070312 547.277344 258.570312 C 533.523438 243.773438 517.097656 231.957031 500.375 220.8125 Z M 500.375 220.8125 "/>
<path style=" stroke:none;fill-rule:nonzero;fill:rgb(100%,100%,100%);fill-opacity:1;" d="M 381.980469 234.921875 C 401.539062 233.671875 421.285156 234.253906 440.636719 237.742188 C 434.289062 250.054688 427.902344 262.328125 421.410156 274.5625 C 408.28125 261.328125 394.945312 248.324219 381.980469 234.921875 Z M 381.980469 234.921875 "/>
<path style=" stroke:none;fill-rule:nonzero;fill:rgb(100%,100%,100%);fill-opacity:1;" d="M 95.15625 242.707031 C 110.855469 257.527344 125.363281 273.582031 141.058594 288.441406 C 102.839844 376.882812 113.695312 485.382812 171.285156 563.074219 C 209.546875 615.738281 265.777344 656.277344 329.402344 671.617188 C 329.984375 657.027344 329.609375 642.417969 329.652344 627.804688 C 252.960938 605.367188 190.738281 541.449219 168.675781 464.90625 C 155.292969 418.128906 156.734375 367.136719 173.328125 321.359375 C 181.574219 329.6875 189.859375 337.976562 198.191406 346.242188 C 188.691406 381.453125 188.878906 419.257812 198.523438 454.40625 C 218.5 528.53125 284.105469 586.933594 359.105469 601.296875 C 359.3125 626.40625 359.105469 651.515625 359.105469 676.648438 C 372.546875 677.296875 386.03125 676.855469 399.496094 676.960938 C 399.972656 652.894531 399.496094 628.828125 399.703125 604.78125 C 416.421875 605.679688 432.953125 602.777344 449.195312 599.125 C 457.3125 607.890625 466.058594 616.050781 474.324219 624.695312 C 471.300781 625.738281 468.292969 626.761719 465.265625 627.804688 C 465.058594 642.375 465.476562 656.945312 465.808594 671.535156 C 479.480469 668.96875 492.507812 663.894531 505.261719 658.488281 C 511.691406 660.449219 515.382812 666.628906 520.164062 670.929688 C 532.082031 682.367188 543.082031 694.683594 555.042969 706.082031 C 513.316406 726.558594 467.792969 740.019531 421.246094 742.691406 C 407.425781 742.921875 393.609375 742.902344 379.789062 742.691406 C 340.253906 740.605469 301.390625 730.566406 264.984375 715.179688 C 200.257812 687.984375 144.921875 639.453125 108.097656 579.691406 C 45.3125 479.914062 40.636719 347.054688 95.15625 242.707031 Z M 95.15625 242.707031 "/>
<path style=" stroke:none;fill-rule:nonzero;fill:rgb(100%,100%,100%);fill-opacity:1;" d="M 233.632812 382.332031 C 275.671875 423.871094 316.8125 466.304688 358.769531 507.925781 C 359.605469 525.609375 358.980469 543.328125 359.144531 561.03125 C 335.703125 553.914062 312.597656 544.183594 293.789062 528.113281 C 251.105469 493.585938 227.265625 437.042969 233.632812 382.332031 Z M 233.632812 382.332031 "/>
<path style=" stroke:none;fill-rule:nonzero;fill:rgb(100%,100%,100%);fill-opacity:1;" d="M 399.722656 549.527344 C 405.027344 554.601562 410.222656 559.820312 415.421875 564.996094 C 410.222656 565.433594 405.003906 565.414062 399.808594 565.414062 C 399.808594 560.113281 399.597656 554.808594 399.808594 549.527344 Z M 399.722656 549.527344 "/>
<path style=" stroke:none;fill-rule:nonzero;fill:rgb(11.372549%,8.235294%,4.313725%);fill-opacity:1;" d="M 128.390625 128.007812 C 198.148438 57.207031 296.816406 14.894531 396.445312 15.75 C 452.179688 14.582031 508.496094 25.664062 558.925781 49.605469 C 647.429688 89.121094 719.257812 164.058594 755.828125 253.707031 C 773.445312 295.726562 782.210938 341.023438 784.695312 386.382812 L 784.695312 413.664062 C 782.023438 460.648438 772.628906 507.574219 753.800781 550.863281 C 736.226562 592.277344 711.117188 630.519531 680.035156 663.039062 C 641.125 704.597656 593.097656 738.164062 539.578125 757.992188 C 502.945312 773.105469 463.722656 780.890625 424.375 784.273438 L 376.636719 784.273438 C 337.355469 780.953125 298.238281 773.230469 261.605469 758.390625 C 206.101562 737.851562 156.296875 702.824219 116.46875 659.21875 C 67.230469 606.011719 34 538.445312 21.183594 467.140625 C 13.292969 419.359375 13.773438 370.121094 23 322.570312 C 38.445312 249.410156 74.996094 180.527344 128.390625 128.007812 M 370.269531 19.757812 C 315.832031 23.472656 262.542969 39.878906 214.929688 66.453125 C 162.078125 95.238281 117.011719 137.546875 83.300781 187.289062 C 57.167969 226.53125 38.527344 270.65625 27.671875 316.496094 C 18.425781 359.078125 16.296875 403.164062 21.496094 446.414062 C 30.886719 522.394531 63.785156 595.449219 114.613281 652.75 C 152.476562 695.078125 199.441406 729.8125 252.273438 751.0625 C 299.03125 770.683594 349.691406 782.121094 400.558594 780.890625 C 446.5 781.933594 492.382812 772.625 535.171875 756.15625 C 610.484375 728.625 675.652344 675.292969 719.464844 608.328125 C 754.972656 553.765625 776.03125 490.039062 780.542969 425.121094 C 783.527344 380.265625 778.410156 334.925781 765.742188 291.804688 C 745.179688 221.75 704.101562 157.941406 648.660156 110.453125 C 614.660156 80.769531 574.75 58.394531 532.8125 42.050781 C 481.152344 22.554688 425.210938 15.769531 370.269531 19.757812 Z M 370.269531 19.757812 "/>
<path style=" stroke:none;fill-rule:nonzero;fill:rgb(11.372549%,8.235294%,4.313725%);fill-opacity:1;" d="M 366.390625 55.285156 C 417.027344 50.691406 468.855469 56.183594 516.804688 73.425781 C 564.332031 91 608.605469 118.15625 644.382812 154.226562 C 671.121094 181.277344 693.9375 212.296875 710.992188 246.339844 C 759.0625 343.003906 757.746094 462.171875 708.546875 558.128906 C 680.847656 611.628906 639.019531 657.632812 588.753906 690.757812 C 562.957031 708.167969 534.234375 720.671875 504.800781 730.441406 C 460.339844 744.96875 412.894531 749.539062 366.410156 745.15625 C 327.335938 741.710938 289.367188 730.167969 253.609375 714.304688 C 196.019531 687.460938 146.546875 643.960938 111.230469 591.277344 C 79.128906 543.328125 59.191406 487.136719 55.039062 429.503906 C 52.492188 393.226562 54.289062 356.488281 62.21875 320.921875 C 78.8125 248.992188 120.082031 183.636719 175.917969 135.667969 C 229.332031 90.539062 296.484375 61.085938 366.390625 55.285156 M 363.300781 59.0625 C 321.488281 63.195312 280.621094 75.554688 243.382812 94.964844 C 179.757812 126.753906 128.304688 180.085938 95.15625 242.707031 C 40.636719 347.054688 45.3125 479.914062 108.097656 579.691406 C 144.921875 639.453125 200.257812 687.984375 265.046875 715.222656 C 301.453125 730.605469 340.316406 740.648438 379.851562 742.734375 C 393.671875 742.734375 407.488281 742.941406 421.308594 742.734375 C 467.855469 740.0625 513.378906 726.597656 555.105469 706.121094 C 618.144531 673.996094 670.601562 622 703.644531 559.484375 C 740.527344 490.375 751.570312 408.257812 736.121094 331.609375 C 724.703125 272.222656 696.023438 216.847656 656.050781 171.738281 C 618.164062 127.839844 567.777344 95.757812 513.503906 76.117188 C 465.558594 58.9375 413.792969 54.40625 363.300781 59.0625 Z M 363.300781 59.0625 "/>
<path style=" stroke:none;fill-rule:nonzero;fill:rgb(11.372549%,8.235294%,4.313725%);fill-opacity:1;" d="M 288.84375 141.242188 C 293.144531 139.46875 297.507812 137.839844 301.929688 136.378906 C 308.945312 149.757812 315.4375 163.453125 323.179688 176.433594 C 327.3125 185.117188 331.570312 193.761719 336.226562 202.171875 C 339.796875 201.359375 343.367188 200.523438 346.957031 199.707031 C 383.691406 191.503906 422.664062 192.214844 458.839844 202.882812 C 470.382812 180.796875 482.195312 158.816406 493.320312 136.523438 C 583.914062 167.523438 652.460938 250.785156 670.871094 344.089844 C 681.789062 399.113281 676.339844 457.496094 654.320312 509.199219 C 625.972656 575.246094 571.972656 630.871094 505.324219 658.488281 C 492.570312 663.894531 479.542969 668.96875 465.871094 671.535156 C 465.496094 656.945312 465.183594 642.375 465.328125 627.804688 C 468.355469 626.761719 471.363281 625.738281 474.390625 624.695312 C 526.988281 606.535156 572.972656 569.609375 601.402344 521.703125 C 609.941406 507.425781 616.933594 492.25 622.613281 476.617188 C 638.453125 430.738281 639.5625 379.867188 625.617188 333.363281 C 608.273438 274.875 568.527344 223.148438 515.28125 193.007812 C 510.1875 202.214844 504.757812 211.25 500.375 220.8125 C 517.097656 231.957031 533.523438 243.773438 547.277344 258.570312 C 538.429688 269.070312 528.660156 278.734375 519.351562 288.816406 C 509.226562 274.957031 497.371094 262.078125 482.363281 253.417969 C 472.574219 271.261719 462.84375 289.171875 453.179688 307.082031 C 436.210938 338.664062 418.863281 370.035156 401.914062 401.617188 C 400.351562 403.496094 399.621094 407.171875 396.632812 407.109375 C 392 400.679688 388.828125 393.375 384.925781 386.507812 C 361.296875 343.277344 338.0625 299.839844 314.183594 256.757812 C 269.785156 283.203125 238.769531 330.792969 233.632812 382.332031 C 227.265625 437.042969 251.105469 493.585938 293.789062 528.113281 C 312.597656 544.183594 335.703125 553.914062 359.144531 561.03125 C 358.9375 543.328125 359.605469 525.609375 358.769531 507.925781 C 359.292969 483.921875 358.5625 459.875 359.230469 435.871094 C 396.824219 435.390625 434.4375 435.871094 472.050781 435.664062 C 472.488281 448.394531 472.34375 461.128906 472.257812 473.839844 C 451.136719 474.089844 430.03125 474.050781 408.929688 473.839844 C 406.109375 474.238281 402.582031 473.109375 400.226562 475.074219 C 399.390625 484.363281 400.015625 493.734375 400.015625 503.0625 C 410.453125 503.523438 420.929688 502.5625 431.347656 503.523438 C 431.765625 503.941406 432.640625 504.777344 433.058594 505.171875 C 433.875 517.570312 433.058594 530.011719 433.394531 542.410156 C 423.207031 543.265625 412.980469 542.410156 402.8125 542.953125 C 398.953125 542.535156 400.183594 547.148438 399.746094 549.507812 C 399.746094 554.789062 399.746094 560.089844 399.746094 565.394531 C 404.941406 565.394531 410.160156 565.394531 415.359375 564.976562 C 454.765625 560.382812 491.839844 541.535156 519.539062 513.230469 C 529.640625 521.726562 539.429688 530.597656 548.78125 539.90625 C 522.441406 569.085938 487.101562 589.273438 449.195312 599.101562 C 432.953125 602.757812 416.421875 605.65625 399.703125 604.761719 C 399.496094 628.804688 399.972656 652.875 399.496094 676.941406 C 386.03125 676.730469 372.546875 677.273438 359.105469 676.628906 C 359.105469 651.496094 359.105469 626.386719 359.105469 601.273438 C 284.105469 586.914062 218.5 528.507812 198.523438 454.386719 C 188.878906 419.234375 188.691406 381.433594 198.191406 346.21875 C 210.085938 301.238281 238.140625 261.015625 275.464844 233.398438 C 281.703125 228.871094 288.238281 224.800781 294.5625 220.414062 C 289.699219 211.273438 284.835938 202.152344 279.722656 193.15625 C 230.148438 221.125 192.386719 267.902344 173.328125 321.339844 C 156.734375 367.113281 155.292969 418.109375 168.675781 464.886719 C 190.738281 541.429688 252.960938 605.34375 329.652344 627.785156 C 329.441406 642.394531 329.984375 657.007812 329.402344 671.597656 C 265.777344 656.253906 209.546875 615.71875 171.285156 563.054688 C 113.695312 485.382812 102.839844 376.882812 141.058594 288.441406 C 157.777344 251.414062 181.324219 217.097656 211.738281 189.960938 C 234.46875 169.546875 260.683594 153.054688 288.84375 141.242188 M 243.191406 170.046875 C 193.996094 202.921875 156.921875 252.707031 137.09375 308.273438 C 118.054688 364.171875 117.054688 426.1875 134.753906 482.566406 C 152.476562 539.65625 189.507812 590.273438 237.953125 625.175781 C 265.132812 643.398438 294.648438 658.40625 326.1875 667.445312 C 326.1875 655.085938 326.4375 642.730469 325.976562 630.394531 C 257.449219 609.375 201.070312 555.5625 173.539062 489.808594 C 154.523438 444.410156 151.621094 393.019531 161.953125 345.136719 C 175.898438 285.394531 213.09375 230.976562 264.945312 197.851562 C 270.265625 194.761719 275.171875 190.167969 281.308594 189 C 320.632812 259.554688 358.351562 331.066406 397.554688 401.722656 C 436.042969 330.566406 474.765625 259.53125 513.464844 188.480469 C 590.152344 228.328125 640.457031 313.949219 638.496094 400.324219 C 639.121094 437.710938 629.269531 474.800781 612.632812 508.136719 C 583.683594 565.976562 530.558594 611.125 468.792969 630.394531 C 468.0625 642.730469 469.523438 655.066406 469.253906 667.402344 C 500.710938 658.488281 530.058594 643.417969 557.214844 625.363281 C 624.34375 576.976562 668.617188 497.59375 672.25 414.6875 C 675.589844 358.265625 661.519531 300.777344 631.085938 253.019531 C 599.816406 202.027344 551.515625 161.34375 495.179688 140.84375 C 463.410156 202.027344 431.453125 263.121094 399.433594 324.15625 C 394.757812 328.75 392.710938 317.707031 390.289062 314.617188 C 360.230469 256.632812 329.984375 198.726562 299.988281 140.699219 C 280.035156 148.359375 260.808594 158.066406 243.089844 170.046875 M 338.042969 205.992188 C 343.679688 215.71875 347.5 226.929688 354.429688 235.652344 C 364.175781 234.003906 373.863281 231.519531 383.796875 231.164062 C 403.0625 231.164062 422.601562 230.039062 441.472656 234.777344 C 447.460938 225.738281 451.71875 215.738281 457.023438 206.304688 C 418.59375 194.71875 376.535156 194.511719 338.042969 205.992188 M 196.0625 423.160156 C 201.570312 472.296875 226.535156 518.90625 264.214844 550.886719 C 297.839844 580.296875 341.488281 598.226562 386.011719 601.316406 C 444.394531 605.175781 503.988281 582.152344 544.335938 539.71875 C 535.925781 532.621094 528.054688 524.917969 519.769531 517.695312 C 487.226562 550.800781 441.03125 570.925781 394.378906 569.109375 C 366.304688 569.109375 338.941406 559.945312 314.433594 546.753906 C 274.359375 523.375 243.757812 483.421875 233.488281 437.960938 C 227.101562 409.238281 227.808594 378.761719 236.367188 350.542969 C 248.246094 310.066406 276.652344 275.082031 312.742188 253.605469 C 307.316406 243.816406 302.160156 233.878906 296.609375 224.152344 C 227.539062 262.578125 185.894531 344.695312 196.0625 423.160156 M 484.21875 250.054688 C 498.664062 258.257812 510.4375 270.15625 520.476562 283.246094 C 527.59375 274.6875 535.777344 267.089844 542.917969 258.570312 C 529.410156 245.503906 514.714844 233.628906 498.351562 224.320312 C 493.382812 232.75 488.917969 241.476562 484.21875 250.054688 M 355.953125 239.429688 C 369.039062 266.546875 383.652344 292.949219 397.261719 319.816406 C 406.007812 305.121094 413.125 289.507812 421.410156 274.5625 C 427.902344 262.328125 434.289062 250.054688 440.636719 237.742188 C 421.285156 234.253906 401.539062 233.671875 381.980469 234.921875 C 373.195312 235.652344 364.511719 237.28125 355.953125 239.429688 M 362.925781 439.085938 C 362.925781 480.082031 362.382812 521.097656 363.238281 562.09375 C 374.195312 564.183594 385.257812 565.808594 396.425781 565.328125 C 396.425781 556.8125 396.425781 548.296875 396.425781 539.78125 C 407.511719 539.050781 418.613281 539.445312 429.71875 539.46875 C 429.929688 528.53125 429.929688 517.59375 429.929688 506.65625 C 418.78125 506.65625 407.65625 506.65625 396.53125 506.65625 C 396.53125 494.734375 396.53125 482.816406 396.53125 470.898438 C 420.640625 470 444.8125 470.6875 468.941406 470.480469 C 468.730469 459.960938 469.273438 449.441406 468.628906 438.917969 C 433.433594 439.253906 398.222656 438.917969 363.027344 439.128906 M 363.027344 602.316406 C 363.027344 626.09375 363.027344 649.890625 363.027344 673.664062 C 374.214844 673.664062 385.40625 673.664062 396.613281 673.664062 C 396.613281 650.703125 396.613281 627.742188 396.613281 604.78125 C 385.34375 605.304688 374.132812 604.300781 363.050781 602.296875 Z M 363.027344 602.316406 "/>
<path style=" stroke:none;fill-rule:nonzero;fill:rgb(100%,67.843137%,17.254902%);fill-opacity:1;" d="M 370.269531 19.757812 C 425.210938 15.769531 481.152344 22.554688 532.8125 42.050781 C 574.75 58.394531 614.660156 80.769531 648.660156 110.453125 C 704.101562 157.941406 745.179688 221.75 765.742188 291.804688 C 778.410156 334.925781 783.527344 380.265625 780.542969 425.121094 C 776.03125 490.039062 754.972656 553.765625 719.464844 608.328125 C 675.652344 675.292969 610.484375 728.625 535.171875 756.15625 C 492.382812 772.625 446.5 781.933594 400.558594 780.890625 C 349.691406 782.121094 299.03125 770.683594 252.273438 751.0625 C 199.441406 729.8125 152.476562 695.078125 114.613281 652.75 C 63.785156 595.449219 30.886719 522.394531 21.496094 446.414062 C 16.296875 403.164062 18.425781 359.078125 27.671875 316.496094 C 38.527344 270.65625 57.167969 226.53125 83.300781 187.289062 C 117.011719 137.546875 162.078125 95.238281 214.929688 66.453125 C 262.542969 39.878906 315.832031 23.472656 370.269531 19.757812 M 366.390625 55.285156 C 296.484375 61.085938 229.332031 90.539062 175.917969 135.667969 C 120.082031 183.636719 78.8125 248.992188 62.21875 320.921875 C 54.289062 356.488281 52.492188 393.226562 55.039062 429.503906 C 59.191406 487.136719 79.128906 543.328125 111.230469 591.277344 C 146.546875 643.960938 196.019531 687.460938 253.609375 714.304688 C 289.367188 730.167969 327.335938 741.710938 366.410156 745.15625 C 412.894531 749.539062 460.339844 744.945312 504.800781 730.441406 C 534.234375 720.671875 562.957031 708.167969 588.753906 690.757812 C 639.019531 657.632812 680.847656 611.628906 708.546875 558.128906 C 757.746094 462.171875 759.0625 343.003906 710.992188 246.339844 C 693.9375 212.296875 671.121094 181.277344 644.382812 154.226562 C 608.605469 118.15625 564.332031 91 516.804688 73.425781 C 468.855469 56.183594 417.027344 50.691406 366.390625 55.285156 Z M 366.390625 55.285156 "/>
<path style=" stroke:none;fill-rule:nonzero;fill:rgb(100%,67.843137%,17.254902%);fill-opacity:1;" d="M 243.191406 170.046875 C 260.914062 158.066406 280.140625 148.359375 300.09375 140.699219 C 330.089844 198.726562 360.335938 256.632812 390.394531 314.617188 C 392.816406 317.707031 394.859375 328.75 399.535156 324.15625 C 431.554688 263.121094 463.511719 202.027344 495.28125 140.84375 C 551.621094 161.34375 599.921875 202.027344 631.191406 253.019531 C 661.625 300.777344 675.691406 358.265625 672.351562 414.6875 C 668.722656 497.59375 624.449219 576.976562 557.320312 625.363281 C 530.164062 643.417969 500.816406 658.488281 469.359375 667.402344 C 469.628906 655.066406 468.167969 642.730469 468.898438 630.394531 C 530.664062 611.125 583.785156 565.976562 612.738281 508.136719 C 629.375 474.800781 639.226562 437.710938 638.601562 400.324219 C 640.5625 313.949219 590.257812 228.328125 513.570312 188.480469 C 474.867188 259.53125 436.148438 330.566406 397.65625 401.722656 C 358.457031 331.066406 320.738281 259.554688 281.414062 189 C 275.277344 190.167969 270.371094 194.761719 265.046875 197.851562 C 213.199219 230.976562 176 285.394531 162.058594 345.136719 C 151.726562 393.019531 154.625 444.410156 173.640625 489.808594 C 201.175781 555.5625 257.554688 609.375 326.082031 630.394531 C 326.4375 642.730469 326.289062 655.085938 326.289062 667.445312 C 294.75 658.40625 265.234375 643.398438 238.058594 625.175781 C 189.609375 590.273438 152.582031 539.65625 134.859375 482.566406 C 117.160156 426.1875 118.160156 364.171875 137.199219 308.273438 C 157.027344 252.707031 194.097656 202.921875 243.296875 170.046875 Z M 243.191406 170.046875 "/>
<path style=" stroke:none;fill-rule:nonzero;fill:rgb(100%,67.843137%,17.254902%);fill-opacity:1;" d="M 338.148438 205.992188 C 376.636719 194.511719 418.699219 194.71875 457.125 206.304688 C 451.824219 215.738281 447.566406 225.738281 441.574219 234.777344 C 422.707031 230.039062 403.167969 231.125 383.902344 231.164062 C 373.964844 231.519531 364.28125 234.003906 354.53125 235.652344 C 347.601562 226.929688 343.78125 215.71875 338.148438 205.992188 Z M 338.148438 205.992188 "/>
<path style=" stroke:none;fill-rule:nonzero;fill:rgb(100%,67.843137%,17.254902%);fill-opacity:1;" d="M 196.0625 423.160156 C 185.894531 344.695312 227.539062 262.578125 296.609375 224.152344 C 302.160156 233.878906 307.316406 243.816406 312.742188 253.605469 C 276.652344 275.082031 248.246094 310.066406 236.367188 350.542969 C 227.808594 378.761719 227.101562 409.238281 233.488281 437.960938 C 243.757812 483.421875 274.359375 523.375 314.433594 546.753906 C 338.941406 559.945312 366.304688 569.109375 394.378906 569.109375 C 441.03125 570.925781 487.226562 550.800781 519.769531 517.695312 C 528.054688 524.917969 535.925781 532.621094 544.335938 539.71875 C 503.988281 582.152344 444.394531 605.175781 386.011719 601.316406 C 341.488281 598.226562 297.839844 580.296875 264.214844 550.886719 C 226.535156 518.90625 201.570312 472.296875 196.0625 423.160156 Z M 196.0625 423.160156 "/>
<path style=" stroke:none;fill-rule:nonzero;fill:rgb(100%,67.843137%,17.254902%);fill-opacity:1;" d="M 484.21875 250.054688 C 488.917969 241.476562 493.382812 232.75 498.351562 224.320312 C 514.714844 233.628906 529.410156 245.503906 542.917969 258.570312 C 535.777344 267.089844 527.59375 274.6875 520.476562 283.246094 C 510.4375 270.15625 498.664062 258.257812 484.21875 250.054688 Z M 484.21875 250.054688 "/>
<path style=" stroke:none;fill-rule:nonzero;fill:rgb(100%,67.843137%,17.254902%);fill-opacity:1;" d="M 362.925781 439.085938 C 398.117188 438.878906 433.332031 439.296875 468.523438 438.878906 C 469.171875 449.398438 468.730469 459.917969 468.835938 470.4375 C 444.707031 470.730469 420.535156 469.957031 396.425781 470.855469 C 396.425781 482.773438 396.425781 494.695312 396.425781 506.613281 C 407.550781 506.613281 418.675781 506.613281 429.824219 506.613281 C 429.824219 517.550781 429.824219 528.488281 429.613281 539.425781 C 418.511719 539.425781 407.40625 539.007812 396.320312 539.738281 C 396.320312 548.253906 396.320312 556.773438 396.320312 565.289062 C 385.152344 565.769531 374.089844 564.140625 363.132812 562.054688 C 362.277344 521.058594 362.902344 480.039062 362.820312 439.046875 Z M 362.925781 439.085938 "/>
<path style=" stroke:none;fill-rule:nonzero;fill:rgb(100%,67.843137%,17.254902%);fill-opacity:1;" d="M 362.882812 602.277344 C 373.964844 604.28125 385.175781 605.28125 396.445312 604.761719 C 396.445312 627.722656 396.445312 650.683594 396.445312 673.644531 C 385.238281 673.644531 374.050781 673.644531 362.859375 673.644531 C 362.859375 649.867188 362.859375 626.070312 362.859375 602.296875 Z M 362.882812 602.277344 "/>
<path style=" stroke:none;fill-rule:nonzero;fill:rgb(40.392157%,28.627451%,52.54902%);fill-opacity:1;" d="M 95.15625 242.707031 C 128.304688 180.085938 179.757812 126.753906 243.382812 94.964844 C 258.453125 110.472656 273.730469 125.773438 288.84375 141.242188 C 260.683594 153.054688 234.46875 169.546875 211.738281 189.960938 C 181.324219 217.097656 157.777344 251.414062 141.058594 288.441406 C 125.363281 273.582031 110.855469 257.527344 95.15625 242.707031 Z M 95.15625 242.707031 "/>
<path style=" stroke:none;fill-rule:nonzero;fill:rgb(40.392157%,28.627451%,52.54902%);fill-opacity:1;" d="M 323.179688 176.433594 C 331.488281 183.78125 339.191406 191.796875 346.957031 199.707031 C 343.367188 200.523438 339.796875 201.359375 336.226562 202.171875 C 331.570312 193.761719 327.3125 185.117188 323.179688 176.433594 Z M 323.179688 176.433594 "/>
<path style=" stroke:none;fill-rule:nonzero;fill:rgb(40.392157%,28.627451%,52.54902%);fill-opacity:1;" d="M 173.328125 321.359375 C 192.386719 267.921875 230.148438 221.144531 279.722656 193.175781 C 284.835938 202.171875 289.699219 211.292969 294.5625 220.4375 C 288.238281 224.820312 281.703125 228.890625 275.464844 233.417969 C 238.140625 261.035156 210.085938 301.257812 198.191406 346.242188 C 189.859375 337.976562 181.574219 329.6875 173.328125 321.359375 Z M 173.328125 321.359375 "/>
<path style=" stroke:none;fill-rule:nonzero;fill:rgb(40.392157%,28.627451%,52.54902%);fill-opacity:1;" d="M 355.953125 239.429688 C 364.511719 237.28125 373.195312 235.652344 381.980469 234.921875 C 394.945312 248.324219 408.28125 261.328125 421.410156 274.5625 C 413.125 289.507812 406.007812 305.121094 397.261719 319.816406 C 383.652344 292.949219 369.039062 266.546875 355.953125 239.429688 Z M 355.953125 239.429688 "/>
<path style=" stroke:none;fill-rule:nonzero;fill:rgb(40.392157%,28.627451%,52.54902%);fill-opacity:1;" d="M 314.183594 256.757812 C 338.0625 299.839844 361.296875 343.277344 384.925781 386.507812 C 388.828125 393.375 392 400.679688 396.632812 407.109375 C 399.621094 407.109375 400.351562 403.496094 401.914062 401.617188 C 418.863281 370.035156 436.210938 338.664062 453.179688 307.082031 C 468.503906 321.964844 483.425781 337.265625 498.601562 352.292969 C 523.691406 378.65625 550.179688 403.644531 575.25 430.007812 C 591.15625 445.410156 606.140625 461.796875 622.613281 476.617188 C 616.933594 492.25 609.941406 507.425781 601.402344 521.703125 C 572.972656 569.609375 526.988281 606.535156 474.390625 624.695312 C 466.121094 616.050781 457.375 607.890625 449.257812 599.125 C 487.164062 589.292969 522.503906 569.109375 548.84375 539.925781 C 539.492188 530.617188 529.703125 521.746094 519.601562 513.25 C 491.902344 541.554688 454.832031 560.402344 415.421875 564.996094 C 410.222656 559.820312 405.027344 554.601562 399.722656 549.527344 C 400.164062 547.171875 398.929688 542.558594 402.792969 542.972656 C 412.957031 542.453125 423.1875 543.289062 433.371094 542.433594 C 432.976562 530.03125 433.851562 517.59375 433.039062 505.191406 C 432.621094 504.796875 431.742188 503.960938 431.328125 503.542969 C 420.910156 502.585938 410.433594 503.542969 399.996094 503.085938 C 399.996094 493.753906 399.347656 484.382812 400.203125 475.09375 C 402.5625 473.132812 406.089844 474.257812 408.910156 473.863281 C 430.011719 474.070312 451.113281 474.089844 472.238281 473.863281 C 472.449219 461.148438 472.511719 448.417969 472.03125 435.683594 C 434.414062 435.894531 396.800781 435.414062 359.207031 435.894531 C 358.539062 459.898438 359.207031 483.945312 358.75 507.949219 C 316.792969 466.328125 275.652344 423.890625 233.613281 382.351562 C 238.746094 330.816406 269.765625 283.222656 314.164062 256.777344 Z M 314.183594 256.757812 "/>
<path style=" stroke:none;fill-rule:nonzero;fill:rgb(40.392157%,28.627451%,52.54902%);fill-opacity:1;" d="M 505.324219 658.488281 C 571.972656 630.871094 625.972656 575.246094 654.320312 509.199219 C 670.601562 526.109375 687.402344 542.496094 703.644531 559.445312 C 670.601562 621.960938 618.144531 673.957031 555.105469 706.082031 C 543.144531 694.683594 532.144531 682.367188 520.226562 670.929688 C 515.445312 666.628906 511.753906 660.449219 505.324219 658.488281 Z M 505.324219 658.488281 "/>
</g>
</svg>
