<?xml version="1.0" encoding="UTF-8" standalone="no"?>
<svg
   xmlns:dc="http://purl.org/dc/elements/1.1/"
   xmlns:cc="http://creativecommons.org/ns#"
   xmlns:rdf="http://www.w3.org/1999/02/22-rdf-syntax-ns#"
   xmlns:svg="http://www.w3.org/2000/svg"
   xmlns="http://www.w3.org/2000/svg"
   xmlns:xlink="http://www.w3.org/1999/xlink"
   xmlns:sodipodi="http://sodipodi.sourceforge.net/DTD/sodipodi-0.dtd"
   xmlns:inkscape="http://www.inkscape.org/namespaces/inkscape"
   version="1.1"
   id="svg833"
   xml:space="preserve"
   width="700"
   height="700"
   viewBox="0 0 700 699.99997"
   sodipodi:docname="Logo Manchester City FC - 1972.svg"
   inkscape:version="1.0.1 (c497b03c, 2020-09-10)"><metadata
     id="metadata839"><rdf:RDF><cc:Work
         rdf:about=""><dc:format>image/svg+xml</dc:format><dc:type
           rdf:resource="http://purl.org/dc/dcmitype/StillImage" /></cc:Work></rdf:RDF></metadata><defs
     id="defs837"><linearGradient
       inkscape:collect="always"
       id="linearGradient1128"><stop
         style="stop-color:#ffffff;stop-opacity:1"
         offset="0"
         id="stop1124" /><stop
         style="stop-color:#679cf6;stop-opacity:1"
         offset="0.34419912"
         id="stop1130" /><stop
         style="stop-color:#0067da;stop-opacity:1"
         offset="1"
         id="stop1126" /></linearGradient><linearGradient
       inkscape:collect="always"
       xlink:href="#linearGradient1128"
       id="linearGradient1122"
       x1="273.23004"
       y1="433.27271"
       x2="275.64322"
       y2="562.82495"
       gradientUnits="userSpaceOnUse" /></defs><sodipodi:namedview
     pagecolor="#ffffff"
     bordercolor="#666666"
     borderopacity="1"
     objecttolerance="10"
     gridtolerance="10"
     guidetolerance="10"
     inkscape:pageopacity="0"
     inkscape:pageshadow="2"
     inkscape:window-width="1920"
     inkscape:window-height="1080"
     id="namedview835"
     showgrid="false"
     inkscape:zoom="0.64222086"
     inkscape:cx="533.21647"
     inkscape:cy="288.1814"
     inkscape:window-x="0"
     inkscape:window-y="0"
     inkscape:window-maximized="0"
     inkscape:current-layer="g841" /><g
     id="g841"
     inkscape:groupmode="layer"
     inkscape:label="Logo Manchester City FC - 1972"
     transform="matrix(1.3333333,0,0,-1.3333333,-17.48112,926.72459)"><g
       id="g1084"><path
         style="fill:#000000;fill-opacity:1;fill-rule:evenodd;stroke:none;stroke-width:0.968164"
         d="m 13.11084,432.54369 c 0,-144.74271 117.75774,-262.50024 262.50071,-262.50024 144.74345,0 262.4993,117.75753 262.4993,262.50024 0,144.74318 -117.75585,262.49977 -262.4993,262.49977 -144.74297,0 -262.50071,-117.75659 -262.50071,-262.49977"
         id="path845" /><path
         style="fill:#ffffff;fill-opacity:1;fill-rule:evenodd;stroke:none;stroke-width:0.968164"
         d="m 21.946291,432.54369 c 0,139.8707 113.794319,253.6641 253.665259,253.6641 139.87143,0 253.66434,-113.7934 253.66434,-253.6641 0,-139.87069 -113.79291,-253.66482 -253.66434,-253.66482 -139.87094,0 -253.665259,113.79413 -253.665259,253.66482 z"
         id="path1078" /><path
         style="fill:#000000;fill-opacity:1;fill-rule:evenodd;stroke:none;stroke-width:0.968164"
         d="m 95.810908,432.54369 c 0,-98.8188 80.657852,-179.21318 179.800642,-179.21318 99.14186,0 179.79971,80.39438 179.79971,179.21318 0,98.81784 -80.65785,179.21271 -179.79971,179.21271 -99.14279,0 -179.800642,-80.39487 -179.800642,-179.21271"
         id="path849" /><path
         style="fill:#0067da;fill-opacity:1;fill-rule:evenodd;stroke:none;stroke-width:0.968164"
         d="m 104.64636,432.54369 c 0,93.94631 76.69395,170.37727 170.96519,170.37727 94.27031,0 170.96426,-76.43096 170.96426,-170.37727 0,-93.94631 -76.69395,-170.37776 -170.96426,-170.37776 -94.27124,0 -170.96519,76.43145 -170.96519,170.37776 z"
         id="path1074" /></g><g
       id="g1070"><path
         d="m 101.60099,346.10726 -35.091709,-24.62481 11.355128,-16.18032 23.617921,6.81874 c 1.38796,0.41506 3.01559,1.04617 4.80348,1.83185 -1.28018,-1.43617 -2.38023,-2.75983 -3.16167,-3.8717 l -14.443038,-20.19433 11.266251,-16.05553 36.038607,25.28947 -7.67204,10.93296 c 0,0 -18.24527,-12.80357 -20.12912,-14.12487 0.73983,0.96297 1.54537,1.93491 2.18924,2.887 l 12.7081,18.69197 -7.44797,10.61434 -22.034724,-5.48468 c -1.078313,-0.26284 -2.349968,-0.63772 -3.708138,-1.06413 1.621007,1.13788 20.327192,14.26575 20.327192,14.26575 l -7.67062,10.93249 z"
         style="fill:#000000;fill-opacity:1;fill-rule:nonzero;stroke:none;stroke-width:0.968164"
         id="path851" /><path
         d="m 81.821685,411.03988 -37.068457,-26.68168 4.549144,-18.15966 46.980332,-6.35831 -3.409846,13.60723 c 0,0 -9.826784,1.37519 -11.163684,1.56192 -0.332806,1.32745 -3.828694,15.28118 -4.163863,16.61855 1.102895,0.79278 9.128544,6.56111 9.128544,6.56111 l -3.469883,13.84548 -1.382287,-0.99464 M 68.417717,385.68706 c 0.540807,-2.15851 1.93538,-7.7245 2.478085,-9.8901 -2.299391,0.30444 -10.122713,1.3421 -13.795871,1.82995 3.01653,2.15001 9.436526,6.72137 11.317786,8.06015 z"
         style="fill:#000000;fill-opacity:1;fill-rule:nonzero;stroke:none;stroke-width:0.968164"
         id="path853" /><path
         d="m 42.682411,473.5157 -0.992988,-12.16066 19.728009,-1.60967 c 1.712964,-0.14134 3.725168,-0.1612 5.800952,-0.15175 -2.596744,-0.88873 -4.504948,-1.65693 -5.757937,-2.33484 l -20.997544,-10.93012 -1.463584,-17.91101 43.879408,-3.58381 1.087297,13.31224 -22.259982,1.81814 c -0.01041,0 -5.508808,0.2151 -5.654169,0.22077 2.186881,0.91238 4.094611,1.80065 5.644235,2.64023 l 23.695684,12.77427 1.264103,15.48493 -43.879175,3.58286 z"
         style="fill:#000000;fill-opacity:1;fill-rule:nonzero;stroke:none;stroke-width:0.968164"
         id="path855" /><path
         d="m 66.746587,535.45731 c -5.292752,-3.1971 -9.210324,-7.97457 -11.644444,-14.19908 v 0 c -2.839734,-7.26265 -3.280316,-13.64363 -1.309714,-18.96805 1.98951,-5.37218 6.345544,-9.40555 12.948485,-11.98717 6.776687,-2.65062 12.985604,-2.74942 18.452336,-0.29261 5.461523,2.45112 9.594657,7.18321 12.285951,14.06435 1.266456,3.23872 1.952875,6.4623 2.03938,9.58094 0.08365,3.10162 -0.337056,6.28975 -1.250858,9.47268 l -0.157889,0.54979 -11.742781,4.59215 1.363844,-2.69884 c 2.691759,-5.33104 3.024101,-10.41768 1.016389,-15.55017 -1.456982,-3.72563 -3.614546,-6.23113 -6.412203,-7.44559 -2.800493,-1.21588 -6.115324,-1.09155 -9.85183,0.36921 -3.48029,1.36195 -5.794339,3.39424 -7.073091,6.21505 -1.273785,2.80995 -1.213981,5.91109 0.182712,9.48119 0.981167,2.5107 2.511419,4.79732 4.549386,6.79841 2.028983,1.98975 4.344445,3.43537 6.879739,4.29433 l 3.001397,1.01733 -12.788941,5.00155 z"
         style="fill:#000000;fill-opacity:1;fill-rule:nonzero;stroke:none;stroke-width:0.968164"
         id="path857" /><path
         d="m 103.76471,594.68023 -7.839868,-10.0045 c 0,0 10.678178,-8.3679 12.236788,-9.58992 -1.17854,-1.5033 -9.237744,-11.78861 -10.41723,-13.29286 -1.558135,1.22155 -12.236312,9.58945 -12.236312,9.58945 l -8.552273,-10.91358 34.653015,-27.15536 8.55227,10.91405 c 0,0 -12.7152,9.96338 -14.31068,11.2133 1.17901,1.50471 9.23869,11.78908 10.4177,13.29333 1.59549,-1.24992 14.30973,-11.21283 14.30973,-11.21283 l 8.55275,10.91311 -34.65301,27.15489 z"
         style="fill:#000000;fill-opacity:1;fill-rule:nonzero;stroke:none;stroke-width:0.968164"
         id="path859" /><path
         d="m 152.14599,633.69937 -29.56069,-22.20912 26.44441,-35.19849 30.48537,22.90405 -6.18576,8.23222 c 0,0 -17.72243,-13.31461 -19.39922,-14.57397 -0.88638,1.17994 -2.98061,3.9672 -3.86746,5.14762 1.67585,1.25889 19.39922,14.57444 19.39922,14.57444 l -6.18528,8.2327 c 0,0 -17.72243,-13.31555 -19.39876,-14.57539 -0.87834,1.16907 -2.88841,3.84476 -3.76629,5.01288 1.67632,1.25937 19.39923,14.57492 19.39923,14.57492 l -6.44057,8.57212 z"
         style="fill:#000000;fill-opacity:1;fill-rule:nonzero;stroke:none;stroke-width:0.968164"
         id="path861" /><path
         d="m 202.77845,657.70276 c -2.55089,-0.23518 -5.41284,-0.88945 -8.50453,-1.94483 -5.37881,-1.83728 -9.44907,-4.59735 -12.09734,-8.20456 -2.74518,-3.73556 -3.4401,-7.6692 -2.06727,-11.68981 1.54821,-4.53259 5.06915,-7.13784 10.46497,-7.74294 0.81972,-0.0851 3.04962,-0.10542 13.03003,0.67932 3.8391,0.31295 6.19947,-0.23921 6.64716,-1.55294 0.21982,-0.64055 0.37677,-1.64512 -0.77813,-2.96358 -1.01071,-1.15489 -2.66576,-2.13109 -4.91977,-2.9007 -2.72154,-0.92799 -5.49178,-1.33643 -8.23365,-1.2121 -2.37125,0.0917 -4.89425,0.62307 -7.5099,1.58036 l -2.27386,0.83202 3.92371,-11.49032 0.66704,-0.12197 c 5.84019,-1.06129 11.68983,-0.61267 17.38631,1.33169 5.22231,1.78458 9.2472,4.53874 11.9659,8.19062 2.81751,3.78284 3.58949,7.62429 2.29514,11.41516 -1.33406,3.9081 -3.96248,6.43393 -7.80961,7.5061 -2.88795,0.79183 -6.95017,0.84619 -12.41406,0.16924 -5.03606,-0.65616 -7.01022,-0.6642 -7.78125,-0.55641 -0.80224,0.11298 -1.26126,0.50866 -1.53876,1.32035 -0.20847,0.60841 -0.35171,1.5657 0.80035,2.82979 1.02631,1.12511 2.74375,2.10462 5.10508,2.91016 2.66009,0.90861 5.19868,1.3128 7.54299,1.20311 2.35517,-0.11109 4.78929,-0.64055 7.23287,-1.57089 l 2.30222,-0.8774 -4.20735,12.3202 -0.68122,0.11322 c -3.11864,0.51835 -5.99524,0.66656 -8.54707,0.42711 z"
         style="fill:#000000;fill-opacity:1;fill-rule:nonzero;stroke:none;stroke-width:0.968164"
         id="path863" /><path
         d="m 273.93287,669.68355 -43.55653,-4.65172 1.1393,-10.66043 c 0,0 13.48905,1.43972 15.45895,1.64985 0.22881,-2.1415 3.5356,-33.11538 3.5356,-33.11538 l 13.78784,1.47305 c 0,0 -3.30632,30.97246 -3.53654,33.11537 1.96988,0.20895 15.45943,1.65032 15.45943,1.65032 l -1.13788,10.66161 z"
         style="fill:#000000;fill-opacity:1;fill-rule:nonzero;stroke:none;stroke-width:0.968164"
         id="path865" /><path
         d="m 294.62077,667.3045 -7.19222,-42.26187 37.5906,-6.39658 1.72738,10.15153 c 0,0 -21.8532,3.71853 -23.92047,4.07072 0.24724,1.45556 0.83155,4.89187 1.0802,6.34695 2.06681,-0.35171 23.92047,-4.07025 23.92047,-4.07025 l 1.72738,10.152 c 0,0 -21.85414,3.71878 -23.92047,4.07049 0.24535,1.4409 0.80697,4.73894 1.05089,6.17984 2.06728,-0.35172 23.92143,-4.07026 23.92143,-4.07026 l 1.79876,10.57014 -37.59013,6.39683 z"
         style="fill:#000000;fill-opacity:1;fill-rule:nonzero;stroke:none;stroke-width:0.968164"
         id="path867" /><path
         d="m 355.55983,653.19169 -16.36709,-39.62187 12.81589,-5.29323 c 0,0 4.35958,10.5543 5.93663,14.37069 1.52268,-4.32269 6.93599,-19.6885 6.93599,-19.6885 l 16.10661,-6.65281 c 0,0 -8.27478,20.19669 -9.82678,23.98094 3.82586,-1.2154 7.32364,-1.52694 10.35672,-0.7351 3.80411,0.99464 6.54692,3.46941 8.15187,7.35435 1.67774,4.0608 1.20926,7.81101 -1.3908,11.14758 -2.18073,2.80758 -5.9092,5.31497 -11.08047,7.45127 l -21.19751,8.7553 -0.44106,-1.06862 m 9.3252,-13.74244 c 1.48062,-0.61171 5.3041,-2.19112 5.3041,-2.19112 3.86321,-1.59596 5.332,-2.7447 5.88416,-3.42781 0.27418,-0.33895 0.57201,-0.84241 0.52757,-1.65741 -0.0223,-0.41317 -0.13283,-0.90529 -0.3763,-1.49668 -0.42404,-1.02725 -1.05467,-1.70232 -1.92734,-2.06444 -1.6333,-0.67885 -4.15819,-0.32146 -7.50423,1.06035 0,0 -3.62021,1.49668 -5.07955,2.09894 0.6155,1.48913 2.55703,6.18811 3.17159,7.67817 z"
         style="fill:#000000;fill-opacity:1;fill-rule:nonzero;stroke:none;stroke-width:0.968164"
         id="path869" /><path
         d="m 421.24705,593.94276 v 0 c -5.63644,-4.60113 -8.7721,-9.96101 -9.31763,-15.93118 -0.54696,-5.95979 1.54537,-11.88412 6.21838,-17.60705 2.19775,-2.69412 4.6678,-4.87486 7.34301,-6.4831 2.66293,-1.59785 5.64589,-2.7967 8.86712,-3.56348 l 0.55546,-0.13142 9.76722,7.97221 -3.02032,0.13899 c -5.96546,0.27324 -10.55952,2.47997 -14.04406,6.75066 -2.53056,3.09926 -3.6533,6.20939 -3.33751,9.24246 0.31767,3.03827 2.05356,5.86429 5.16086,8.40146 2.89552,2.36132 5.80285,3.37959 8.88651,3.10919 3.07373,-0.27182 5.74658,-1.84699 8.1703,-4.81624 1.70469,-2.08902 2.94562,-4.54488 3.68734,-7.30187 0.737,-2.74518 0.85897,-5.47145 0.3626,-8.10128 l -0.58951,-3.11485 10.63799,8.68368 -0.0156,0.57059 c -0.18721,6.1796 -2.42514,11.93847 -6.65046,17.11682 -4.93112,6.04061 -10.27447,9.55919 -15.88064,10.45549 -5.65583,0.90624 -11.30786,-0.90717 -16.80107,-5.39108 z"
         style="fill:#000000;fill-opacity:1;fill-rule:nonzero;stroke:none;stroke-width:0.968164"
         id="path871" /><path
         d="m 473.99832,557.03818 -37.01056,-21.63144 6.99698,-11.97157 38.0085,22.21527 -6.9965,11.97157 z"
         style="fill:#000000;fill-opacity:1;fill-rule:nonzero;stroke:none;stroke-width:0.968164"
         id="path873" /><path
         d="m 489.36982,530.83112 -8.99334,-3.26045 c 0,0 4.62336,-12.75394 5.29937,-14.61557 -2.02567,-0.73322 -31.30887,-11.35133 -31.30887,-11.35133 l 4.72547,-13.03475 c 0,0 29.28368,10.61575 31.30888,11.35086 0.67602,-1.86305 5.29796,-14.61699 5.29796,-14.61699 l 10.08064,3.6533 -15.32234,42.2692 z"
         style="fill:#000000;fill-opacity:1;fill-rule:nonzero;stroke:none;stroke-width:0.968164"
         id="path875" /><path
         d="m 507.51487,472.88507 c 0,0 -24.39179,-19.24271 -24.93308,-19.67054 -0.67034,-0.0502 -15.82958,-1.20028 -15.82958,-1.20028 l 1.04853,-13.8261 c 0,0 15.34645,1.16341 16.01679,1.21399 0.59848,-0.33848 29.30211,-16.59917 29.30211,-16.59917 l -1.22392,16.13164 -12.64382,6.31858 c -1.5865,0.80365 -3.37061,1.42813 -5.2398,1.96705 1.70185,0.80507 3.36493,1.70563 4.93442,2.79482 l 11.47663,8.33007 -1.20406,15.88582 z"
         style="fill:#000000;fill-opacity:1;fill-rule:nonzero;stroke:none;stroke-width:0.968164"
         id="path877" /><path
         d="m 460.94559,385.04272 -3.78899,-12.13229 c 0,0 13.50561,-4.21774 15.4079,-4.81197 -0.62401,-1.99779 -7.08868,-22.69604 -7.08868,-22.69604 l 9.83009,-3.06948 c 0,0 6.46467,20.69779 7.08821,22.69605 1.44327,-0.45147 5.10791,-1.59644 6.55119,-2.04648 -0.62402,-1.99778 -7.0868,-22.69604 -7.0868,-22.69604 l 10.23427,-3.1957 11.22088,35.93076 -42.02298,13.12408 z"
         style="fill:#000000;fill-opacity:1;fill-rule:nonzero;stroke:none;stroke-width:0.968164"
         id="path879" /><path
         d="m 438.95104,320.36727 v 0 c -5.94277,-0.72375 -11.29226,-4.01825 -15.90144,-9.79272 -2.17033,-2.71728 -3.78048,-5.59293 -4.78693,-8.54612 -1.00078,-2.93758 -1.54349,-6.10633 -1.61297,-9.41832 l -0.0133,-0.57106 9.85514,-7.86632 -0.50156,2.98154 c -0.99275,5.89219 0.1976,10.84882 3.63534,15.15308 2.49604,3.12667 5.29937,4.88005 8.33151,5.21096 3.03591,0.33092 6.16449,-0.76961 9.30014,-3.27227 2.92199,-2.33201 4.52787,-4.95853 4.9141,-8.03131 0.38197,-3.06191 -0.59328,-6.00611 -2.98391,-9.00231 -1.682,-2.10603 -3.82208,-3.8372 -6.3602,-5.14431 -2.52725,-1.29907 -5.16607,-1.994 -7.84365,-2.06349 l -3.16734,-0.0818 10.73208,-8.56644 0.55263,0.1371 c 6.0028,1.48581 11.15989,4.88714 15.32942,10.11039 4.86493,6.09594 7.17757,12.05996 6.87218,17.72949 -0.30823,5.7201 -3.2737,10.86252 -8.81418,15.28544 -5.68702,4.53968 -11.58772,6.47316 -17.53711,5.74847 z"
         style="fill:#000000;fill-opacity:1;fill-rule:nonzero;stroke:none;stroke-width:0.968164"
         id="path881" /><path
         d="m 409.62672,280.19513 c 0,-3.87879 -3.14512,-7.02249 -7.02346,-7.02249 -3.87879,0 -7.02391,3.1437 -7.02391,7.02249 0,3.87927 3.14512,7.02344 7.02391,7.02344 3.87834,0 7.02346,-3.14417 7.02346,-7.02344 z"
         style="fill:#000000;fill-opacity:1;fill-rule:nonzero;stroke:none;stroke-width:0.968164"
         id="path883" /><path
         d="m 284.34348,214.49526 c 0,-5.12871 -4.15867,-9.28784 -9.28786,-9.28784 -5.13061,0 -9.2888,4.15913 -9.2888,9.28784 0,5.13013 4.15819,9.28879 9.2888,9.28879 5.12919,0 9.28786,-4.15866 9.28786,-9.28879 z"
         style="fill:#000000;fill-opacity:1;fill-rule:nonzero;stroke:none;stroke-width:0.968164"
         id="path885" /><path
         d="m 457.42796,339.09848 c 0,-3.87879 -3.14324,-7.02296 -7.02251,-7.02296 -3.8788,0 -7.02298,3.14417 -7.02298,7.02296 0,3.8788 3.14418,7.02391 7.02298,7.02391 3.87927,0 7.02251,-3.14511 7.02251,-7.02391 z"
         style="fill:#000000;fill-opacity:1;fill-rule:nonzero;stroke:none;stroke-width:0.968164"
         id="path887" /></g><g
       id="g1489"><path
         d="m 275.62101,286.76899 c 0,0 -58.90251,28.54143 -89.26071,79.28914 -25.2777,42.25643 -26.2799,78.3862 -26.2799,111.0097 0,32.62302 0,60.71535 0,60.71535 0,0 28.99861,-2.71918 59.35634,4.53069 28.99388,6.92417 56.20507,26.25906 56.20507,26.25906 0,0 27.21262,-19.3278 56.20697,-26.25149 30.35773,-7.24987 59.35634,-4.53117 59.35634,-4.53117 0,0 0,-28.09232 0,-60.71534 0,-32.6235 -1.00173,-68.75327 -26.28038,-111.00971 -30.35725,-50.74724 -89.30373,-79.29623 -89.30373,-79.29623 z"
         style="fill:#ffffff;fill-opacity:1;fill-rule:nonzero;stroke:none;stroke-width:0.968164"
         id="path889" /><path
         d="m 387.7636,426.54703 c 0,0 4.07782,22.42848 4.07782,55.7313 0,33.30281 -0.6363,55.51194 -0.6363,55.51194 0,0 -25.87005,-3.17915 -49.65768,2.93805 -23.78763,6.11673 -65.90563,27.84461 -65.90563,27.84461 0,0 -38.76109,-23.76679 -59.83002,-28.52393 -21.0694,-4.75808 -55.73139,-2.26582 -55.73139,-2.26582 0,0 -2.03891,-50.06792 0,-72.49593 2.03844,-22.42894 2.03844,-36.70083 2.03844,-36.70083 z"
         style="fill:#cee5e3;fill-opacity:1;fill-rule:evenodd;stroke:none;stroke-width:0.968164"
         id="path891" /><path
         style="fill:#000000;fill-opacity:1;fill-rule:evenodd;stroke:none;stroke-width:0.968164"
         d="m 275.24991,574.12568 -2.36132,-1.67395 4.7e-4,4.7e-4 c -0.26567,-0.18863 -26.9091,-18.90848 -54.55711,-25.51071 -29.04021,-6.93551 -57.52542,-4.44703 -57.81049,-4.42103 l -4.45412,0.41506 c -0.19099,0.017 -0.37961,-0.0459 -0.52096,-0.17491 -0.14135,-0.12905 -0.22218,-0.31153 -0.22218,-0.50204 l -0.002,-65.19074 c 0,-28.86383 0,-68.39305 26.95544,-113.45232 30.74395,-51.393 88.81208,-79.93821 91.26842,-81.12856 l 1.77844,-0.86085 c 0.18673,-0.0907 0.4056,-0.0907 0.59233,-4.7e-4 l 1.7775,0.86085 c 2.45965,1.1913 60.57789,29.7573 91.31333,81.13659 26.95497,45.05881 26.95497,84.5885 26.95497,113.45186 v 65.19073 c 0,0.19098 -0.0808,0.37346 -0.22218,0.50204 -0.14136,0.12906 -0.33045,0.19194 -0.52049,0.17492 l -4.45744,-0.41506 c -0.28317,-0.026 -28.77027,-2.51401 -57.80907,4.42102 -27.66312,6.60648 -54.29143,25.31547 -54.55758,25.5041 l -2.35943,1.673 c -0.23589,0.16782 -0.55121,0.16782 -0.78663,0"
         id="path895" /><path
         style="fill:#f89111;fill-opacity:1;fill-rule:evenodd;stroke:none;stroke-width:0.968164"
         d="m 218.64763,545.61925 c 27.89997,6.66321 54.75945,25.53293 55.02749,25.72344 0,0 1.42152,1.00881 1.96848,1.39599 0.54553,-0.38718 1.96563,-1.39504 1.96563,-1.39504 0.26899,-0.19004 27.11334,-19.05079 55.02796,-25.71683 29.25342,-6.98656 57.96318,-4.47918 58.24966,-4.45317 0,0 2.6842,0.25008 3.71619,0.34604 0,-1.45744 0,-64.44475 0,-64.44475 0,-28.705 0,-68.0177 -26.76162,-112.75363 -30.5298,-51.03514 -88.29491,-79.42717 -90.73944,-80.61091 0,0 -1.0698,-0.51811 -1.48108,-0.71761 -0.41127,0.1995 -1.48108,0.71761 -1.48108,0.71761 -2.44263,1.18374 -60.1581,29.55497 -90.69547,80.60335 -26.76256,44.7364 -26.76256,84.04911 -26.76256,112.75409 0,0 9.6e-4,62.98684 9.6e-4,64.44429 1.03152,-0.0955 3.71335,-0.34557 3.71335,-0.34557 0.28742,-0.026 28.99624,-2.53386 58.25108,4.4527 z"
         id="path1106" /><path
         style="fill:#ffffff;fill-opacity:1;fill-rule:evenodd;stroke:none;stroke-width:0.968164"
         d="m 382.26897,422.92259 c -3.81356,-18.86688 -10.81621,-36.67862 -21.42584,-54.41472 -26.16503,-43.73752 -74.97035,-71.00539 -85.22212,-76.38938 -10.2442,5.38304 -59.0136,32.6443 -85.17815,76.38229 -10.60916,17.73562 -17.61181,35.54594 -21.42632,54.41046 1.67112,0 211.58131,0.0113 213.25243,0.0113 z"
         id="path1114" /><path
         style="fill:url(#linearGradient1122);fill-opacity:1;fill-rule:evenodd;stroke:none;stroke-width:0.968164"
         d="m 220.54199,537.6863 c 24.76809,5.9144 48.01823,20.44345 55.10124,25.13866 7.08349,-4.69378 30.3374,-19.21765 55.09982,-25.1311 23.68552,-5.65628 46.36884,-5.40053 55.70397,-4.96987 0,-1.38606 0,-55.64903 0,-55.64903 0,-16.48335 -0.44342,-30.41063 -2.52252,-44.61775 -1.19319,0 -215.36793,-0.0246 -216.56112,-0.0246 -2.08004,14.21091 -2.52536,28.14337 -2.52536,44.63523 0,0 0,54.26298 0,55.64857 9.33513,-0.4302 32.01798,-0.68736 55.70397,4.96987 z"
         id="path1110" /><g
         id="g1329"><g
           id="g1303"><path
             id="path907"
             style="fill:#000000;fill-opacity:1;fill-rule:evenodd;stroke:none;stroke-width:1.29089"
             d="M 351.52539 202.6543 C 345.48382 202.6543 342.32579 207.44358 342.19531 207.64844 C 342.05729 207.86212 342.04836 208.13354 342.17383 208.35352 C 342.29983 208.57413 342.54021 208.70602 342.79297 208.69531 C 342.8295 208.69467 346.42159 208.55454 350.98633 209.14453 C 352.97877 209.40232 354.55193 209.86435 356.07227 210.3125 L 360.21289 211.25977 C 362.47957 211.49825 364.64578 211.16147 365.93555 210.89648 L 365.77539 221.5625 C 355.68043 222.8052 351.53696 226.54002 351.36523 226.69922 C 351.27123 226.78749 351.20012 226.89996 351.16797 227.02539 C 351.13144 227.17036 350.24232 230.62301 349.79102 236.20508 L 349.34375 244.98047 C 348.46685 245.31729 347.79526 245.59768 347.77344 245.60742 C 347.6171 245.67742 347.49128 245.80405 347.42383 245.96289 C 347.35449 246.12677 345.71683 250.05885 344.50977 257.90625 C 343.18106 266.55038 343.58002 271.74216 343.59766 271.95898 C 343.61912 272.22498 343.79537 272.4522 344.04688 272.54297 C 344.23074 272.60903 344.43117 272.58983 344.59766 272.5 C 344.38296 273.32768 342.865 279.34202 341.1875 290.53125 L 338.76758 308.36328 C 332.84302 308.30757 327.42986 308.19806 322.4668 308.03516 L 322.05469 290.78516 C 329.56611 291.21696 334.75542 293.20556 334.81445 293.22852 C 335.01237 293.30612 335.23575 293.28671 335.41602 293.17578 C 335.59692 293.06365 335.71809 292.87586 335.73828 292.66406 C 335.74228 292.61753 336.18984 288.02277 336.04297 282.45898 C 335.89232 276.73825 335.44797 274.01844 335.42969 273.90625 C 335.34562 273.61601 333.77796 269.09848 321.52734 268.81055 L 321.47266 266.50195 C 327.03183 266.9244 333.16167 268.4675 333.23242 268.48438 C 333.41585 268.53157 333.61069 268.49795 333.76953 268.39648 C 333.929 268.29315 334.03817 268.12931 334.07031 267.94336 C 334.09365 267.80847 334.28362 266.44512 333.62305 260.5 C 332.87298 253.76509 331.98373 251.97514 331.88477 251.79297 C 331.66823 251.44449 329.79548 248.90421 321.04297 248.58789 L 320.48828 225.37109 C 320.48255 225.14463 320.35922 224.95548 320.18555 224.83594 L 320.18555 221.45898 C 320.18555 221.21252 320.05143 220.98501 319.83594 220.86523 C 319.62162 220.7443 319.3577 220.75099 319.14844 220.88086 C 319.11884 220.89859 316.15579 222.70279 313.72656 222.29688 L 311.50977 221.86133 C 308.85678 221.30538 305.55451 220.61484 303.35156 221.09766 C 298.25294 222.21268 296.03015 226.71136 295.9375 226.90234 C 295.83163 227.12169 295.84367 227.38165 295.98047 227.58398 C 296.11787 227.78442 296.34521 227.89711 296.58789 227.87695 L 304.18555 227.26758 C 305.58295 227.09298 307.41846 227.75608 309.19531 228.39648 L 312.25586 229.37109 C 314.90762 229.97325 317.74114 229.3317 319.02344 228.96484 L 318.74023 238.61719 C 317.26134 237.23421 314.93573 235.64704 311.60547 235.13477 C 305.49898 234.19497 288.34396 237.33246 274.29297 253.02539 C 266.5571 261.66511 262.63559 268.75915 262.64062 274.10547 C 262.64062 278.79919 279.53683 298.0639 284.52344 303.6582 C 274.62496 300.38255 254.35823 290.82695 246.10547 286.70117 L 243.28711 285.2793 C 236.84654 282.00923 233.61539 280.36536 231.95703 282.68555 C 231.8757 282.80141 231.83008 282.93888 231.83008 283.08008 C 231.83008 283.12488 231.83522 283.172 231.84375 283.2168 C 231.88028 283.40212 231.9955 283.56182 232.15625 283.66016 L 245.90625 292.04688 L 268.10938 305.41406 C 277.04347 310.70872 282.33589 318.01115 284.19531 320.9043 C 285.24165 322.5305 286.04168 324.2007 286.57617 325.86914 C 287.08296 327.44745 292.65572 327.9821 297.39062 328.15039 C 298.263 329.33664 301.94565 333.34534 311.67773 332.99805 C 314.04393 332.91231 318.15934 331.49953 322.92578 329.86133 C 328.72973 327.86765 335.30939 325.60559 339.11523 325.74805 C 342.86875 325.88922 345.00407 327.52635 347.26562 329.25781 C 350.0094 331.36117 352.84592 333.53627 358.53516 332.99609 C 362.48786 332.62105 366.65323 331.1801 370.67969 329.78711 C 375.46693 328.13127 379.98785 326.56801 384.13281 326.65625 C 388.19709 326.74065 390.74369 328.28482 393.20508 329.7793 C 395.58137 331.22083 398.03679 332.71051 401.66992 332.69727 C 408.51074 332.67327 412.43464 331.23896 416.22852 329.85352 C 420.58462 328.26198 424.69678 326.75871 433.01758 327.55859 C 436.2656 327.87123 437.5156 329.32286 438.72266 330.72656 C 440.27511 332.53116 441.74175 334.23866 446.61914 332.34961 C 448.22833 331.72686 448.46894 331.50032 448.77148 330.3418 L 448.8418 330.08008 L 451.40625 321.37109 C 454.59754 310.77804 456.66852 303.72624 456.4082 302.29102 C 455.76591 298.76127 451.35796 294.78516 449.39453 294.78516 C 446.8676 294.78516 443.46253 303.15878 441.9668 307.19531 C 439.9957 307.30147 430.67515 307.75634 413.11328 308.09961 L 412.53711 288.63281 C 414.88121 288.53139 419.89824 288.54682 427.6875 289.79297 C 438.8819 291.58433 448.01344 294.8624 448.10547 294.89453 C 448.35886 294.9872 448.64281 294.92072 448.82812 294.72656 C 449.01343 294.5318 449.06758 294.24507 448.96484 293.99609 C 448.90058 293.8404 442.49951 278.26916 442.06836 267.64648 C 441.62337 256.67586 443.99752 243.46112 444.02148 243.32812 C 444.06695 243.07853 443.96927 242.82304 443.76758 242.66797 C 443.56524 242.51354 443.29451 242.48592 443.06445 242.59375 C 442.95859 242.64295 432.51328 247.53843 425.9082 248.27148 C 420.29272 248.89542 413.42728 247.97383 411.32031 247.6582 L 411.0293 237.86328 C 411.0293 237.86328 411.03125 237.86328 411.03125 237.86328 C 411.78934 237.68509 413.43757 237.37271 414.64258 237.67383 L 416.82812 238.58008 C 418.50602 239.39697 420.59705 240.41211 423.56836 240.41211 C 429.56329 240.41211 431.58788 235.03531 431.60742 234.98047 C 431.69756 234.73087 431.63303 234.45282 431.44336 234.26562 C 431.25553 234.07968 430.97554 234.01999 430.72656 234.11328 C 430.6919 234.12661 427.16993 235.44034 423.68555 234.83398 C 421.86393 234.51757 420.35038 233.49747 418.88867 232.50977 C 417.71693 231.71873 416.50474 230.89887 415.16406 230.47656 C 411.84105 229.42708 410.21951 230.44472 410.04492 230.56445 C 409.85896 230.69045 409.74805 230.90187 409.74805 231.125 L 409.74805 232.36328 C 409.61508 232.48421 409.52612 232.65251 409.52148 232.8457 L 407.72656 308.1875 C 398.10212 308.34737 386.30921 308.45886 372.23828 308.48047 L 372.23242 308.35742 C 373.50955 308.04468 374.69929 307.54258 375.92969 307.02148 C 378.70497 305.8472 381.85258 304.51778 387.30859 304.60352 C 396.68706 304.75037 402.96166 307.82201 403.02344 307.85352 C 403.25034 307.96632 403.52171 307.94239 403.72656 307.79492 C 403.93204 307.64618 404.03851 307.39672 404.00195 307.14648 C 403.98755 307.04435 402.48236 296.82455 399.60938 285.33203 C 396.90974 274.53538 395.41326 270.75007 395.34961 270.59375 C 395.31207 270.49917 395.24979 270.42272 395.17773 270.35547 C 395.37188 270.4696 395.70155 270.65733 395.70898 270.66211 C 395.91509 270.79518 396.17706 270.80753 396.39453 270.69336 C 396.61197 270.57923 396.75221 270.35715 396.75977 270.11133 C 396.7651 269.90333 396.87733 264.90288 393.85742 255.23828 C 391.10862 246.44224 389.50369 243.18957 389.4375 243.05469 C 389.3511 242.88449 389.19968 242.75671 389.01562 242.70312 C 388.99989 242.69868 388.42575 242.5552 387.8457 242.41602 C 387.84559 242.4139 387.84779 242.41227 387.84766 242.41016 C 387.83566 242.20342 387.52088 237.28576 385.85938 231.24609 C 384.2048 225.22973 383.3008 223.09153 383.26172 223.00391 C 383.18732 222.82743 383.04159 222.69131 382.86133 222.62891 C 382.61053 222.54131 377.02989 220.64881 368.15039 221.32617 L 367.61328 209.86719 L 367.76172 204.25781 C 367.76705 204.05423 367.6785 203.85956 367.52539 203.72656 C 367.37095 203.59292 367.16591 203.53563 366.96484 203.57031 C 366.93138 203.57698 363.53535 204.15865 360.92773 204.01367 L 357.87695 203.49414 C 356.08243 203.10021 354.04854 202.6543 351.52539 202.6543 z M 378.71094 240.41211 C 380.27961 240.41211 382.14981 240.99342 383.70703 241.60742 C 381.57366 241.2603 378.89063 240.94435 375.86523 240.78516 C 376.76778 240.57941 377.66255 240.41211 378.71094 240.41211 z M 359.64844 241.67188 C 360.06507 241.67828 360.49322 241.70329 360.93945 241.73828 C 358.11282 242.27066 355.63927 242.92771 353.57422 243.55469 C 354.7432 242.85892 356.06815 242.19017 357.26953 241.9043 C 358.05963 241.71647 358.83376 241.65934 359.64844 241.67188 z M 318.63672 242.15234 L 318.44922 248.5625 C 318.18801 248.56589 317.94703 248.56134 317.67578 248.56836 C 305.91725 248.87407 301.39814 253.11074 301.21094 253.29102 C 301.11014 253.38875 301.0434 253.5143 301.01758 253.65234 C 300.99171 253.78408 300.39844 256.93252 300.39844 260.87891 C 300.39844 264.79316 300.85231 269.50545 300.85547 269.55273 C 300.87694 269.76829 300.99833 269.96197 301.18555 270.07227 C 301.37401 270.1832 301.60223 270.19773 301.80078 270.11133 C 301.88447 270.07621 309.88044 266.6801 317.92773 266.41602 L 317.85547 268.86328 C 304.43242 269.46943 299.6924 275.15707 299.49219 275.40625 C 299.41659 275.50078 299.36726 275.61462 299.34961 275.73438 C 299.33188 275.86611 298.88867 279.02348 298.88867 285.04297 L 299.04102 294.73242 C 299.04502 294.96564 299.16745 295.17524 299.36719 295.29688 C 299.567 295.41847 299.8148 295.42236 300.02344 295.31836 C 300.10957 295.27618 308.29193 291.24791 317.21484 290.76172 L 316.7168 307.80273 C 303.2651 307.19456 293.65346 306.11969 287.41211 304.50781 C 287.39558 302.5537 287.25223 279.04692 289.34766 271.79102 C 291.14078 265.58668 298.47247 245.51106 318.63672 242.15234 z M 383.99609 267.14648 C 389.02662 267.14648 393.3971 269.34863 394.96484 270.23438 C 394.92554 270.21853 394.89399 270.18808 394.85156 270.17969 C 394.75779 270.1618 387.08856 268.71611 376.09375 268.38477 C 376.37399 268.31355 376.66085 268.24385 376.93555 268.17188 C 378.95192 267.64494 380.85585 267.14648 383.99609 267.14648 z M 357.83789 267.97852 C 360.15505 267.98525 361.66126 268.27093 363.18945 268.57227 C 352.98928 269.22299 347.58042 270.83075 345.79297 271.46289 C 347.10825 270.38201 349.55426 268.6845 352.35938 268.34961 C 354.63347 268.07802 356.39296 267.97432 357.83789 267.97852 z M 354.24414 303.99805 C 359.09892 303.99805 362.0924 305.47193 364.49805 306.76367 L 364.47266 308.49414 C 357.1077 308.48574 349.2028 308.44966 340.6875 308.38086 C 342.40742 307.1429 347.40648 303.99805 354.24414 303.99805 z "
             transform="matrix(0.75000002,0,0,-0.75000002,13.11084,695.04346)" /><g
             id="g1285"><path
               style="fill:#f89111;fill-opacity:1;fill-rule:evenodd;stroke:none;stroke-width:0.968164"
               d="m 320.81794,501.32816 c 0.49636,-16.71925 1.09532,-36.92918 1.11754,-37.65199 -0.59707,0.0331 -1.46784,0.0818 -2.01102,0.11204 0.0142,0.64339 0.49543,20.84387 0.89348,37.53995 z"
               id="path1134" /><path
               style="fill:#f89111;fill-opacity:1;fill-rule:evenodd;stroke:none;stroke-width:0.968164"
               d="m 288.40144,524.81603 c 0.96297,-20.53564 2.89741,-61.76765 2.93949,-62.66065 -0.79373,0.0548 -3.19145,0.21982 -3.87503,0.26757 0.0118,0.75402 0.62779,41.86501 0.93554,62.39308 z"
               id="path1138" /><path
               style="fill:#f89111;fill-opacity:1;fill-rule:evenodd;stroke:none;stroke-width:0.968164"
               d="m 252.91547,506.83128 c 0.44438,-18.56292 1.04144,-43.48839 1.05893,-44.20458 -0.61171,0 -1.7373,0 -2.35234,0 0.0213,0.72045 0.74977,25.64355 1.29341,44.20458 z"
               id="path1142" /><path
               style="fill:#f89111;fill-opacity:1;fill-rule:evenodd;stroke:none;stroke-width:0.968164"
               d="m 289.00273,492.7579 c 10.33213,0.29545 18.33745,-1.04145 19.77126,-1.29908 0.30114,-0.82398 1.36479,-3.90432 3.05435,-10.66114 1.72833,-6.91471 2.77969,-13.13638 3.13188,-15.34973 -1.69286,0.68924 -5.76407,2.0753 -11.35135,2.16277 -4.30758,0.0671 -6.88021,-1.02111 -8.94795,-1.8952 -1.47494,-0.62401 -2.74945,-1.1634 -4.31325,-1.1634 -0.93555,0 -1.85834,0.49968 -3.02788,1.13172 -1.85644,1.00457 -4.39882,2.38071 -8.52628,2.38071 -4.95428,0 -8.7305,-2.09092 -10.43472,-3.24108 0.26568,1.95807 1.64985,12.1701 1.64985,12.1701 1.16671,7.78171 2.26063,12.33321 2.53009,13.40159 1.04569,0.38717 6.13517,2.06822 16.464,2.36274 z"
               id="path1146" /><path
               style="fill:#f89111;fill-opacity:1;fill-rule:evenodd;stroke:none;stroke-width:0.968164"
               d="m 290.47953,513.4884 c 7.0797,0.26899 12.78279,-1.1062 13.89278,-1.39504 0.30917,-0.67649 1.43476,-3.26471 3.1593,-8.78201 1.61392,-5.16606 1.99779,-8.47238 2.09186,-9.92887 -1.48108,0.80175 -4.77937,2.32113 -8.5154,2.32113 -2.4866,0 -4.04569,-0.40845 -5.55324,-0.8027 -1.53923,-0.40278 -2.99289,-0.78333 -5.43411,-0.78333 -1.89568,0 -3.05435,0.23022 -4.28252,0.4732 -1.90182,0.37584 -3.86935,0.76489 -8.57781,0.20328 -2.38543,-0.28458 -4.39409,-1.67915 -5.46955,-2.57026 -0.004,0.19903 -0.0118,0.33281 -0.0118,0.58951 0,1.72359 0.11724,4.71789 0.7214,8.64633 0.81074,5.27101 1.86353,8.06251 2.04789,8.52862 0.95682,0.40561 7.78361,3.1905 15.93123,3.50014 z"
               id="path1150" /><path
               style="fill:#f89111;fill-opacity:1;fill-rule:evenodd;stroke:none;stroke-width:0.968164"
               d="m 287.68856,527.87643 c 6.81402,0.81358 11.32109,-0.48361 12.01602,-0.70391 0.18862,-0.48077 0.80223,-2.13865 1.81862,-5.83403 0.86463,-3.14605 1.23005,-5.90352 1.37235,-7.26075 -1.26882,0.61456 -3.74123,1.67538 -5.75131,1.67538 -1.24519,0 -2.17459,-0.23589 -3.25101,-0.51008 -1.14544,-0.29026 -2.44358,-0.62023 -4.48107,-0.73653 -1.81106,-0.10352 -3.23778,0.0331 -4.4962,0.15601 -1.46926,0.14277 -2.73714,0.2652 -4.0887,-0.0563 -1.7009,-0.40513 -3.57058,-1.62574 -4.64227,-2.39299 0.0761,1.48629 0.28458,5.59388 0.28458,5.59388 0.30539,3.76393 0.87174,6.16071 0.96911,6.55496 0.53089,0.43256 3.61219,2.72202 10.24988,3.51432 z"
               id="path1154" /><path
               style="fill:#f89111;fill-opacity:1;fill-rule:evenodd;stroke:none;stroke-width:0.968164"
               d="m 276.75513,542.03307 c 1.78174,0 3.24959,-0.32146 4.54441,-0.60652 l 2.44925,-0.41222 c 1.51229,-0.0846 3.25101,0.12574 4.14732,0.25386 -0.0218,-0.80177 -0.0733,-2.76551 -0.0866,-3.30868 -0.75544,-0.17586 -2.60999,-0.53845 -4.43239,-0.34651 l -2.92435,0.67458 c -1.12416,0.33092 -2.39724,0.7058 -3.97287,0.90955 -2.2195,0.28601 -4.08067,0.34698 -5.20058,0.35408 0.91286,0.97005 2.75795,2.48186 5.47571,2.48186 z"
               id="path1158" /><path
               style="fill:#f89111;fill-opacity:1;fill-rule:evenodd;stroke:none;stroke-width:0.968164"
               d="m 332.65479,507.82684 c 4.21729,0.46801 10.14163,2.98202 12.31101,3.95159 -0.38292,-2.35044 -1.36527,-8.99143 -1.36527,-15.33459 0,-0.73322 0.0133,-1.46123 0.0426,-2.17743 0.28034,-6.88965 3.67033,-16.08577 4.84083,-19.07914 -2.22423,0.73368 -7.83892,2.46153 -14.44542,3.5181 -6.75115,1.08067 -10.73017,0.9606 -12.17722,0.85518 0.16073,1.3317 0.48598,4.85831 0.48598,11.55555 0,7.36144 -0.72802,14.99612 -0.95304,17.1778 1.79592,-0.26615 7.00595,-0.93932 11.26058,-0.46706 z"
               id="path1162" /><path
               style="fill:#f89111;fill-opacity:1;fill-rule:evenodd;stroke:none;stroke-width:0.968164"
               d="m 324.17627,521.21432 c 0.86558,-0.27325 1.67395,-0.81973 2.53055,-1.39789 1.1861,-0.80034 2.41285,-1.62905 3.99274,-1.90323 1.77607,-0.30822 3.49872,-0.035 4.60729,0.23448 -0.67838,-1.00552 -2.05357,-2.39441 -4.51984,-2.39441 -1.994,0 -3.38338,0.67648 -4.60965,1.27213 l -1.83706,0.75165 c -0.98423,0.2463 -2.17506,0.0743 -2.89882,-0.0761 0,0.87503 0,3.17726 0,3.66559 0.35739,0.13284 1.2121,0.32808 2.73479,-0.15221 z"
               id="path1166" /><path
               style="fill:#f89111;fill-opacity:1;fill-rule:evenodd;stroke:none;stroke-width:0.968164"
               d="m 240.84176,528.22498 c 1.43948,0.31484 3.80033,-0.1768 5.69222,-0.57484 l 1.70468,-0.33659 c 1.50662,-0.25055 3.07942,0.36117 3.99179,0.80176 0,-1.05279 0,-3.25148 0,-3.77575 -0.78994,-0.23399 -2.86336,-0.74786 -4.70136,-0.32949 l -2.17648,0.69445 c -1.44421,0.5219 -2.93853,1.06082 -4.2291,0.89962 0,0 -3.22832,-0.25859 -4.60256,-0.3678 0.68405,0.96013 2.0512,2.49227 4.32081,2.98864 z"
               id="path1170" /><path
               style="fill:#f89111;fill-opacity:1;fill-rule:evenodd;stroke:none;stroke-width:0.968164"
               d="m 252.41109,492.41803 c 9.98182,0.21226 11.27239,-3.0118 11.28658,-3.05009 l -4.8e-4,-4.7e-4 c 0,-0.0407 0.3191,-2.08807 0.42784,-6.19472 0.0146,-0.57769 0.0213,-1.14166 0.0213,-1.68342 0,-2.35564 -0.1215,-4.25699 -0.19336,-5.19442 -1.57326,0.52757 -6.06757,1.83043 -12.01365,1.73731 -6.04867,-0.0946 -11.63877,-2.37267 -13.54107,-3.23021 -0.0184,1.23431 -0.10116,6.45899 -0.10116,6.45899 0,4.06222 0.26851,6.30535 0.31768,6.6859 0.4472,0.49353 4.17474,4.26692 13.79635,4.47113 z"
               id="path1174" /><path
               style="fill:#f89111;fill-opacity:1;fill-rule:evenodd;stroke:none;stroke-width:0.968164"
               d="m 251.39413,507.59718 c 8.15944,0.21179 9.73885,-1.89851 9.7554,-1.92261 0,-0.008 0.63394,-1.34021 1.16482,-6.11958 0.30019,-2.696 0.36023,-4.07214 0.36164,-4.73916 -1.65032,0.39 -6.49634,1.45413 -10.38885,1.45413 -5.4308,0 -10.79872,-1.91553 -12.57905,-2.61376 -0.0969,1.15442 -0.27892,3.59658 -0.27892,5.72814 0,2.56743 0.34038,4.62714 0.41601,5.05591 0.56634,0.46943 3.91993,2.9598 11.54895,3.15693 z"
               id="path1178" /><path
               style="fill:#f89111;fill-opacity:1;fill-rule:evenodd;stroke:none;stroke-width:0.968164"
               d="m 211.11096,489.41664 c 0,0.003 0,0.005 0,0.008 0,3.79889 2.85297,8.88648 8.47947,15.17103 10.25933,11.45722 22.66631,13.76607 27.06843,13.08911 3.01276,-0.46375 4.86116,-2.28048 5.64826,-3.2373 -10.83087,-1.66592 -19.46398,-10.15295 -23.1641,-22.96361 -1.36431,-4.72074 -1.50188,-18.03582 -1.50188,-23.21889 0,-0.29688 4.7e-4,-0.4803 0.002,-0.72045 -6.9653,7.80298 -16.53255,19.37838 -16.53255,21.87207 z"
               id="path1182" /><path
               style="fill:#f89111;fill-opacity:1;fill-rule:evenodd;stroke:none;stroke-width:0.968164"
               d="m 195.11536,480.17559 2.1188,-1.0698 c 6.57766,-3.28787 23.31774,-11.17074 30.21685,-13.1742 6.90527,-2.00439 19.76276,-3.01888 40.46437,-3.19144 53.76669,-0.44815 76.83482,0.89395 77.06079,0.90719 0.2028,0.0123 0.37867,0.14324 0.44863,0.33327 1.74535,4.77086 3.9568,8.95457 4.7321,8.95457 0.84667,0 3.83767,-2.49132 4.25557,-4.79213 0.16214,-0.92845 -2.17506,-8.69503 -3.72327,-13.83366 l -1.93161,-6.55732 -0.0544,-0.20847 c -0.12291,-0.47275 -0.12291,-0.47275 -0.99653,-0.81123 -2.98675,-1.15678 -3.69963,-0.32713 -4.78173,0.93035 -0.93933,1.09297 -2.10935,2.4535 -4.95286,2.72674 -6.4713,0.62213 -9.66226,-0.54365 -13.03949,-1.77749 -2.76363,-1.00976 -5.62179,-2.05403 -10.57275,-2.07152 -2.43696,-0.009 -4.07831,0.9866 -5.81609,2.0408 -1.96138,1.18988 -3.98989,2.4204 -7.31087,2.49037 -3.29071,0.069 -6.92795,-1.18893 -10.44606,-2.40576 -2.96312,-1.02441 -6.0274,-2.08429 -8.86996,-2.35375 -3.86793,-0.36778 -5.748,1.0717 -7.73633,2.59627 -1.74818,1.33926 -3.5564,2.7239 -6.69584,2.84209 -3.04348,0.11487 -8.07293,-1.61345 -12.51004,-3.1385 -3.35264,-1.15158 -6.5195,-2.24029 -8.14336,-2.29796 -7.7056,-0.27655 -9.94117,3.3361 -9.96386,3.37249 -0.0884,0.14939 -0.2496,0.2463 -0.4231,0.25197 -3.2581,0.10589 -7.03054,0.55736 -7.45364,1.06035 -0.40513,1.29009 -1.0438,2.62415 -1.87582,3.91756 -1.43333,2.23132 -5.51305,7.8616 -12.40272,11.94367 l -16.63938,10.01727 c 0,0 -8.24169,5.0266 -9.55117,5.82552 1.09817,0.21935 3.27417,-0.84288 6.59373,-2.52725 z"
               id="path1186" /></g></g><g
           id="g1307"><path
             d="m 185.45454,438.88071 c 0,0.052 3.60934,3.05955 12.23111,3.05955 h 0.0487 c 8.62129,0 9.56866,-4.67489 17.24259,-4.67489 h 0.0241 c 7.67441,0 8.62129,4.67489 17.24307,4.67489 l 0.0425,-0.007 c 8.62178,0 9.56961,-4.67488 17.24355,-4.67488 h 0.0241 c 7.67441,0 8.62131,4.67488 17.24307,4.67488 h 0.0487 c 8.62131,0 9.56866,-4.67488 17.24307,-4.67488 h 0.0241 c 7.67347,0 8.6213,4.67488 17.24307,4.67488 l 0.0293,-0.008 c 8.62177,0 9.56867,-4.67395 17.24354,-4.67395 h 0.0236 c 7.67394,0 8.62177,4.67395 17.24307,4.67395 h 0.0482 c 8.62176,0 9.56913,-4.67395 17.24354,-4.67395 h 0.0236 c 7.67441,0 12.12475,5.82979 15.06943,5.40999 0,0 -1.47211,1.10337 -4.5307,0 -2.24645,-0.81026 -4.73351,-2.04883 -8.18734,-2.04883 h -0.0251 c -7.63658,0 -8.57875,5.30173 -17.15703,5.30173 h -0.0501 c -8.57828,0 -9.52139,-5.30173 -17.15703,-5.30173 h -0.0246 c -7.63611,0 -8.57828,5.30173 -17.1575,5.30173 l -0.0298,0.008 c -8.57923,0 -9.52281,-5.30174 -17.15751,-5.30174 h -0.026 c -7.6347,0 -8.57923,5.30174 -17.15704,5.30174 h -0.0487 c -8.57875,0 -9.52091,-5.30174 -17.15798,-5.30174 h -0.0241 c -7.63612,0 -8.57828,5.30174 -17.15798,5.30174 l -0.0425,0.007 c -8.57923,0 -9.5214,-5.30079 -17.15751,-5.30079 h -0.0251 c -7.63612,0 -8.57923,5.30079 -17.15845,5.30079 h -0.0482 c -5.62793,0 -8.05732,-1.33123 -10.98545,-3.16355 -3.93601,-2.46343 -4.36053,-3.88589 -4.36053,-3.88589 z"
             style="fill:#014da3;fill-opacity:1;fill-rule:evenodd;stroke:none;stroke-width:0.968164"
             id="path957" /><path
             d="m 182.05604,445.67723 c 0,0.052 3.61028,3.05955 12.23158,3.05955 h 0.0482 c 8.62178,0 9.56866,-4.67489 17.24307,-4.67489 h 0.0251 c 7.67346,0 8.62083,4.67489 17.24165,4.67489 l 0.0435,-0.007 c 8.62177,0 9.56913,-4.67488 17.2426,-4.67488 h 0.0256 c 7.67393,0 8.62035,4.67488 17.24212,4.67488 h 0.0492 c 8.62034,0 9.56866,-4.67488 17.24212,-4.67488 h 0.0251 c 7.67251,0 8.62081,4.67488 17.24212,4.67488 l 0.0302,-0.008 c 8.62083,0 9.56866,-4.67394 17.2426,-4.67394 h 0.0241 c 7.67346,0 8.62176,4.67394 17.24354,4.67394 h 0.0477 c 8.6213,0 9.56961,-4.67394 17.24307,-4.67394 h 0.0236 c 7.67441,0 12.12522,5.82978 15.06943,5.40998 0,0 -1.47163,1.10337 -4.53024,0 -2.24644,-0.81026 -4.73304,-2.04883 -8.1878,-2.04883 h -0.0236 c -7.63753,0 -8.57969,5.30174 -17.1575,5.30174 h -0.0497 c -8.57875,0 -9.52281,-5.30174 -17.15845,-5.30174 h -0.0236 c -7.63659,0 -8.57922,5.30174 -17.15845,5.30174 l -0.0293,0.008 c -8.57923,0 -9.52329,-5.30174 -17.15704,-5.30174 h -0.0259 c -7.63469,0 -8.5797,5.30174 -17.15797,5.30174 h -0.0472 c -8.57969,0 -9.52234,-5.30174 -17.15892,-5.30174 h -0.0236 c -7.63611,0 -8.57828,5.30174 -17.15844,5.30174 l -0.0425,0.007 c -8.57922,0 -9.52186,-5.30079 -17.1575,-5.30079 h -0.0256 c -7.63518,0 -8.57875,5.30079 -17.15798,5.30079 h -0.0482 c -5.62746,0 -8.05638,-1.33123 -10.98498,-3.16355 -3.93648,-2.46342 -4.36147,-3.88589 -4.36147,-3.88589 z"
             style="fill:#014da3;fill-opacity:1;fill-rule:evenodd;stroke:none;stroke-width:0.968164"
             id="path961" /></g></g><g
         id="g1424"><g
           id="g1356"
           style="fill:#000000"><path
             style="fill:#000000;fill-opacity:1;fill-rule:nonzero;stroke:none;stroke-width:0.968164"
             d="m 226.64218,381.44615 c -2.95365,-0.2912 -5.15424,-0.80838 -5.24737,-0.82965 -0.17255,-0.0416 -0.32524,-0.20942 -0.37913,-0.37866 -0.0563,-0.16924 -0.0322,-0.39473 0.0846,-0.52946 0.061,-0.0728 1.53877,-1.78505 3.75638,-3.75637 2.22233,-1.97508 5.54378,-4.10665 5.68418,-4.19647 0.0477,-0.0312 0.10258,-0.0534 0.15836,-0.0666 2.17791,-0.51055 9.35971,-2.01575 10.33119,0.0582 l 1.15253,3.5337 c 0.44815,2.30979 -6.24674,5.31355 -8.30882,6.18149 -0.0534,0.0218 -0.11014,0.0345 -0.16734,0.0387 -0.16594,0.009 -4.10525,0.23684 -7.06459,-0.0548"
             id="path967" /><path
             style="fill:#000000;fill-opacity:1;fill-rule:nonzero;stroke:none;stroke-width:0.968164"
             d="m 297.868,335.48678 -3.00944,-2.18215 c -1.72077,-1.60494 1.92971,-7.97032 3.08886,-9.88395 0.0288,-0.0492 0.0676,-0.0927 0.11204,-0.13001 0.12858,-0.10542 3.18246,-2.60477 5.74705,-4.10854 2.56082,-1.5 4.64512,-2.37598 4.73257,-2.41237 0.16451,-0.0686 0.38622,-0.0223 0.53041,0.0827 0.14372,0.10494 0.25623,0.3016 0.24204,0.47841 -0.007,0.0955 -0.19524,2.3476 -0.83059,5.24641 -0.63725,2.90449 -2.07106,6.58143 -2.13252,6.73696 -0.0208,0.0534 -0.0505,0.10305 -0.0889,0.14702 -1.46123,1.69287 -6.38715,7.13169 -8.39155,6.0255"
             id="path971" /><path
             style="fill:#000000;fill-opacity:1;fill-rule:nonzero;stroke:none;stroke-width:0.968164"
             d="m 317.14242,382.07252 c -0.0582,-0.003 -0.11441,-0.0165 -0.16783,-0.0392 -2.06254,-0.86794 -8.75555,-3.8717 -8.32395,-6.12003 l 1.1445,-3.53512 c 0.99653,-2.13251 8.17787,-0.62874 10.35482,-0.11818 0.0572,0.0133 0.11015,0.0359 0.15931,0.0671 0.13947,0.0894 3.46091,2.2214 5.68277,4.19695 2.21856,1.97132 3.69586,3.68262 3.75684,3.75447 0.11724,0.1352 0.14088,0.36117 0.0851,0.53042 -0.0544,0.16923 -0.20706,0.338 -0.37961,0.37866 -0.0926,0.0223 -2.29325,0.53891 -5.24596,0.83012 -2.96028,0.29168 -6.90006,0.0638 -7.06599,0.0548"
             id="path975" /><path
             style="fill:#000000;fill-opacity:1;fill-rule:nonzero;stroke:none;stroke-width:0.968164"
             d="m 274.59234,419.84601 c -0.0497,-0.0808 -1.22156,-2.01433 -2.41049,-4.73257 -1.19271,-2.72437 -2.19302,-6.54123 -2.23557,-6.70244 -0.0146,-0.0562 -0.0199,-0.11393 -0.0146,-0.17114 0.18721,-2.22941 0.97574,-9.5242 3.24818,-9.80878 l 3.71665,-0.004 c 2.33532,0.28836 3.12385,7.58315 3.31105,9.81257 0.005,0.0572 -9.7e-4,0.11393 -0.0146,0.17113 -0.0421,0.16121 -1.04381,3.97807 -2.23557,6.70245 -1.18894,2.71823 -2.3599,4.65172 -2.40908,4.73256 -0.0931,0.15221 -0.30018,0.24534 -0.47793,0.24534 -0.17822,0 -0.38622,-0.0931 -0.47793,-0.24534"
             id="path979" /><path
             style="fill:#000000;fill-opacity:1;fill-rule:nonzero;stroke:none;stroke-width:0.968164"
             d="m 244.92055,329.2514 c -0.0378,-0.0435 -0.0685,-0.0931 -0.0889,-0.14703 -0.0605,-0.15552 -1.49432,-3.83199 -2.13109,-6.73553 -0.63631,-2.89929 -0.82445,-5.15188 -0.83249,-5.24643 -0.0137,-0.17727 0.0993,-0.3744 0.24252,-0.47887 0.14513,-0.10448 0.36684,-0.15128 0.53135,-0.0827 0.087,0.0364 2.17175,0.9119 4.7321,2.41189 2.56459,1.50377 5.61942,4.00312 5.748,4.10902 0.0439,0.0369 0.0823,0.0808 0.11251,0.13001 1.15773,1.91363 4.8082,8.27854 3.13755,9.84424 l -3.00471,2.18687 c -2.05877,1.14025 -6.98469,-4.29811 -8.44686,-5.99144"
             id="path983" /></g><g
           id="g1363"><path
             style="fill:#52bf38;fill-opacity:1;fill-rule:nonzero;stroke:none;stroke-width:0.968164"
             d="m 226.74197,380.43174 c 2.73715,0.26946 6.41977,0.0785 6.81497,0.0558 3.7663,-1.59359 7.64747,-3.89062 7.64747,-4.88715 0,-0.0231 -0.003,-0.0449 -0.007,-0.0662 l -1.11329,-3.41362 c -0.39048,-0.8235 -4.99588,-0.40182 -9.07087,0.54412 -0.39284,0.25292 -3.4472,2.24408 -5.47997,4.04945 -1.43616,1.27686 -2.52157,2.41332 -3.12715,3.07231 0.8774,0.17586 2.42372,0.45666 4.33547,0.64529 z"
             id="path1345" /><path
             style="fill:#52bf38;fill-opacity:1;fill-rule:nonzero;stroke:none;stroke-width:0.968164"
             d="m 295.3497,331.99276 c 0,0.24677 0.0502,0.42782 0.15647,0.52757 l 2.90686,2.10794 c 0.80034,0.4368 4.27827,-2.60951 7.01873,-5.77069 0.16592,-0.42972 1.46926,-3.84098 2.05356,-6.4987 0.41128,-1.87629 0.62118,-3.43395 0.72424,-4.32222 -0.81359,0.37298 -2.22991,1.05372 -3.88684,2.02567 -2.34242,1.37188 -5.17553,3.65803 -5.54426,3.95775 -1.83469,3.04535 -3.42876,6.57196 -3.42876,7.97268 z"
             id="path1337" /><path
             style="fill:#52bf38;fill-opacity:1;fill-rule:nonzero;stroke:none;stroke-width:0.968164"
             d="m 324.10819,381.00413 c 1.91222,-0.1891 3.45854,-0.47085 4.33499,-0.64718 -0.60604,-0.65805 -1.69192,-1.79497 -3.1281,-3.07136 -2.03229,-1.80586 -5.08616,-3.79655 -5.47901,-4.04993 -4.07594,-0.94547 -8.6804,-1.36668 -9.09451,-0.48408 l -1.10573,3.41504 c -0.003,0.0189 -0.006,0.0378 -0.006,0.0572 0,0.93601 3.88826,3.23871 7.66211,4.83514 0.39569,0.0218 4.07784,0.21463 6.81592,-0.0548 z"
             id="path1333" /><path
             style="fill:#52bf38;fill-opacity:1;fill-rule:nonzero;stroke:none;stroke-width:0.968164"
             d="m 273.11514,414.70431 c 0.77104,1.76 1.51607,3.1437 1.95524,3.92371 0.43776,-0.78001 1.18421,-2.16371 1.95382,-3.92371 1.08966,-2.49179 2.04033,-6.01604 2.15899,-6.46371 -0.35927,-4.16812 -1.38229,-8.67754 -2.35045,-8.79809 l -3.58902,0.004 c -0.90529,0.11677 -1.92734,4.62619 -2.28757,8.7943 0.11866,0.44768 1.06886,3.97193 2.15899,6.46372 z"
             id="path1349" /><path
             style="fill:#52bf38;fill-opacity:1;fill-rule:nonzero;stroke:none;stroke-width:0.968164"
             d="m 252.82137,334.38438 2.90214,-2.11312 c 0.0951,-0.0889 0.13851,-0.2515 0.13851,-0.47416 0,-1.34682 -1.60683,-4.91172 -3.45902,-7.98592 -0.36967,-0.29971 -3.20184,-2.58634 -5.54473,-3.95869 -1.65693,-0.97147 -3.07325,-1.65221 -3.88683,-2.02568 0.10353,0.88875 0.31295,2.44689 0.7247,4.32271 0.581,2.6511 1.87913,6.05007 2.05073,6.49538 2.74093,3.16166 6.22027,6.21081 7.0745,5.73948 z"
             id="path1341" /></g><g
           id="g1387"><path
             d="m 275.1686,372.74167 c 0.11298,5.7773 -0.0558,16.00305 -0.14087,26.22313 -0.0544,6.52469 -1.41207,7.55998 -4.84272,9.82061 -2.88795,1.9037 -8.33056,1.75858 -11.55415,-0.39048 -2.54852,-1.69949 -4.84886,-5.93851 -9.51524,-9.34552 -5.35233,-3.90763 -11.46906,-6.37153 -13.84788,-9.00467 -3.22548,-3.57057 -3.22784,-8.15611 -1.40922,-11.16082 1.61392,-2.66623 3.36493,-3.02125 8.97064,-4.89659 8.86476,-2.96547 18.55114,-6.24295 23.50352,-7.81575 9.62965,-3.05812 7.50564,-0.93412 7.50564,-0.93412 0,0 1.13551,-2.45917 1.33028,7.50421 z"
             style="fill:#ef2d2d;fill-opacity:1;fill-rule:nonzero;stroke:none;stroke-width:0.968164"
             id="path985" /><path
             d="m 265.92661,365.64732 c -5.4587,1.89189 -15.23631,4.8914 -24.98224,7.96844 -6.22169,1.96469 -7.6262,0.99369 -10.83702,-1.57091 -2.70311,-2.15898 -4.24659,-7.37845 -3.19948,-11.10834 0.82823,-2.94987 4.14968,-6.44717 5.94844,-11.938 2.06255,-6.29778 2.51544,-12.87684 4.28488,-15.95294 2.39867,-4.16953 6.75967,-5.59057 10.1785,-4.78929 3.03449,0.71195 3.91331,2.26677 7.42858,7.01872 5.5608,7.51413 11.67093,15.71373 14.69738,19.93857 5.88321,8.21237 3.20752,6.84899 3.20752,6.84899 0,0 2.68987,0.321 -6.72656,3.58476 z"
             style="fill:#ef2d2d;fill-opacity:1;fill-rule:nonzero;stroke:none;stroke-width:0.968164"
             id="path995" /><path
             d="m 269.83046,354.63778 c -3.48738,-4.60776 -9.36113,-12.98086 -15.29871,-21.29817 -3.79086,-5.31024 -3.30158,-6.9459 -1.85453,-10.79161 1.21729,-3.23777 5.70451,-6.31906 9.57622,-6.47506 3.06097,-0.12481 7.41393,1.95382 13.19124,1.96706 6.62776,0.0151 13.02484,-1.58604 16.49615,-0.85424 4.70703,0.99274 7.40589,4.70088 7.7004,8.20055 0.26143,3.10587 -0.94642,4.42197 -4.37943,9.23395 -5.42749,7.61057 -11.33858,15.95435 -14.42131,20.13854 -5.99193,8.13389 -5.52203,5.16747 -5.52203,5.16747 0,0 0.52569,2.65725 -5.488,-5.28849 z"
             style="fill:#ef2d2d;fill-opacity:1;fill-rule:nonzero;stroke:none;stroke-width:0.968164"
             id="path1005" /><path
             d="m 281.54251,355.05568 c 3.30443,-4.73965 9.45143,-12.91373 15.52892,-21.13176 3.87834,-5.24595 5.58539,-5.28566 9.68921,-5.09752 3.45619,0.15743 7.77321,3.47273 9.11767,7.10617 1.06319,2.87329 0.43256,7.65501 2.20485,13.15387 2.03371,6.30819 5.53433,11.8964 5.91015,15.4249 0.51103,4.78361 -2.1812,8.496 -5.41898,9.85701 -2.87376,1.20831 -4.49856,0.46706 -10.13547,-1.31137 -8.91628,-2.81088 -18.67782,-5.85341 -23.60941,-7.49239 -9.58805,-3.18434 -6.62115,-3.65519 -6.62115,-3.65519 0,0 -2.36415,1.32176 3.33421,-6.85372 z"
             style="fill:#ef2d2d;fill-opacity:1;fill-rule:nonzero;stroke:none;stroke-width:0.968164"
             id="path1015" /><path
             d="m 284.82945,366.29403 c 5.52913,1.67821 15.20226,4.9987 24.89478,8.23694 6.1886,2.06822 6.75446,3.6793 7.84412,7.6413 0.91711,3.33515 -0.90151,8.46576 -3.94168,10.8682 -2.40339,1.8985 -7.14636,2.77637 -11.82834,6.16069 -5.37076,3.88305 -9.60412,8.9399 -12.84378,10.3879 -4.3922,1.96327 -8.75366,0.55026 -11.05022,-2.10841 -2.03655,-2.3599 -1.83328,-4.13407 -1.88385,-10.04515 -0.0818,-9.34741 -0.2047,-19.57174 -0.17066,-24.769 0.0671,-10.10236 1.4305,-7.42573 1.4305,-7.42573 0,0 -1.98786,-1.84083 7.54913,1.05326 z"
             style="fill:#ef2d2d;fill-opacity:1;fill-rule:nonzero;stroke:none;stroke-width:0.968164"
             id="path1025" /></g><g
           id="g1380"><path
             d="m 265.33426,393.96466 c -0.93128,-0.55782 -1.81199,-1.50708 -2.83122,-2.60524 -1.26504,-1.36337 -2.69838,-2.90968 -4.66307,-4.20262 -1.85455,-1.22107 -3.78048,-2.18687 -5.48138,-3.03922 -2.0947,-1.05089 -3.90481,-1.9576 -4.96563,-3.0326 -2.83547,-2.87092 -2.24455,-6.36066 -0.87882,-8.4771 0.1527,-0.23684 0.46849,-0.30396 0.70533,-0.15128 0.23589,0.1527 0.30397,0.46754 0.1508,0.70438 -1.21729,1.88528 -1.66025,4.76896 0.74882,7.20781 0.94263,0.95492 2.68183,1.82712 4.69663,2.83736 1.72549,0.8651 3.68073,1.84461 5.58539,3.09925 2.06727,1.361 3.60981,3.0241 4.84933,4.36099 0.96675,1.04096 1.80113,1.9401 2.60856,2.42419 2.38165,1.42672 6.86177,1.57657 8.87658,0.29735 0.23778,-0.1508 0.55357,-0.0808 0.70343,0.15695 0.15175,0.23731 0.0813,0.55262 -0.15648,0.7039 -2.36415,1.50093 -7.19883,1.3629 -9.94827,-0.28412 z"
             style="fill:#000000;fill-opacity:1;fill-rule:nonzero;stroke:none;stroke-width:0.968164"
             id="path989" /><path
             d="m 258.34816,408.81897 c -1.18421,-0.78947 -2.2871,-2.06491 -3.56254,-3.54173 -1.60116,-1.85124 -3.41411,-3.94877 -5.97114,-5.81608 -2.38022,-1.7373 -4.95002,-3.20798 -7.2168,-4.50564 -2.86761,-1.64086 -5.34333,-3.05813 -6.70813,-4.56899 -3.53324,-3.91283 -3.2373,-8.84253 -1.4669,-11.76686 1.55862,-2.57452 3.24486,-3.13093 7.75335,-4.62053 l 1.49101,-0.49448 6.27889,-2.10462 17.23315,-5.71395 c 6.96245,-2.21194 7.91502,-1.78931 8.26059,-1.2206 0.0123,0.0198 0.008,0.0402 0.017,0.0605 0.48172,0.19571 1.08351,1.13739 1.22155,8.20574 l -0.0638,18.23957 -0.0771,7.99726 c -0.0558,6.67267 -1.50518,7.89186 -5.07245,10.24183 -3.0884,2.03607 -8.74989,1.85265 -12.11672,-0.39143 m 8.13911,-42.16141 -17.21708,5.70875 -6.27982,2.10463 -1.49527,0.49636 c -4.36619,1.44232 -5.83688,1.92829 -7.20025,4.18041 -1.58225,2.61186 -1.83281,7.03006 1.35108,10.55477 1.25653,1.39126 3.66655,2.77071 6.45806,4.36808 2.28993,1.31089 4.88526,2.79623 7.31228,4.56757 2.65017,1.93586 4.58507,4.17426 6.14038,5.97302 1.2277,1.42009 2.2871,2.64684 3.35737,3.35973 3.01181,2.00866 8.25115,2.19444 10.98972,0.38907 3.22548,-2.12543 4.56001,-3.00519 4.61438,-9.39894 l 0.0771,-8.0001 0.0633,-18.20979 c -0.0955,-4.93063 -0.42168,-6.55353 -0.6103,-7.0915 -0.16215,0.0794 -0.34652,0.104 -0.50205,-0.004 -0.14087,-0.0983 -0.21793,-0.25669 -0.21793,-0.41789 0,-0.0681 0.0161,-0.13616 0.044,-0.20139 -0.50442,-0.0435 -2.02852,0.0776 -6.88494,1.62149 m 7.78928,-1.2277 c 0.018,-0.006 0.0492,-0.0166 0.0492,-0.0166 0.053,-0.0818 0.0771,-0.17113 0.078,-0.25811 -0.0397,0.0969 -0.0657,0.19335 -0.12717,0.27466"
             style="fill:#000000;fill-opacity:1;fill-rule:nonzero;stroke:none;stroke-width:0.968164"
             id="path991" /><path
             d="m 263.87303,378.47217 c -0.22454,-0.17066 -0.26851,-0.48976 -0.0993,-0.71383 l 9.85609,-13.02718 c 0.16971,-0.22502 0.49023,-0.26851 0.71382,-0.0988 0.22503,0.16923 0.26852,0.48928 0.0988,0.71336 l -9.85514,13.02717 c -0.17019,0.22502 -0.48975,0.26899 -0.71431,0.0993 z"
             style="fill:#000000;fill-opacity:1;fill-rule:nonzero;stroke:none;stroke-width:0.968164"
             id="path993" /><path
             d="m 242.70436,362.85298 c 0.24251,-1.05845 0.87314,-2.18876 1.6021,-3.49777 0.90671,-1.62432 1.93256,-3.46562 2.55657,-5.73429 0.58856,-2.14102 0.91143,-4.27117 1.1965,-6.15123 0.35171,-2.3183 0.65474,-4.31939 1.35013,-5.66007 1.85407,-3.58381 5.35421,-4.10193 7.79022,-3.45523 0.2723,0.0718 0.43444,0.35124 0.36117,0.62354 -0.0718,0.27182 -0.35076,0.43398 -0.62259,0.36165 -2.16892,-0.5758 -5.0493,-0.1059 -6.62398,2.93852 -0.6174,1.19129 -0.90955,3.11581 -1.24614,5.34428 -0.29026,1.90796 -0.6174,4.07026 -1.22297,6.2699 -0.65521,2.38542 -1.76,4.36713 -2.64827,5.95977 -0.69114,1.24046 -1.28868,2.31215 -1.49999,3.22926 -0.62117,2.70547 0.62165,7.01304 2.46012,8.5343 0.21746,0.17917 0.24771,0.5011 0.0685,0.71761 -0.17917,0.21651 -0.50109,0.24724 -0.71761,0.0676 -2.15851,-1.78411 -3.52094,-6.42495 -2.8038,-9.54785 z"
             style="fill:#000000;fill-opacity:1;fill-rule:nonzero;stroke:none;stroke-width:0.968164"
             id="path999" /><path
             d="m 226.41811,360.798 c 0.38386,-1.36999 1.25654,-2.81278 2.26725,-4.48248 1.26551,-2.09422 2.70074,-4.46688 3.68639,-7.47537 0.91712,-2.80096 1.52127,-5.69978 2.05499,-8.25634 0.67412,-3.23446 1.25701,-6.02642 2.27245,-7.7921 2.62936,-4.56946 7.40872,-5.81134 10.73726,-5.03085 2.93003,0.68641 3.9814,2.11832 6.78993,5.94512 l 0.93223,1.26647 3.94121,5.32016 10.75995,14.62455 c 4.25463,5.93804 4.14732,6.97381 3.71335,7.47963 -0.0151,0.017 -0.0364,0.0184 -0.052,0.0345 -0.0383,0.5186 -0.74739,1.38134 -7.42716,3.69727 l -17.36692,5.57686 -7.6295,2.3963 c -6.36304,2.00913 -7.97081,1.0074 -11.30786,-1.65836 -2.89031,-2.30883 -4.46547,-7.75003 -3.37156,-11.64537 m 42.61248,-5.28755 -10.75003,-14.61084 -3.94121,-5.3216 -0.93412,-1.26834 c -2.72154,-3.70672 -3.63724,-4.95522 -6.20183,-5.55654 -2.97257,-0.69681 -7.25179,0.42878 -9.62019,4.54725 -0.93507,1.62384 -1.50142,4.34349 -2.15852,7.49097 -0.53892,2.5835 -1.1497,5.51115 -2.08382,8.36553 -1.02206,3.11958 -2.55373,5.65109 -3.78332,7.68621 -0.97194,1.60588 -1.81057,2.99383 -2.15851,4.23052 -0.97904,3.48689 0.46328,8.52626 3.02646,10.57321 3.017,2.41047 4.26645,3.40795 10.36428,1.48343 l 7.63281,-2.39818 c 0,0 17.33761,-5.56647 17.33808,-5.56694 4.65977,-1.61533 6.10256,-2.42655 6.55591,-2.77165 -0.12575,-0.13048 -0.20659,-0.2983 -0.1508,-0.47983 0.0497,-0.16356 0.17585,-0.286 0.33044,-0.33611 0.0638,-0.0203 0.13426,-0.0265 0.20423,-0.0198 -0.11394,-0.49354 -0.7006,-1.90513 -3.66986,-6.04725 m 3.57483,7.02912 c 0.0118,0.0151 0.0317,0.0411 0.0317,0.0411 0.0941,0.0256 0.18578,0.0198 0.26946,-0.005 -0.10542,-0.009 -0.2047,-0.003 -0.30114,-0.0364"
             style="fill:#000000;fill-opacity:1;fill-rule:nonzero;stroke:none;stroke-width:0.968164"
             id="path1001" /><path
             d="m 272.73638,362.67192 -15.43533,-5.34758 c -0.26521,-0.0927 -0.40656,-0.38292 -0.31437,-0.6486 0.0927,-0.26568 0.38244,-0.4075 0.64859,-0.31484 l 15.43439,5.34711 c 0.26708,0.0922 0.40749,0.38339 0.31531,0.64859 -0.0926,0.26616 -0.38292,0.4075 -0.64859,0.31532 z"
             style="fill:#000000;fill-opacity:1;fill-rule:nonzero;stroke:none;stroke-width:0.968164"
             id="path1003" /><path
             d="m 265.31252,331.6874 c 1.08162,-0.0964 2.35044,0.15506 3.82113,0.44391 1.82523,0.35927 3.89346,0.76677 6.24296,0.65851 2.21855,-0.10116 4.34492,-0.4524 6.22074,-0.76299 2.31357,-0.3815 4.31041,-0.71147 5.79906,-0.46517 3.98233,0.65615 5.55701,3.82585 5.69364,6.34127 0.0161,0.28128 -0.19902,0.52143 -0.4803,0.53751 -0.28175,0.0146 -0.5219,-0.19998 -0.53609,-0.48125 -0.12385,-2.24077 -1.46028,-4.83468 -4.84318,-5.39203 -1.32272,-0.2184 -3.24345,0.0988 -5.46672,0.46518 -1.90419,0.31484 -4.0627,0.67176 -6.34082,0.77623 -2.471,0.11346 -4.69759,-0.32524 -6.4869,-0.67743 -1.39268,-0.27466 -2.59673,-0.51103 -3.53512,-0.4283 -2.76456,0.24488 -6.47791,2.75746 -7.35531,4.97696 -0.10353,0.2619 -0.40088,0.39048 -0.66136,0.28648 -0.26237,-0.10353 -0.39048,-0.39947 -0.28647,-0.66183 1.03009,-2.60383 5.02188,-5.33388 8.21474,-5.61705 z"
             style="fill:#000000;fill-opacity:1;fill-rule:nonzero;stroke:none;stroke-width:0.968164"
             id="path1009" /><path
             d="m 262.23311,315.56285 c 1.42199,-0.0572 3.06381,0.32667 4.96421,0.77151 2.38259,0.55642 5.08239,1.18846 8.24831,1.19602 2.94703,0.007 5.89124,-0.31437 8.48799,-0.59706 3.28362,-0.35786 6.11957,-0.66703 8.11169,-0.24582 5.15944,1.08776 7.81763,5.24973 8.10364,8.65673 0.25291,2.99857 -0.78569,4.44089 -3.5564,8.2951 l -0.91663,1.27686 -3.84146,5.39296 -10.5841,14.7522 c -4.33216,5.88177 -5.35043,6.09971 -5.96499,5.84301 -0.0218,-0.009 -0.0293,-0.0274 -0.0497,-0.0392 -0.50535,0.1248 -1.5449,-0.2827 -5.81087,-5.92055 l -10.67015,-14.79379 -4.63848,-6.51524 c -3.87597,-5.43032 -3.42073,-7.26879 -1.91695,-11.26672 1.30286,-3.46231 5.99193,-6.64288 10.03383,-6.80598 m 18.19705,38.89387 10.57323,-14.73848 3.84335,-5.39345 0.91805,-1.28063 c 2.6842,-3.73368 3.58808,-4.99068 3.36826,-7.61531 -0.25529,-3.04252 -2.64828,-6.76437 -7.29717,-7.74388 -1.83328,-0.38764 -4.59548,-0.0861 -7.79212,0.26237 -2.62274,0.28553 -5.59626,0.60888 -8.60097,0.60227 -3.28221,-0.008 -6.16306,-0.68122 -8.47758,-1.22298 -1.82807,-0.42734 -3.40749,-0.79655 -4.6905,-0.74503 -3.61832,0.14608 -7.96561,3.07515 -9.12051,6.14557 -1.36006,3.61501 -1.92262,5.11121 1.79168,10.31509 l 4.63943,6.51809 c 0,0 10.6517,14.76921 10.65312,14.76921 2.97541,3.93316 4.19365,5.05448 4.66213,5.37925 0.0846,-0.16072 0.21888,-0.28836 0.40844,-0.29215 0.17161,-0.003 0.3262,0.0794 0.42216,0.2099 0.0397,0.0553 0.0662,0.1196 0.0823,0.18862 0.43349,-0.26095 1.59501,-1.25464 4.61674,-5.35846 m -5.58018,5.57166 c -0.0109,0.0161 -0.0293,0.0425 -0.0293,0.0425 0.004,0.0974 0.0383,0.18295 0.0874,0.25481 -0.0236,-0.10259 -0.0596,-0.19524 -0.0582,-0.29735"
             style="fill:#000000;fill-opacity:1;fill-rule:nonzero;stroke:none;stroke-width:0.968164"
             id="path1011" /><path
             d="m 275.26362,360.71291 c -0.2808,-0.005 -0.50441,-0.23779 -0.49874,-0.51907 l 0.31579,-16.33161 c 0.006,-0.28174 0.23827,-0.50535 0.52049,-0.50015 0.28128,0.006 0.50441,0.23874 0.49874,0.52001 l -0.31579,16.33161 c -0.006,0.28127 -0.23874,0.50488 -0.52049,0.49921 z"
             style="fill:#000000;fill-opacity:1;fill-rule:nonzero;stroke:none;stroke-width:0.968164"
             id="path1013" /><path
             d="m 301.97372,343.66653 c 0.42451,0.99936 0.57909,2.28425 0.75779,3.77148 0.22266,1.84746 0.47368,3.94073 1.30333,6.14178 0.78239,2.07768 1.77324,3.99179 2.64733,5.68087 1.07737,2.08145 2.00913,3.87833 2.2351,5.37122 0.60652,3.98943 -1.92215,6.46656 -4.27165,7.37421 -0.26284,0.10259 -0.55735,-0.0279 -0.65947,-0.29073 -0.10116,-0.26331 0.0288,-0.55736 0.29168,-0.65946 2.09328,-0.8098 4.14732,-2.88275 3.63204,-6.27085 -0.20186,-1.32649 -1.09675,-3.05482 -2.13252,-5.0559 -0.88732,-1.71415 -1.89378,-3.65615 -2.69696,-5.79102 -0.87173,-2.31546 -1.1426,-4.56805 -1.36054,-6.37768 -0.17018,-1.41064 -0.31578,-2.62841 -0.68499,-3.49447 -1.0873,-2.55418 -4.62384,-5.30928 -7.00596,-5.45867 -0.28175,-0.017 -0.49495,-0.25954 -0.47699,-0.54033 0.0175,-0.28128 0.25907,-0.49449 0.54034,-0.47652 2.79482,0.17443 6.6254,3.12808 7.88147,6.07607 z"
             style="fill:#000000;fill-opacity:1;fill-rule:nonzero;stroke:none;stroke-width:0.968164"
             id="path1019" /><path
             d="m 316.35626,335.75577 c 0.49448,1.33453 0.63724,3.01463 0.80128,4.95947 0.20611,2.43837 0.44012,5.20198 1.41207,8.2152 0.9034,2.80474 2.11833,5.505 3.18955,7.88665 1.35487,3.01322 2.52488,5.61421 2.74093,7.63941 0.55878,5.24264 -2.57784,9.0562 -5.72957,10.38222 -2.77402,1.16624 -4.465,0.62543 -8.98766,-0.81925 l -1.49717,-0.47652 -6.31623,-1.9869 -17.30121,-5.50785 c -6.93269,-2.30316 -7.45506,-3.20468 -7.40116,-3.86839 0.003,-0.0222 0.0189,-0.0364 0.0226,-0.0586 -0.27513,-0.44153 -0.20847,-1.55624 3.83484,-7.35623 l 10.77178,-14.71911 4.76471,-6.42448 c 3.96626,-5.36554 5.85485,-5.49933 10.12271,-5.30457 3.69585,0.16877 8.16889,3.64527 9.57245,7.43898 m -31.36608,29.32569 17.28467,5.50123 6.31718,1.9888 1.50141,0.47698 c 4.37896,1.3993 5.85532,1.87062 8.28329,0.85045 2.8142,-1.18373 5.61517,-4.60964 5.10933,-9.3337 -0.1976,-1.86304 -1.33831,-4.39691 -2.6563,-7.32881 -1.08351,-2.40718 -2.30979,-5.13533 -3.23115,-7.9935 -1.00693,-3.12383 -1.2556,-6.07276 -1.45745,-8.4421 -0.1579,-1.87016 -0.29451,-3.48596 -0.74031,-4.69097 -1.25748,-3.3966 -5.38589,-6.62539 -8.66337,-6.77477 -3.85847,-0.17634 -5.45491,-0.24961 -9.25666,4.8914 l -4.76515,6.42726 c 0,0 -10.75476,14.69405 -10.75476,14.69452 -2.82081,4.04568 -3.51007,5.54992 -3.67458,6.0964 0.17822,0.0312 0.34132,0.1196 0.40372,0.29877 0.0562,0.16214 0.0251,0.3347 -0.069,0.46564 -0.0397,0.0548 -0.0927,0.10117 -0.15364,0.13662 0.38197,0.33187 1.68578,1.12937 6.52282,2.73573 m -7.02345,-3.58523 c -0.0189,-0.007 -0.0497,-0.0156 -0.0497,-0.0156 -0.0912,0.0349 -0.16262,0.0931 -0.21603,0.16262 0.0903,-0.0548 0.16876,-0.11771 0.26567,-0.14702"
             style="fill:#000000;fill-opacity:1;fill-rule:nonzero;stroke:none;stroke-width:0.968164"
             id="path1021" /><path
             d="m 277.44341,362.1018 c -0.0823,-0.26946 0.0705,-0.55405 0.34038,-0.63583 l 15.62866,-4.74626 c 0.26946,-0.0818 0.555,0.07 0.63631,0.33942 0.0823,0.26993 -0.0705,0.55452 -0.33896,0.6363 l -15.63009,4.7458 c -0.26945,0.0823 -0.55499,-0.07 -0.6363,-0.33943 z"
             style="fill:#000000;fill-opacity:1;fill-rule:nonzero;stroke:none;stroke-width:0.968164"
             id="path1023" /><path
             d="m 301.97466,382.20442 c -0.81926,0.71336 -1.99401,1.25748 -3.35312,1.88763 -1.68767,0.78191 -3.60083,1.66828 -5.43836,3.13613 -1.73448,1.38654 -3.24865,2.92009 -4.58366,4.27353 -1.64749,1.66876 -3.069,3.10966 -4.41914,3.78614 -3.60698,1.80963 -6.74358,0.16972 -8.33387,-1.7841 -0.17681,-0.21746 -0.14372,-0.53892 0.0743,-0.71714 0.21793,-0.17728 0.53939,-0.14419 0.71666,0.0738 1.41679,1.74109 4.02252,3.05293 7.0868,1.51607 1.19933,-0.60085 2.56601,-1.98644 4.14921,-3.59091 1.35486,-1.37329 2.89268,-2.92954 4.67347,-4.35342 1.93349,-1.54537 3.99179,-2.49887 5.64637,-3.26518 1.28868,-0.59754 2.4015,-1.11282 3.11108,-1.73068 2.09328,-1.82429 3.62022,-6.03873 3.02646,-8.35041 -0.07,-0.27324 0.0945,-0.55074 0.36684,-0.62071 0.27229,-0.0704 0.55074,0.0941 0.62118,0.36685 0.69681,2.71303 -0.92893,7.26783 -3.34415,9.37246 z"
             style="fill:#000000;fill-opacity:1;fill-rule:nonzero;stroke:none;stroke-width:0.968164"
             id="path1029" /><path
             d="m 313.94341,393.43993 c -1.11708,0.88213 -2.67097,1.53639 -4.46973,2.29371 -2.25543,0.94973 -4.81104,2.02663 -7.37658,3.88116 -2.38827,1.7269 -4.58082,3.7157 -6.51573,5.47145 -2.44688,2.21949 -4.55908,4.13644 -6.41835,4.96798 -4.8134,2.15189 -9.40981,0.34652 -11.64397,-2.24124 -1.96706,-2.27764 -1.97509,-4.05418 -1.99873,-8.80139 l -0.01,-1.57138 -0.0615,-6.62114 -0.11015,-18.15636 c 0.0497,-7.30471 0.74505,-8.08 1.39316,-8.23364 0.0227,-0.005 0.0407,0.006 0.0633,0.003 0.3347,-0.39758 1.41632,-0.67885 8.18118,1.37424 l 17.32675,5.69694 7.58269,2.54521 c 6.32805,2.11455 7.03905,3.86982 8.17314,7.98828 0.98093,3.56727 -0.94264,8.895 -4.11611,11.40334 m -37.58304,-20.77012 0.10779,18.13887 0.0615,6.62303 0.01,1.57468 c 0.0226,4.59831 0.0307,6.14699 1.75055,8.14051 1.99589,2.31168 6.11957,3.91614 10.45646,1.97603 1.7113,-0.76346 3.76723,-2.63077 6.14935,-4.79165 1.95476,-1.77275 4.17001,-3.78282 6.60366,-5.54282 2.66056,-1.92309 5.38684,-3.07137 7.57844,-3.99414 1.72974,-0.72801 3.22407,-1.35817 4.23241,-2.15474 2.84115,-2.24502 4.63707,-7.16998 3.76677,-10.33258 -1.0249,-3.72374 -1.44941,-5.26533 -7.51321,-7.29195 l -7.58411,-2.54568 -17.29885,-5.68795 c -4.71933,-1.4324 -6.36398,-1.62291 -6.9341,-1.61062 0.0256,0.17964 -0.009,0.36259 -0.15836,0.47652 -0.13805,0.10259 -0.31154,0.12811 -0.4666,0.078 -0.0633,-0.0213 -0.12338,-0.0577 -0.1768,-0.10401 -0.19808,0.46613 -0.5531,1.95288 -0.58478,7.0485 m 1.23857,-7.7869 c 0,-0.0199 0,-0.052 0,-0.052 -0.0624,-0.0766 -0.13945,-0.12622 -0.22172,-0.15459 0.0799,0.069 0.16405,0.12291 0.22172,0.20659"
             style="fill:#000000;fill-opacity:1;fill-rule:nonzero;stroke:none;stroke-width:0.968164"
             id="path1031" /><path
             d="m 286.07842,378.68112 -9.34364,-13.3997 c -0.16074,-0.23116 -0.10495,-0.54837 0.12622,-0.70957 0.23069,-0.16074 0.54932,-0.10448 0.71005,0.12669 l 9.34364,13.39969 c 0.1612,0.23117 0.10542,0.54838 -0.12622,0.70958 -0.23023,0.16074 -0.54885,0.10448 -0.71005,-0.12669 z"
             style="fill:#000000;fill-opacity:1;fill-rule:nonzero;stroke:none;stroke-width:0.968164"
             id="path1033" /></g><path
           d="m 281.28535,364.75621 c 0,0 -3.28411,-1.41631 -3.4543,-2.66244 -0.16971,-1.24566 1.3024,-4.47444 1.3024,-4.47444 0,0 -2.88843,2.71869 -3.85092,2.71869 -0.96344,0 -3.34225,-2.49226 -3.34225,-2.49226 0,0 1.41632,3.7384 1.07595,4.53165 -0.33943,0.79324 -3.45523,2.54851 -3.45523,2.54851 0,0 3.90859,-0.79324 4.70232,0 0.7923,0.79326 1.18892,4.07829 1.18892,4.07829 0,0 0.46754,-4.05039 1.82713,-4.27684 1.35865,-0.22596 4.00598,0.0288 4.00598,0.0288 z"
           style="fill:#000000;fill-opacity:1;fill-rule:nonzero;stroke:none;stroke-width:0.968164"
           id="path1035" /></g></g></g></svg>
