<?xml version="1.0" encoding="UTF-8"?>
<svg xmlns="http://www.w3.org/2000/svg" xmlns:xlink="http://www.w3.org/1999/xlink" width="800px" height="800px" viewBox="0 0 800 800" version="1.1">
<defs>
<linearGradient id="linear0" gradientUnits="userSpaceOnUse" x1="273.23004" y1="433.27271" x2="275.64322" y2="562.82495" gradientTransform="matrix(1.523809,0,0,-1.523809,-19.978423,1059.113834)">
<stop offset="0" style="stop-color:rgb(100%,100%,100%);stop-opacity:1;"/>
<stop offset="0.344199" style="stop-color:rgb(40.392157%,61.176471%,96.470588%);stop-opacity:1;"/>
<stop offset="1" style="stop-color:rgb(0%,40.392157%,85.490196%);stop-opacity:1;"/>
</linearGradient>
</defs>
<g id="surface1">
<path style=" stroke:none;fill-rule:evenodd;fill:rgb(0%,0%,0%);fill-opacity:1;" d="M 0 400 C 0 620.558594 179.441406 800 400 800 C 620.5625 800 800 620.558594 800 400 C 800 179.4375 620.5625 0 400 0 C 179.441406 0 0 179.4375 0 400 "/>
<path style=" stroke:none;fill-rule:evenodd;fill:rgb(100%,100%,100%);fill-opacity:1;" d="M 13.464844 400 C 13.464844 186.863281 186.863281 13.464844 400 13.464844 C 613.136719 13.464844 786.539062 186.863281 786.539062 400 C 786.539062 613.136719 613.136719 786.535156 400 786.535156 C 186.863281 786.535156 13.464844 613.136719 13.464844 400 Z M 13.464844 400 "/>
<path style=" stroke:none;fill-rule:evenodd;fill:rgb(0%,0%,0%);fill-opacity:1;" d="M 126.019531 400 C 126.019531 550.582031 248.925781 673.085938 400 673.085938 C 551.074219 673.085938 673.980469 550.582031 673.980469 400 C 673.980469 249.421875 551.074219 126.914062 400 126.914062 C 248.925781 126.914062 126.019531 249.421875 126.019531 400 "/>
<path style=" stroke:none;fill-rule:evenodd;fill:rgb(0%,40.392157%,85.490196%);fill-opacity:1;" d="M 139.484375 400 C 139.484375 256.84375 256.351562 140.378906 400 140.378906 C 543.652344 140.378906 660.519531 256.84375 660.519531 400 C 660.519531 543.15625 543.652344 659.621094 400 659.621094 C 256.351562 659.621094 139.484375 543.15625 139.484375 400 Z M 139.484375 400 "/>
<path style=" stroke:none;fill-rule:nonzero;fill:rgb(0%,0%,0%);fill-opacity:1;" d="M 134.84375 531.710938 L 81.367188 569.234375 L 98.671875 593.890625 L 134.660156 583.5 C 136.777344 582.867188 139.257812 581.90625 141.980469 580.710938 C 140.03125 582.898438 138.355469 584.914062 137.164062 586.609375 L 115.15625 617.382812 L 132.324219 641.847656 L 187.238281 603.3125 L 175.546875 586.652344 C 175.546875 586.652344 147.746094 606.160156 144.875 608.175781 C 146.003906 606.707031 147.230469 605.226562 148.210938 603.777344 L 167.574219 575.292969 L 156.226562 559.117188 L 122.648438 567.476562 C 121.007812 567.875 119.070312 568.449219 117 569.097656 C 119.46875 567.363281 147.972656 547.359375 147.972656 547.359375 L 136.285156 530.699219 Z M 134.84375 531.710938 "/>
<path style=" stroke:none;fill-rule:nonzero;fill:rgb(0%,0%,0%);fill-opacity:1;" d="M 104.703125 432.765625 L 48.21875 473.425781 L 55.148438 501.097656 L 126.738281 510.785156 L 121.542969 490.050781 C 121.542969 490.050781 106.566406 487.957031 104.53125 487.671875 C 104.023438 485.648438 98.695312 464.386719 98.1875 462.347656 C 99.867188 461.140625 112.097656 452.347656 112.097656 452.347656 L 106.808594 431.25 L 104.703125 432.765625 M 84.277344 471.398438 C 85.101562 474.6875 87.226562 483.171875 88.054688 486.472656 C 84.550781 486.007812 72.628906 484.425781 67.03125 483.683594 C 71.628906 480.40625 81.410156 473.441406 84.277344 471.398438 Z M 84.277344 471.398438 "/>
<path style=" stroke:none;fill-rule:nonzero;fill:rgb(0%,0%,0%);fill-opacity:1;" d="M 45.0625 337.566406 L 43.546875 356.097656 L 73.609375 358.550781 C 76.21875 358.765625 79.285156 358.796875 82.449219 358.78125 C 78.492188 360.136719 75.585938 361.304688 73.675781 362.339844 L 41.679688 378.992188 L 39.449219 406.285156 L 106.3125 411.746094 L 107.96875 391.460938 L 74.050781 388.691406 C 74.035156 388.691406 65.65625 388.363281 65.433594 388.355469 C 68.765625 386.964844 71.671875 385.613281 74.035156 384.332031 L 110.140625 364.867188 L 112.070312 341.269531 L 45.207031 335.8125 Z M 45.0625 337.566406 "/>
<path style=" stroke:none;fill-rule:nonzero;fill:rgb(0%,0%,0%);fill-opacity:1;" d="M 81.730469 243.179688 C 73.664062 248.050781 67.695312 255.332031 63.988281 264.816406 C 59.660156 275.882812 58.988281 285.605469 61.992188 293.71875 C 65.023438 301.90625 71.660156 308.050781 81.722656 311.984375 C 92.046875 316.023438 101.507812 316.175781 109.839844 312.429688 C 118.164062 308.695312 124.460938 301.484375 128.5625 291 C 130.492188 286.066406 131.539062 281.152344 131.667969 276.402344 C 131.796875 271.675781 131.15625 266.816406 129.761719 261.964844 L 129.523438 261.128906 L 111.628906 254.128906 L 113.707031 258.242188 C 117.808594 266.367188 118.316406 274.117188 115.253906 281.9375 C 113.035156 287.617188 109.746094 291.433594 105.484375 293.285156 C 101.21875 295.136719 96.164062 294.949219 90.472656 292.722656 C 85.167969 290.644531 81.644531 287.550781 79.695312 283.25 C 77.753906 278.96875 77.84375 274.242188 79.972656 268.804688 C 81.46875 264.976562 83.800781 261.492188 86.90625 258.445312 C 89.996094 255.410156 93.523438 253.210938 97.386719 251.898438 L 101.960938 250.351562 L 82.472656 242.730469 Z M 81.730469 243.179688 "/>
<path style=" stroke:none;fill-rule:nonzero;fill:rgb(0%,0%,0%);fill-opacity:1;" d="M 138.140625 152.933594 L 126.191406 168.179688 C 126.191406 168.179688 142.464844 180.929688 144.839844 182.792969 C 143.042969 185.082031 130.761719 200.757812 128.964844 203.046875 C 126.589844 201.1875 110.320312 188.4375 110.320312 188.4375 L 97.289062 205.066406 L 150.09375 246.445312 L 163.125 229.816406 C 163.125 229.816406 143.75 214.632812 141.316406 212.726562 C 143.113281 210.433594 155.394531 194.761719 157.191406 192.472656 C 159.625 194.375 178.996094 209.558594 178.996094 209.558594 L 192.03125 192.929688 L 139.226562 151.550781 Z M 138.140625 152.933594 "/>
<path style=" stroke:none;fill-rule:nonzero;fill:rgb(0%,0%,0%);fill-opacity:1;" d="M 211.863281 93.476562 L 166.816406 127.320312 L 207.113281 180.953125 L 253.566406 146.054688 L 244.140625 133.507812 C 244.140625 133.507812 217.136719 153.796875 214.582031 155.71875 C 213.230469 153.917969 210.039062 149.671875 208.6875 147.875 C 211.242188 145.953125 238.25 125.664062 238.25 125.664062 L 228.824219 113.121094 C 228.824219 113.121094 201.820312 133.410156 199.265625 135.328125 C 197.925781 133.546875 194.863281 129.472656 193.523438 127.691406 C 196.078125 125.773438 223.085938 105.480469 223.085938 105.480469 L 213.269531 92.417969 Z M 211.863281 93.476562 "/>
<path style=" stroke:none;fill-rule:nonzero;fill:rgb(0%,0%,0%);fill-opacity:1;" d="M 289.015625 56.898438 C 285.128906 57.257812 280.769531 58.253906 276.058594 59.863281 C 267.863281 62.664062 261.660156 66.871094 257.625 72.367188 C 253.441406 78.058594 252.382812 84.050781 254.472656 90.179688 C 256.832031 97.085938 262.199219 101.054688 270.421875 101.976562 C 271.667969 102.105469 275.066406 102.136719 290.277344 100.941406 C 296.125 100.464844 299.722656 101.308594 300.40625 103.308594 C 300.738281 104.285156 300.980469 105.816406 299.21875 107.824219 C 297.679688 109.585938 295.15625 111.070312 291.722656 112.246094 C 287.574219 113.660156 283.355469 114.28125 279.175781 114.09375 C 275.5625 113.953125 271.71875 113.140625 267.730469 111.683594 L 264.265625 110.414062 L 270.246094 127.925781 L 271.261719 128.109375 C 280.160156 129.726562 289.074219 129.042969 297.757812 126.082031 C 305.714844 123.363281 311.847656 119.164062 315.988281 113.601562 C 320.28125 107.835938 321.460938 101.984375 319.488281 96.207031 C 317.453125 90.25 313.449219 86.402344 307.585938 84.769531 C 303.1875 83.5625 296.996094 83.480469 288.671875 84.511719 C 280.996094 85.511719 277.988281 85.523438 276.8125 85.359375 C 275.589844 85.1875 274.890625 84.582031 274.46875 83.347656 C 274.152344 82.417969 273.933594 80.960938 275.6875 79.035156 C 277.25 77.320312 279.867188 75.828125 283.46875 74.601562 C 287.519531 73.214844 291.390625 72.597656 294.960938 72.765625 C 298.550781 72.9375 302.257812 73.742188 305.984375 75.160156 L 309.492188 76.496094 L 303.078125 57.722656 L 302.042969 57.550781 C 297.289062 56.761719 292.90625 56.535156 289.015625 56.898438 Z M 289.015625 56.898438 "/>
<path style=" stroke:none;fill-rule:nonzero;fill:rgb(0%,0%,0%);fill-opacity:1;" d="M 397.441406 38.644531 L 331.070312 45.730469 L 332.808594 61.976562 C 332.808594 61.976562 353.363281 59.78125 356.363281 59.460938 C 356.710938 62.726562 361.75 109.925781 361.75 109.925781 L 382.761719 107.679688 C 382.761719 107.679688 377.722656 60.484375 377.371094 57.21875 C 380.375 56.898438 400.929688 54.703125 400.929688 54.703125 L 399.195312 38.457031 Z M 397.441406 38.644531 "/>
<path style=" stroke:none;fill-rule:nonzero;fill:rgb(0%,0%,0%);fill-opacity:1;" d="M 428.96875 42.269531 L 418.007812 106.667969 L 475.289062 116.414062 L 477.921875 100.945312 C 477.921875 100.945312 444.621094 95.28125 441.472656 94.742188 C 441.847656 92.523438 442.738281 87.289062 443.117188 85.070312 C 446.265625 85.609375 479.566406 91.273438 479.566406 91.273438 L 482.199219 75.804688 C 482.199219 75.804688 448.898438 70.136719 445.75 69.601562 C 446.121094 67.40625 446.980469 62.378906 447.351562 60.183594 C 450.5 60.71875 483.800781 66.386719 483.800781 66.386719 L 486.542969 50.28125 L 429.261719 40.53125 Z M 428.96875 42.269531 "/>
<path style=" stroke:none;fill-rule:nonzero;fill:rgb(0%,0%,0%);fill-opacity:1;" d="M 521.828125 63.773438 L 496.886719 124.148438 L 516.414062 132.214844 C 516.414062 132.214844 523.058594 116.132812 525.460938 110.316406 C 527.78125 116.90625 536.03125 140.320312 536.03125 140.320312 L 560.574219 150.457031 C 560.574219 150.457031 547.964844 119.679688 545.601562 113.914062 C 551.429688 115.765625 556.761719 116.242188 561.382812 115.035156 C 567.179688 113.519531 571.359375 109.75 573.804688 103.828125 C 576.359375 97.640625 575.648438 91.925781 571.683594 86.839844 C 568.363281 82.5625 562.679688 78.742188 554.800781 75.488281 L 522.5 62.144531 L 521.828125 63.773438 M 536.035156 84.714844 C 538.292969 85.648438 544.121094 88.054688 544.121094 88.054688 C 550.007812 90.484375 552.246094 92.234375 553.085938 93.277344 C 553.503906 93.792969 553.957031 94.5625 553.890625 95.804688 C 553.855469 96.433594 553.6875 97.183594 553.316406 98.082031 C 552.671875 99.648438 551.710938 100.675781 550.378906 101.230469 C 547.890625 102.261719 544.042969 101.71875 538.945312 99.613281 C 538.945312 99.613281 533.425781 97.332031 531.203125 96.414062 C 532.140625 94.144531 535.101562 86.984375 536.035156 84.714844 Z M 536.035156 84.714844 "/>
<path style=" stroke:none;fill-rule:nonzero;fill:rgb(0%,0%,0%);fill-opacity:1;" d="M 621.921875 154.058594 C 613.332031 161.070312 608.554688 169.238281 607.722656 178.335938 C 606.890625 187.414062 610.078125 196.445312 617.199219 205.164062 C 620.546875 209.269531 624.3125 212.59375 628.386719 215.042969 C 632.445312 217.476562 636.992188 219.304688 641.898438 220.472656 L 642.746094 220.671875 L 657.628906 208.523438 L 653.027344 208.3125 C 643.9375 207.898438 636.9375 204.535156 631.628906 198.027344 C 627.769531 193.304688 626.058594 188.566406 626.542969 183.941406 C 627.027344 179.3125 629.671875 175.007812 634.40625 171.140625 C 638.816406 167.542969 643.25 165.992188 647.945312 166.402344 C 652.628906 166.816406 656.703125 169.21875 660.398438 173.742188 C 662.996094 176.925781 664.886719 180.667969 666.015625 184.867188 C 667.140625 189.050781 667.324219 193.207031 666.566406 197.214844 L 665.671875 201.960938 L 681.878906 188.726562 L 681.855469 187.859375 C 681.570312 178.441406 678.160156 169.667969 671.722656 161.777344 C 664.207031 152.570312 656.066406 147.210938 647.523438 145.84375 C 638.90625 144.460938 630.292969 147.226562 621.921875 154.058594 Z M 621.921875 154.058594 "/>
<path style=" stroke:none;fill-rule:nonzero;fill:rgb(0%,0%,0%);fill-opacity:1;" d="M 702.304688 210.292969 L 645.90625 243.257812 L 656.570312 261.5 L 714.488281 227.648438 L 703.824219 209.402344 Z M 702.304688 210.292969 "/>
<path style=" stroke:none;fill-rule:nonzero;fill:rgb(0%,0%,0%);fill-opacity:1;" d="M 725.726562 250.226562 L 712.023438 255.195312 C 712.023438 255.195312 719.070312 274.632812 720.097656 277.46875 C 717.011719 278.585938 672.390625 294.765625 672.390625 294.765625 L 679.589844 314.628906 C 679.589844 314.628906 724.214844 298.453125 727.300781 297.332031 C 728.328125 300.171875 735.371094 319.605469 735.371094 319.605469 L 750.734375 314.039062 L 727.386719 249.628906 Z M 725.726562 250.226562 "/>
<path style=" stroke:none;fill-rule:nonzero;fill:rgb(0%,0%,0%);fill-opacity:1;" d="M 753.378906 338.527344 C 753.378906 338.527344 716.210938 367.847656 715.382812 368.5 C 714.363281 368.578125 691.261719 370.332031 691.261719 370.332031 L 692.859375 391.398438 C 692.859375 391.398438 716.246094 389.625 717.265625 389.546875 C 718.179688 390.066406 761.917969 414.84375 761.917969 414.84375 L 760.054688 390.261719 L 740.785156 380.632812 C 738.367188 379.40625 735.648438 378.457031 732.800781 377.636719 C 735.394531 376.410156 737.929688 375.035156 740.320312 373.375 L 757.808594 360.683594 L 755.972656 336.476562 Z M 753.378906 338.527344 "/>
<path style=" stroke:none;fill-rule:nonzero;fill:rgb(0%,0%,0%);fill-opacity:1;" d="M 682.414062 472.382812 L 676.640625 490.871094 C 676.640625 490.871094 697.222656 497.296875 700.121094 498.203125 C 699.167969 501.246094 689.316406 532.785156 689.316406 532.785156 L 704.296875 537.464844 C 704.296875 537.464844 714.148438 505.925781 715.097656 502.878906 C 717.296875 503.566406 722.882812 505.3125 725.082031 505.996094 C 724.128906 509.042969 714.28125 540.582031 714.28125 540.582031 L 729.878906 545.453125 L 746.976562 490.699219 L 682.941406 470.703125 Z M 682.414062 472.382812 "/>
<path style=" stroke:none;fill-rule:nonzero;fill:rgb(0%,0%,0%);fill-opacity:1;" d="M 648.898438 570.933594 C 639.84375 572.039062 631.691406 577.058594 624.667969 585.855469 C 621.363281 589.996094 618.90625 594.378906 617.375 598.878906 C 615.847656 603.355469 615.023438 608.183594 614.917969 613.230469 L 614.894531 614.101562 L 629.914062 626.089844 L 629.148438 621.546875 C 627.636719 612.566406 629.449219 605.015625 634.6875 598.453125 C 638.492188 593.691406 642.765625 591.019531 647.382812 590.515625 C 652.011719 590.011719 656.777344 591.6875 661.554688 595.5 C 666.007812 599.054688 668.457031 603.058594 669.042969 607.738281 C 669.625 612.40625 668.140625 616.890625 664.496094 621.457031 C 661.933594 624.664062 658.671875 627.304688 654.804688 629.296875 C 650.953125 631.273438 646.933594 632.335938 642.851562 632.441406 L 638.027344 632.566406 L 654.378906 645.617188 L 655.222656 645.410156 C 664.371094 643.144531 672.226562 637.960938 678.582031 630.003906 C 685.996094 620.714844 689.519531 611.625 689.054688 602.988281 C 688.582031 594.269531 684.066406 586.433594 675.621094 579.695312 C 666.957031 572.777344 657.964844 569.832031 648.898438 570.933594 Z M 648.898438 570.933594 "/>
<path style=" stroke:none;fill-rule:nonzero;fill:rgb(0%,0%,0%);fill-opacity:1;" d="M 604.214844 632.148438 C 604.214844 638.058594 599.421875 642.851562 593.511719 642.851562 C 587.601562 642.851562 582.808594 638.058594 582.808594 632.148438 C 582.808594 626.238281 587.601562 621.449219 593.511719 621.449219 C 599.421875 621.449219 604.214844 626.238281 604.214844 632.148438 Z M 604.214844 632.148438 "/>
<path style=" stroke:none;fill-rule:nonzero;fill:rgb(0%,0%,0%);fill-opacity:1;" d="M 413.308594 732.265625 C 413.308594 740.078125 406.96875 746.417969 399.152344 746.417969 C 391.335938 746.417969 385 740.078125 385 732.265625 C 385 724.445312 391.335938 718.109375 399.152344 718.109375 C 406.96875 718.109375 413.308594 724.445312 413.308594 732.265625 Z M 413.308594 732.265625 "/>
<path style=" stroke:none;fill-rule:nonzero;fill:rgb(0%,0%,0%);fill-opacity:1;" d="M 677.054688 542.390625 C 677.054688 548.304688 672.265625 553.09375 666.355469 553.09375 C 660.441406 553.09375 655.652344 548.304688 655.652344 542.390625 C 655.652344 536.480469 660.441406 531.6875 666.355469 531.6875 C 672.265625 531.6875 677.054688 536.480469 677.054688 542.390625 Z M 677.054688 542.390625 "/>
<path style=" stroke:none;fill-rule:nonzero;fill:rgb(100%,100%,100%);fill-opacity:1;" d="M 400.015625 622.132812 C 400.015625 622.132812 310.257812 578.640625 264 501.3125 C 225.480469 436.921875 223.953125 381.867188 223.953125 332.152344 C 223.953125 282.441406 223.953125 239.632812 223.953125 239.632812 C 223.953125 239.632812 268.140625 243.777344 314.402344 232.730469 C 358.582031 222.179688 400.046875 192.71875 400.046875 192.71875 C 400.046875 192.71875 441.515625 222.167969 485.695312 232.71875 C 531.957031 243.765625 576.144531 239.625 576.144531 239.625 C 576.144531 239.625 576.144531 282.429688 576.144531 332.140625 C 576.144531 381.855469 574.617188 436.910156 536.097656 501.300781 C 489.839844 578.628906 400.015625 622.132812 400.015625 622.132812 Z M 400.015625 622.132812 "/>
<path style=" stroke:none;fill-rule:evenodd;fill:rgb(80.784314%,89.803922%,89.019608%);fill-opacity:1;" d="M 570.898438 409.136719 C 570.898438 409.136719 577.113281 374.960938 577.113281 324.214844 C 577.113281 273.464844 576.144531 239.625 576.144531 239.625 C 576.144531 239.625 536.722656 244.46875 500.476562 235.148438 C 464.226562 225.824219 400.046875 192.71875 400.046875 192.71875 C 400.046875 192.71875 340.984375 228.933594 308.878906 236.183594 C 276.773438 243.433594 223.953125 239.632812 223.953125 239.632812 C 223.953125 239.632812 220.847656 315.929688 223.953125 350.105469 C 227.058594 384.28125 227.058594 406.03125 227.058594 406.03125 Z M 570.898438 409.136719 "/>
<path style=" stroke:none;fill-rule:evenodd;fill:rgb(0%,0%,0%);fill-opacity:1;" d="M 399.449219 184.253906 L 395.851562 186.804688 C 395.449219 187.09375 354.847656 215.617188 312.71875 225.679688 C 268.464844 236.246094 225.058594 232.457031 224.625 232.414062 L 217.839844 231.785156 C 217.546875 231.757812 217.261719 231.851562 217.042969 232.050781 C 216.828125 232.246094 216.707031 232.523438 216.707031 232.816406 L 216.703125 332.152344 C 216.703125 376.136719 216.703125 436.371094 257.777344 505.03125 C 304.625 583.347656 393.109375 626.84375 396.855469 628.65625 L 399.5625 629.96875 C 399.847656 630.109375 400.183594 630.109375 400.464844 629.96875 L 403.175781 628.660156 C 406.921875 626.84375 495.484375 583.3125 542.320312 505.023438 C 583.394531 436.359375 583.394531 376.125 583.394531 332.140625 L 583.394531 232.804688 C 583.394531 232.511719 583.269531 232.234375 583.054688 232.039062 C 582.839844 231.84375 582.550781 231.746094 582.261719 231.773438 L 575.46875 232.40625 C 575.039062 232.445312 531.628906 236.234375 487.378906 225.667969 C 445.226562 215.601562 404.648438 187.09375 404.242188 186.804688 L 400.648438 184.253906 C 400.289062 184 399.808594 184 399.449219 184.253906 "/>
<path style=" stroke:none;fill-rule:evenodd;fill:rgb(97.254902%,56.862745%,6.666667%);fill-opacity:1;" d="M 313.199219 227.695312 C 355.714844 217.539062 396.640625 188.785156 397.050781 188.496094 C 397.050781 188.496094 399.214844 186.960938 400.050781 186.371094 C 400.882812 186.960938 403.046875 188.496094 403.046875 188.496094 C 403.453125 188.785156 444.359375 217.523438 486.898438 227.683594 C 531.472656 238.328125 575.222656 234.507812 575.660156 234.46875 C 575.660156 234.46875 579.75 234.085938 581.320312 233.941406 C 581.320312 236.160156 581.320312 332.140625 581.320312 332.140625 C 581.320312 375.882812 581.320312 435.789062 540.542969 503.957031 C 494.019531 581.726562 405.996094 624.988281 402.273438 626.792969 C 402.273438 626.792969 400.640625 627.582031 400.015625 627.886719 C 399.386719 627.582031 397.757812 626.792969 397.757812 626.792969 C 394.035156 624.988281 306.089844 581.757812 259.554688 503.96875 C 218.773438 435.800781 218.773438 375.894531 218.773438 332.152344 C 218.773438 332.152344 218.777344 236.171875 218.777344 233.953125 C 220.347656 234.097656 224.433594 234.480469 224.433594 234.480469 C 224.871094 234.519531 268.621094 238.339844 313.199219 227.695312 Z M 313.199219 227.695312 "/>
<path style=" stroke:none;fill-rule:evenodd;fill:rgb(100%,100%,100%);fill-opacity:1;" d="M 562.527344 414.660156 C 556.714844 443.410156 546.042969 470.550781 529.878906 497.578125 C 490.007812 564.226562 415.636719 605.777344 400.015625 613.980469 C 384.40625 605.777344 310.089844 564.238281 270.21875 497.589844 C 254.054688 470.5625 243.382812 443.421875 237.570312 414.675781 C 240.117188 414.675781 559.980469 414.660156 562.527344 414.660156 Z M 562.527344 414.660156 "/>
<path style=" stroke:none;fill-rule:evenodd;fill:url(#linear0);" d="M 316.085938 239.78125 C 353.828125 230.769531 389.257812 208.628906 400.050781 201.476562 C 410.84375 208.628906 446.277344 230.761719 484.011719 239.769531 C 520.101562 248.390625 554.667969 248 568.894531 247.34375 C 568.894531 249.457031 568.894531 332.140625 568.894531 332.140625 C 568.894531 357.261719 568.21875 378.484375 565.050781 400.132812 C 563.230469 400.132812 236.871094 400.167969 235.050781 400.167969 C 231.882812 378.515625 231.203125 357.285156 231.203125 332.152344 C 231.203125 332.152344 231.203125 249.46875 231.203125 247.355469 C 245.429688 248.011719 279.992188 248.402344 316.085938 239.78125 Z M 316.085938 239.78125 "/>
<path style=" stroke:none;fill-rule:evenodd;fill:rgb(0%,0%,0%);fill-opacity:1;" d="M 401.742188 231.605469 C 394.839844 231.605469 391.230469 237.078125 391.082031 237.3125 C 390.921875 237.558594 390.914062 237.867188 391.054688 238.117188 C 391.199219 238.371094 391.472656 238.519531 391.761719 238.507812 C 391.804688 238.507812 395.910156 238.347656 401.128906 239.023438 C 403.40625 239.316406 405.203125 239.84375 406.941406 240.355469 L 411.671875 241.441406 C 414.261719 241.710938 416.738281 241.328125 418.210938 241.023438 L 418.027344 253.214844 C 406.492188 254.632812 401.757812 258.902344 401.558594 259.085938 C 401.453125 259.1875 401.371094 259.3125 401.335938 259.457031 C 401.292969 259.625 400.277344 263.570312 399.761719 269.949219 L 399.25 279.976562 C 398.246094 280.363281 397.480469 280.683594 397.457031 280.695312 C 397.277344 280.773438 397.132812 280.917969 397.054688 281.101562 C 396.976562 281.289062 395.105469 285.78125 393.726562 294.75 C 392.207031 304.628906 392.664062 310.5625 392.683594 310.808594 C 392.707031 311.113281 392.910156 311.375 393.195312 311.476562 C 393.40625 311.554688 393.636719 311.53125 393.824219 311.429688 C 393.582031 312.375 391.847656 319.246094 389.929688 332.035156 L 387.164062 352.414062 C 380.390625 352.351562 374.207031 352.226562 368.535156 352.039062 L 368.0625 332.324219 C 376.648438 332.820312 382.578125 335.09375 382.644531 335.117188 C 382.871094 335.207031 383.125 335.183594 383.332031 335.058594 C 383.539062 334.929688 383.679688 334.714844 383.699219 334.472656 C 383.707031 334.421875 384.21875 329.167969 384.050781 322.808594 C 383.875 316.273438 383.367188 313.164062 383.347656 313.035156 C 383.253906 312.703125 381.460938 307.542969 367.460938 307.210938 L 367.398438 304.574219 C 373.75 305.054688 380.757812 306.820312 380.835938 306.839844 C 381.046875 306.894531 381.269531 306.855469 381.449219 306.738281 C 381.632812 306.621094 381.757812 306.433594 381.792969 306.222656 C 381.820312 306.066406 382.039062 304.507812 381.285156 297.714844 C 380.425781 290.015625 379.410156 287.972656 379.296875 287.761719 C 379.050781 287.363281 376.910156 284.460938 366.90625 284.101562 L 366.273438 257.566406 C 366.265625 257.308594 366.125 257.09375 365.925781 256.957031 L 365.925781 253.097656 C 365.925781 252.8125 365.773438 252.554688 365.527344 252.417969 C 365.28125 252.277344 364.980469 252.285156 364.742188 252.433594 C 364.707031 252.457031 361.320312 254.515625 358.542969 254.054688 L 356.011719 253.554688 C 352.980469 252.921875 349.207031 252.132812 346.6875 252.683594 C 340.859375 253.957031 338.320312 259.097656 338.214844 259.316406 C 338.09375 259.566406 338.105469 259.863281 338.261719 260.097656 C 338.421875 260.324219 338.679688 260.453125 338.957031 260.429688 L 347.640625 259.734375 C 349.238281 259.535156 351.335938 260.292969 353.367188 261.023438 L 356.863281 262.136719 C 359.894531 262.828125 363.132812 262.09375 364.597656 261.675781 L 364.273438 272.707031 C 362.585938 271.125 359.925781 269.3125 356.121094 268.726562 C 349.140625 267.652344 329.535156 271.238281 313.476562 289.171875 C 304.636719 299.046875 300.15625 307.152344 300.160156 313.261719 C 300.160156 318.628906 319.46875 340.644531 325.167969 347.039062 C 313.855469 343.292969 290.695312 332.375 281.261719 327.660156 L 278.042969 326.035156 C 270.683594 322.296875 266.988281 320.417969 265.09375 323.070312 C 265 323.203125 264.949219 323.359375 264.949219 323.519531 C 264.949219 323.570312 264.953125 323.625 264.964844 323.675781 C 265.007812 323.886719 265.136719 324.070312 265.320312 324.183594 L 281.035156 333.769531 L 306.410156 349.042969 C 316.621094 355.09375 322.667969 363.441406 324.792969 366.746094 C 325.992188 368.605469 326.90625 370.515625 327.515625 372.421875 C 328.09375 374.226562 334.464844 374.835938 339.875 375.027344 C 340.871094 376.382812 345.082031 380.964844 356.203125 380.570312 C 358.90625 380.472656 363.609375 378.855469 369.058594 376.984375 C 375.691406 374.707031 383.210938 372.121094 387.558594 372.285156 C 391.851562 372.445312 394.289062 374.316406 396.875 376.292969 C 400.011719 378.699219 403.253906 381.183594 409.753906 380.566406 C 414.273438 380.136719 419.03125 378.492188 423.632812 376.898438 C 429.105469 375.007812 434.273438 373.21875 439.007812 373.320312 C 443.652344 373.417969 446.5625 375.183594 449.378906 376.890625 C 452.09375 378.539062 454.898438 380.242188 459.050781 380.226562 C 466.871094 380.199219 471.355469 378.558594 475.691406 376.976562 C 480.667969 375.15625 485.367188 373.4375 494.878906 374.351562 C 498.589844 374.710938 500.019531 376.367188 501.398438 377.972656 C 503.171875 380.035156 504.847656 381.988281 510.421875 379.828125 C 512.261719 379.117188 512.535156 378.859375 512.882812 377.535156 L 512.960938 377.234375 L 515.894531 367.28125 C 519.539062 355.175781 521.90625 347.117188 521.609375 345.476562 C 520.875 341.441406 515.835938 336.898438 513.59375 336.898438 C 510.707031 336.898438 506.8125 346.46875 505.105469 351.082031 C 502.851562 351.203125 492.199219 351.722656 472.128906 352.113281 L 471.472656 329.867188 C 474.148438 329.75 479.882812 329.769531 488.785156 331.191406 C 501.578125 333.238281 512.015625 336.984375 512.121094 337.023438 C 512.410156 337.128906 512.734375 337.050781 512.945312 336.832031 C 513.160156 336.609375 513.21875 336.28125 513.101562 335.996094 C 513.027344 335.816406 505.714844 318.023438 505.222656 305.882812 C 504.710938 293.34375 507.425781 278.242188 507.453125 278.089844 C 507.503906 277.804688 507.394531 277.511719 507.164062 277.335938 C 506.933594 277.160156 506.621094 277.125 506.359375 277.25 C 506.238281 277.304688 494.300781 282.902344 486.753906 283.738281 C 480.335938 284.453125 472.488281 283.398438 470.082031 283.039062 L 469.746094 271.84375 C 469.746094 271.84375 469.75 271.84375 469.75 271.84375 C 470.617188 271.640625 472.5 271.28125 473.878906 271.628906 L 476.375 272.664062 C 478.292969 273.597656 480.683594 274.757812 484.078125 274.757812 C 490.929688 274.757812 493.242188 268.613281 493.265625 268.550781 C 493.367188 268.265625 493.292969 267.945312 493.078125 267.730469 C 492.863281 267.519531 492.542969 267.453125 492.257812 267.558594 C 492.21875 267.574219 488.195312 269.074219 484.210938 268.382812 C 482.128906 268.019531 480.402344 266.855469 478.730469 265.726562 C 477.390625 264.820312 476.003906 263.882812 474.472656 263.402344 C 470.675781 262.203125 468.824219 263.367188 468.621094 263.503906 C 468.410156 263.644531 468.285156 263.886719 468.285156 264.144531 L 468.285156 265.558594 C 468.132812 265.695312 468.03125 265.886719 468.023438 266.109375 L 465.972656 352.214844 C 454.972656 352.398438 441.496094 352.523438 425.414062 352.550781 L 425.410156 352.410156 C 426.867188 352.050781 428.226562 351.476562 429.632812 350.882812 C 432.804688 349.539062 436.402344 348.019531 442.636719 348.117188 C 453.355469 348.285156 460.527344 351.796875 460.597656 351.832031 C 460.859375 351.960938 461.167969 351.933594 461.402344 351.765625 C 461.636719 351.59375 461.757812 351.3125 461.714844 351.023438 C 461.699219 350.90625 459.980469 339.226562 456.695312 326.09375 C 453.609375 313.753906 451.902344 309.429688 451.828125 309.25 C 451.785156 309.140625 451.714844 309.054688 451.632812 308.976562 C 451.855469 309.109375 452.230469 309.324219 452.238281 309.328125 C 452.472656 309.480469 452.773438 309.496094 453.023438 309.363281 C 453.269531 309.234375 453.429688 308.980469 453.441406 308.699219 C 453.445312 308.460938 453.574219 302.746094 450.121094 291.699219 C 446.980469 281.648438 445.148438 277.929688 445.070312 277.777344 C 444.972656 277.582031 444.800781 277.4375 444.589844 277.375 C 444.570312 277.371094 443.914062 277.207031 443.253906 277.046875 C 443.253906 277.042969 443.253906 277.042969 443.253906 277.039062 C 443.242188 276.804688 442.882812 271.183594 440.980469 264.28125 C 439.089844 257.40625 438.058594 254.960938 438.011719 254.863281 C 437.929688 254.660156 437.761719 254.503906 437.554688 254.433594 C 437.269531 254.332031 430.890625 252.171875 420.742188 252.945312 L 420.128906 239.847656 L 420.300781 233.4375 C 420.304688 233.203125 420.203125 232.980469 420.027344 232.832031 C 419.851562 232.675781 419.617188 232.613281 419.386719 232.652344 C 419.351562 232.660156 415.46875 233.324219 412.488281 233.160156 L 409.003906 232.566406 C 406.953125 232.113281 404.625 231.605469 401.742188 231.605469 Z M 432.8125 274.757812 C 434.605469 274.757812 436.742188 275.421875 438.523438 276.121094 C 436.085938 275.726562 433.019531 275.363281 429.558594 275.183594 C 430.589844 274.949219 431.613281 274.757812 432.8125 274.757812 Z M 411.027344 276.195312 C 411.503906 276.203125 411.992188 276.230469 412.503906 276.273438 C 409.273438 276.878906 406.445312 277.632812 404.085938 278.347656 C 405.421875 277.554688 406.933594 276.789062 408.308594 276.460938 C 409.210938 276.246094 410.097656 276.183594 411.027344 276.195312 Z M 364.15625 276.746094 L 363.941406 284.070312 C 363.644531 284.074219 363.367188 284.070312 363.058594 284.078125 C 349.621094 284.425781 344.453125 289.269531 344.242188 289.476562 C 344.125 289.585938 344.050781 289.730469 344.019531 289.886719 C 343.992188 290.039062 343.3125 293.636719 343.3125 298.148438 C 343.3125 302.621094 343.832031 308.007812 343.835938 308.058594 C 343.859375 308.304688 344 308.527344 344.210938 308.652344 C 344.425781 308.78125 344.6875 308.796875 344.914062 308.699219 C 345.011719 308.660156 354.148438 304.777344 363.347656 304.476562 L 363.261719 307.273438 C 347.921875 307.964844 342.503906 314.464844 342.277344 314.75 C 342.191406 314.859375 342.132812 314.988281 342.113281 315.125 C 342.09375 315.277344 341.585938 318.882812 341.585938 325.761719 L 341.761719 336.835938 C 341.765625 337.105469 341.90625 337.34375 342.132812 337.480469 C 342.363281 337.621094 342.644531 337.625 342.882812 337.507812 C 342.980469 337.457031 352.332031 332.855469 362.53125 332.300781 L 361.960938 351.773438 C 346.589844 351.078125 335.605469 349.851562 328.472656 348.007812 C 328.453125 345.777344 328.289062 318.910156 330.683594 310.617188 C 332.730469 303.527344 341.113281 280.585938 364.15625 276.746094 Z M 438.851562 305.308594 C 444.601562 305.308594 449.597656 307.828125 451.386719 308.839844 C 451.34375 308.820312 451.308594 308.785156 451.257812 308.777344 C 451.152344 308.757812 442.386719 307.105469 429.820312 306.726562 C 430.140625 306.644531 430.46875 306.5625 430.785156 306.480469 C 433.089844 305.878906 435.265625 305.308594 438.851562 305.308594 Z M 408.957031 306.261719 C 411.605469 306.269531 413.328125 306.59375 415.074219 306.941406 C 403.417969 307.683594 397.234375 309.519531 395.191406 310.242188 C 396.695312 309.007812 399.492188 307.066406 402.695312 306.683594 C 405.296875 306.375 407.304688 306.257812 408.957031 306.261719 Z M 404.851562 347.425781 C 410.398438 347.425781 413.820312 349.109375 416.570312 350.585938 L 416.539062 352.566406 C 408.125 352.554688 399.089844 352.515625 389.355469 352.433594 C 391.324219 351.019531 397.035156 347.425781 404.851562 347.425781 Z M 404.851562 347.425781 "/>
<path style=" stroke:none;fill-rule:evenodd;fill:rgb(97.254902%,56.862745%,6.666667%);fill-opacity:1;" d="M 468.886719 295.183594 C 469.644531 320.664062 470.554688 351.457031 470.589844 352.558594 C 469.679688 352.507812 468.351562 352.433594 467.527344 352.390625 C 467.546875 351.410156 468.28125 320.625 468.886719 295.183594 Z M 468.886719 295.183594 "/>
<path style=" stroke:none;fill-rule:evenodd;fill:rgb(97.254902%,56.862745%,6.666667%);fill-opacity:1;" d="M 419.492188 259.394531 C 420.957031 290.6875 423.90625 353.515625 423.96875 354.878906 C 422.761719 354.792969 419.105469 354.542969 418.066406 354.46875 C 418.082031 353.320312 419.019531 290.675781 419.492188 259.394531 Z M 419.492188 259.394531 "/>
<path style=" stroke:none;fill-rule:evenodd;fill:rgb(97.254902%,56.862745%,6.666667%);fill-opacity:1;" d="M 365.417969 286.800781 C 366.09375 315.085938 367.003906 353.066406 367.03125 354.160156 C 366.097656 354.160156 364.382812 354.160156 363.445312 354.160156 C 363.476562 353.0625 364.589844 315.082031 365.417969 286.800781 Z M 365.417969 286.800781 "/>
<path style=" stroke:none;fill-rule:evenodd;fill:rgb(97.254902%,56.862745%,6.666667%);fill-opacity:1;" d="M 420.40625 308.246094 C 436.152344 307.792969 448.347656 309.832031 450.535156 310.222656 C 450.992188 311.480469 452.613281 316.171875 455.1875 326.46875 C 457.820312 337.007812 459.425781 346.488281 459.960938 349.859375 C 457.382812 348.808594 451.175781 346.699219 442.664062 346.5625 C 436.101562 346.460938 432.179688 348.121094 429.027344 349.453125 C 426.78125 350.402344 424.839844 351.226562 422.457031 351.226562 C 421.03125 351.226562 419.625 350.464844 417.84375 349.5 C 415.011719 347.96875 411.140625 345.871094 404.851562 345.871094 C 397.300781 345.871094 391.546875 349.058594 388.949219 350.8125 C 389.355469 347.828125 391.464844 332.265625 391.464844 332.265625 C 393.242188 320.410156 394.90625 313.472656 395.320312 311.84375 C 396.914062 311.253906 404.667969 308.695312 420.40625 308.246094 Z M 420.40625 308.246094 "/>
<path style=" stroke:none;fill-rule:evenodd;fill:rgb(97.254902%,56.862745%,6.666667%);fill-opacity:1;" d="M 422.65625 276.65625 C 433.445312 276.246094 442.136719 278.339844 443.828125 278.78125 C 444.296875 279.8125 446.011719 283.757812 448.640625 292.164062 C 451.101562 300.035156 451.683594 305.074219 451.828125 307.292969 C 449.570312 306.070312 444.546875 303.757812 438.851562 303.757812 C 435.0625 303.757812 432.6875 304.378906 430.390625 304.980469 C 428.046875 305.59375 425.832031 306.171875 422.109375 306.171875 C 419.222656 306.171875 417.457031 305.820312 415.585938 305.453125 C 412.6875 304.878906 409.6875 304.285156 402.511719 305.140625 C 398.878906 305.574219 395.816406 307.699219 394.179688 309.058594 C 394.171875 308.753906 394.160156 308.550781 394.160156 308.160156 C 394.160156 305.535156 394.339844 300.972656 395.261719 294.984375 C 396.496094 286.953125 398.101562 282.699219 398.382812 281.988281 C 399.839844 281.371094 410.242188 277.128906 422.65625 276.65625 Z M 422.65625 276.65625 "/>
<path style=" stroke:none;fill-rule:evenodd;fill:rgb(97.254902%,56.862745%,6.666667%);fill-opacity:1;" d="M 418.402344 254.730469 C 428.789062 253.492188 435.65625 255.46875 436.714844 255.804688 C 437 256.535156 437.9375 259.0625 439.484375 264.691406 C 440.804688 269.488281 441.359375 273.6875 441.578125 275.757812 C 439.644531 274.820312 435.875 273.203125 432.8125 273.203125 C 430.914062 273.203125 429.5 273.5625 427.859375 273.980469 C 426.113281 274.425781 424.136719 274.925781 421.03125 275.105469 C 418.269531 275.261719 416.097656 275.054688 414.179688 274.867188 C 411.941406 274.648438 410.007812 274.460938 407.949219 274.953125 C 405.355469 275.570312 402.507812 277.429688 400.875 278.597656 C 400.992188 276.332031 401.308594 270.074219 401.308594 270.074219 C 401.773438 264.339844 402.636719 260.6875 402.785156 260.085938 C 403.59375 259.425781 408.289062 255.9375 418.402344 254.730469 Z M 418.402344 254.730469 "/>
<path style=" stroke:none;fill-rule:evenodd;fill:rgb(97.254902%,56.862745%,6.666667%);fill-opacity:1;" d="M 401.742188 233.160156 C 404.457031 233.160156 406.695312 233.648438 408.667969 234.082031 L 412.402344 234.710938 C 414.707031 234.839844 417.355469 234.519531 418.71875 234.324219 C 418.6875 235.546875 418.609375 238.539062 418.589844 239.367188 C 417.4375 239.632812 414.609375 240.1875 411.835938 239.894531 L 407.378906 238.867188 C 405.664062 238.363281 403.726562 237.789062 401.324219 237.480469 C 397.941406 237.042969 395.105469 236.953125 393.398438 236.941406 C 394.789062 235.460938 397.601562 233.160156 401.742188 233.160156 Z M 401.742188 233.160156 "/>
<path style=" stroke:none;fill-rule:evenodd;fill:rgb(97.254902%,56.862745%,6.666667%);fill-opacity:1;" d="M 486.925781 285.28125 C 493.351562 284.570312 502.378906 280.738281 505.683594 279.261719 C 505.101562 282.84375 503.601562 292.960938 503.601562 302.628906 C 503.601562 303.746094 503.625 304.855469 503.667969 305.945312 C 504.09375 316.445312 509.261719 330.457031 511.042969 335.019531 C 507.65625 333.902344 499.101562 331.269531 489.03125 329.65625 C 478.746094 328.011719 472.683594 328.195312 470.476562 328.355469 C 470.722656 326.324219 471.21875 320.953125 471.21875 310.746094 C 471.21875 299.527344 470.109375 287.894531 469.765625 284.570312 C 472.5 284.976562 480.441406 286.003906 486.925781 285.28125 Z M 486.925781 285.28125 "/>
<path style=" stroke:none;fill-rule:evenodd;fill:rgb(97.254902%,56.862745%,6.666667%);fill-opacity:1;" d="M 474.003906 264.882812 C 475.324219 265.300781 476.554688 266.132812 477.859375 267.011719 C 479.667969 268.230469 481.539062 269.496094 483.945312 269.914062 C 486.652344 270.382812 489.277344 269.964844 490.964844 269.554688 C 489.929688 271.085938 487.835938 273.203125 484.078125 273.203125 C 481.039062 273.203125 478.921875 272.171875 477.054688 271.265625 L 474.253906 270.121094 C 472.753906 269.746094 470.941406 270.007812 469.835938 270.234375 C 469.835938 268.902344 469.835938 265.394531 469.835938 264.652344 C 470.382812 264.449219 471.683594 264.152344 474.003906 264.882812 Z M 474.003906 264.882812 "/>
<path style=" stroke:none;fill-rule:evenodd;fill:rgb(97.254902%,56.862745%,6.666667%);fill-opacity:1;" d="M 347.019531 254.199219 C 349.210938 253.71875 352.808594 254.46875 355.691406 255.074219 L 358.289062 255.589844 C 360.585938 255.96875 362.984375 255.039062 364.371094 254.367188 C 364.371094 255.972656 364.371094 259.320312 364.371094 260.121094 C 363.167969 260.476562 360.007812 261.261719 357.207031 260.621094 L 353.890625 259.5625 C 351.691406 258.769531 349.414062 257.949219 347.449219 258.191406 C 347.449219 258.191406 342.527344 258.585938 340.433594 258.753906 C 341.476562 257.289062 343.558594 254.957031 347.019531 254.199219 Z M 347.019531 254.199219 "/>
<path style=" stroke:none;fill-rule:evenodd;fill:rgb(97.254902%,56.862745%,6.666667%);fill-opacity:1;" d="M 364.648438 308.761719 C 379.859375 308.4375 381.824219 313.351562 381.847656 313.410156 C 381.847656 313.472656 382.332031 316.59375 382.496094 322.851562 C 382.519531 323.730469 382.53125 324.589844 382.53125 325.414062 C 382.53125 329.003906 382.34375 331.902344 382.234375 333.332031 C 379.839844 332.527344 372.988281 330.542969 363.929688 330.683594 C 354.710938 330.828125 346.195312 334.300781 343.296875 335.605469 C 343.265625 333.726562 343.140625 325.765625 343.140625 325.765625 C 343.140625 319.574219 343.550781 316.15625 343.625 315.574219 C 344.304688 314.824219 349.988281 309.074219 364.648438 308.761719 Z M 364.648438 308.761719 "/>
<path style=" stroke:none;fill-rule:evenodd;fill:rgb(97.254902%,56.862745%,6.666667%);fill-opacity:1;" d="M 363.097656 285.632812 C 375.53125 285.308594 377.9375 288.527344 377.964844 288.5625 C 377.964844 288.574219 378.929688 290.605469 379.738281 297.886719 C 380.195312 301.996094 380.289062 304.09375 380.289062 305.109375 C 377.773438 304.515625 370.390625 302.894531 364.460938 302.894531 C 356.183594 302.894531 348.003906 305.8125 345.292969 306.875 C 345.144531 305.117188 344.867188 301.394531 344.867188 298.148438 C 344.867188 294.234375 345.382812 291.097656 345.5 290.441406 C 346.363281 289.726562 351.472656 285.933594 363.097656 285.632812 Z M 363.097656 285.632812 "/>
<path style=" stroke:none;fill-rule:evenodd;fill:rgb(97.254902%,56.862745%,6.666667%);fill-opacity:1;" d="M 301.714844 313.335938 C 301.714844 313.332031 301.714844 313.328125 301.714844 313.324219 C 301.714844 307.535156 306.0625 299.78125 314.636719 290.207031 C 330.269531 272.746094 349.175781 269.230469 355.882812 270.261719 C 360.472656 270.96875 363.289062 273.734375 364.488281 275.195312 C 347.984375 277.734375 334.832031 290.664062 329.191406 310.1875 C 327.113281 317.378906 326.902344 337.667969 326.902344 345.566406 C 326.902344 346.019531 326.902344 346.300781 326.90625 346.664062 C 316.292969 334.773438 301.714844 317.136719 301.714844 313.335938 Z M 301.714844 313.335938 "/>
<path style=" stroke:none;fill-rule:evenodd;fill:rgb(97.254902%,56.862745%,6.666667%);fill-opacity:1;" d="M 277.339844 327.417969 L 280.570312 329.046875 C 290.59375 334.058594 316.101562 346.070312 326.613281 349.121094 C 337.136719 352.175781 356.726562 353.722656 388.273438 353.984375 C 470.203125 354.667969 505.355469 352.625 505.699219 352.605469 C 506.007812 352.585938 506.277344 352.386719 506.382812 352.097656 C 509.042969 344.824219 512.414062 338.449219 513.59375 338.449219 C 514.882812 338.449219 519.441406 342.246094 520.078125 345.753906 C 520.324219 347.167969 516.765625 359.003906 514.40625 366.832031 L 511.460938 376.824219 L 511.378906 377.144531 C 511.191406 377.863281 511.191406 377.863281 509.859375 378.378906 C 505.308594 380.140625 504.222656 378.878906 502.574219 376.960938 C 501.140625 375.296875 499.359375 373.222656 495.027344 372.804688 C 485.164062 371.859375 480.304688 373.632812 475.15625 375.515625 C 470.945312 377.054688 466.589844 378.644531 459.046875 378.671875 C 455.332031 378.683594 452.832031 377.167969 450.183594 375.5625 C 447.195312 373.75 444.105469 371.875 439.042969 371.765625 C 434.027344 371.660156 428.484375 373.578125 423.125 375.433594 C 418.609375 376.992188 413.941406 378.609375 409.609375 379.019531 C 403.714844 379.578125 400.851562 377.386719 397.820312 375.0625 C 395.15625 373.023438 392.402344 370.914062 387.617188 370.730469 C 382.980469 370.558594 375.316406 373.191406 368.554688 375.515625 C 363.445312 377.269531 358.621094 378.929688 356.144531 379.015625 C 344.402344 379.4375 340.996094 373.933594 340.960938 373.878906 C 340.828125 373.648438 340.582031 373.503906 340.316406 373.492188 C 335.351562 373.332031 329.605469 372.644531 328.960938 371.878906 C 328.34375 369.910156 327.371094 367.878906 326.101562 365.90625 C 323.917969 362.507812 317.699219 353.929688 307.203125 347.707031 L 281.847656 332.445312 C 281.847656 332.445312 269.289062 324.785156 267.292969 323.566406 C 268.964844 323.230469 272.28125 324.851562 277.339844 327.417969 Z M 277.339844 327.417969 "/>
<path style=" stroke:none;fill-rule:evenodd;fill:rgb(0.392157%,30.196078%,63.921569%);fill-opacity:1;" d="M 262.617188 390.34375 C 262.617188 390.265625 268.117188 385.679688 281.257812 385.679688 L 281.332031 385.679688 C 294.46875 385.679688 295.910156 392.804688 307.605469 392.804688 L 307.640625 392.804688 C 319.335938 392.804688 320.78125 385.679688 333.917969 385.679688 L 333.980469 385.691406 C 347.121094 385.691406 348.5625 392.816406 360.257812 392.816406 L 360.292969 392.816406 C 371.988281 392.816406 373.433594 385.691406 386.570312 385.691406 L 386.644531 385.691406 C 399.78125 385.691406 401.226562 392.816406 412.917969 392.816406 L 412.957031 392.816406 C 424.648438 392.816406 426.09375 385.691406 439.230469 385.691406 L 439.277344 385.703125 C 452.414062 385.703125 453.855469 392.824219 465.550781 392.824219 L 465.585938 392.824219 C 477.28125 392.824219 478.726562 385.703125 491.863281 385.703125 L 491.9375 385.703125 C 505.074219 385.703125 506.519531 392.824219 518.210938 392.824219 L 518.246094 392.824219 C 529.941406 392.824219 536.722656 383.941406 541.210938 384.582031 C 541.210938 384.582031 538.96875 382.902344 534.308594 384.582031 C 530.882812 385.816406 527.09375 387.703125 521.832031 387.703125 L 521.792969 387.703125 C 510.15625 387.703125 508.71875 379.625 495.648438 379.625 L 495.574219 379.625 C 482.5 379.625 481.0625 387.703125 469.429688 387.703125 L 469.390625 387.703125 C 457.753906 387.703125 456.320312 379.625 443.246094 379.625 L 443.199219 379.613281 C 430.128906 379.613281 428.691406 387.691406 417.054688 387.691406 L 417.015625 387.691406 C 405.382812 387.691406 403.941406 379.613281 390.871094 379.613281 L 390.796875 379.613281 C 377.726562 379.613281 376.289062 387.691406 364.652344 387.691406 L 364.617188 387.691406 C 352.980469 387.691406 351.542969 379.613281 338.46875 379.613281 L 338.40625 379.601562 C 325.332031 379.601562 323.898438 387.679688 312.261719 387.679688 L 312.222656 387.679688 C 300.585938 387.679688 299.148438 379.601562 286.078125 379.601562 L 286.003906 379.601562 C 277.425781 379.601562 273.726562 381.632812 269.261719 384.421875 C 263.265625 388.175781 262.617188 390.34375 262.617188 390.34375 Z M 262.617188 390.34375 "/>
<path style=" stroke:none;fill-rule:evenodd;fill:rgb(0.392157%,30.196078%,63.921569%);fill-opacity:1;" d="M 257.441406 379.988281 C 257.441406 379.90625 262.941406 375.324219 276.078125 375.324219 L 276.152344 375.324219 C 289.289062 375.324219 290.734375 382.449219 302.425781 382.449219 L 302.464844 382.449219 C 314.160156 382.449219 315.601562 375.324219 328.738281 375.324219 L 328.804688 375.335938 C 341.941406 375.335938 343.386719 382.457031 355.078125 382.457031 L 355.117188 382.457031 C 366.8125 382.457031 368.253906 375.335938 381.390625 375.335938 L 381.46875 375.335938 C 394.601562 375.335938 396.046875 382.457031 407.742188 382.457031 L 407.777344 382.457031 C 419.46875 382.457031 420.914062 375.335938 434.054688 375.335938 L 434.097656 375.347656 C 447.234375 375.347656 448.679688 382.46875 460.375 382.46875 L 460.410156 382.46875 C 472.101562 382.46875 473.546875 375.347656 486.6875 375.347656 L 486.757812 375.347656 C 499.894531 375.347656 501.339844 382.46875 513.035156 382.46875 L 513.070312 382.46875 C 524.765625 382.46875 531.546875 373.585938 536.03125 374.226562 C 536.03125 374.226562 533.789062 372.542969 529.128906 374.226562 C 525.707031 375.460938 521.917969 377.347656 516.652344 377.347656 L 516.617188 377.347656 C 504.980469 377.347656 503.542969 369.269531 490.472656 369.269531 L 490.394531 369.269531 C 477.324219 369.269531 475.886719 377.347656 464.25 377.347656 L 464.214844 377.347656 C 452.578125 377.347656 451.140625 369.269531 438.066406 369.269531 L 438.023438 369.257812 C 424.949219 369.257812 423.511719 377.335938 411.878906 377.335938 L 411.839844 377.335938 C 400.207031 377.335938 398.765625 369.257812 385.695312 369.257812 L 385.621094 369.257812 C 372.546875 369.257812 371.113281 377.335938 359.476562 377.335938 L 359.4375 377.335938 C 347.804688 377.335938 346.367188 369.257812 333.292969 369.257812 L 333.226562 369.246094 C 320.15625 369.246094 318.71875 377.324219 307.082031 377.324219 L 307.042969 377.324219 C 295.410156 377.324219 293.972656 369.246094 280.898438 369.246094 L 280.824219 369.246094 C 272.25 369.246094 268.550781 371.273438 264.085938 374.066406 C 258.089844 377.820312 257.441406 379.988281 257.441406 379.988281 Z M 257.441406 379.988281 "/>
<path style=" stroke:none;fill-rule:nonzero;fill:rgb(0%,0%,0%);fill-opacity:1;" d="M 325.382812 477.863281 C 320.878906 478.304688 317.527344 479.09375 317.386719 479.125 C 317.121094 479.191406 316.890625 479.445312 316.808594 479.703125 C 316.722656 479.960938 316.757812 480.304688 316.9375 480.511719 C 317.027344 480.621094 319.28125 483.230469 322.660156 486.234375 C 326.046875 489.246094 331.109375 492.492188 331.320312 492.628906 C 331.394531 492.675781 331.476562 492.710938 331.5625 492.730469 C 334.882812 493.507812 345.824219 495.800781 347.304688 492.640625 L 349.0625 487.257812 C 349.746094 483.738281 339.542969 479.160156 336.402344 477.839844 C 336.320312 477.804688 336.234375 477.785156 336.144531 477.777344 C 335.894531 477.765625 329.890625 477.417969 325.382812 477.863281 "/>
<path style=" stroke:none;fill-rule:nonzero;fill:rgb(0%,0%,0%);fill-opacity:1;" d="M 433.914062 547.894531 L 429.328125 551.222656 C 426.707031 553.667969 432.269531 563.367188 434.035156 566.28125 C 434.082031 566.355469 434.140625 566.421875 434.207031 566.480469 C 434.402344 566.640625 439.058594 570.449219 442.964844 572.742188 C 446.867188 575.027344 450.042969 576.363281 450.175781 576.417969 C 450.425781 576.523438 450.765625 576.449219 450.984375 576.292969 C 451.203125 576.132812 451.375 575.832031 451.351562 575.5625 C 451.34375 575.417969 451.054688 571.984375 450.085938 567.566406 C 449.117188 563.140625 446.933594 557.539062 446.839844 557.300781 C 446.804688 557.21875 446.761719 557.144531 446.703125 557.078125 C 444.476562 554.496094 436.96875 546.210938 433.914062 547.894531 "/>
<path style=" stroke:none;fill-rule:nonzero;fill:rgb(0%,0%,0%);fill-opacity:1;" d="M 463.285156 476.90625 C 463.199219 476.914062 463.113281 476.933594 463.03125 476.96875 C 459.886719 478.289062 449.6875 482.867188 450.347656 486.292969 L 452.089844 491.679688 C 453.609375 494.929688 464.550781 492.636719 467.867188 491.859375 C 467.957031 491.839844 468.035156 491.804688 468.113281 491.757812 C 468.324219 491.621094 473.386719 488.375 476.769531 485.363281 C 480.152344 482.359375 482.402344 479.75 482.496094 479.640625 C 482.675781 479.4375 482.710938 479.089844 482.625 478.832031 C 482.542969 478.574219 482.308594 478.320312 482.046875 478.257812 C 481.90625 478.222656 478.554688 477.433594 474.054688 476.992188 C 469.542969 476.546875 463.539062 476.894531 463.285156 476.90625 "/>
<path style=" stroke:none;fill-rule:nonzero;fill:rgb(0%,0%,0%);fill-opacity:1;" d="M 398.449219 419.347656 C 398.371094 419.472656 396.585938 422.417969 394.773438 426.558594 C 392.957031 430.710938 391.433594 436.527344 391.367188 436.773438 C 391.347656 436.859375 391.339844 436.945312 391.347656 437.035156 C 391.632812 440.429688 392.832031 451.546875 396.296875 451.980469 L 401.960938 451.988281 C 405.519531 451.546875 406.71875 440.429688 407.003906 437.035156 C 407.011719 436.945312 407.003906 436.859375 406.980469 436.773438 C 406.917969 436.527344 405.390625 430.710938 403.574219 426.558594 C 401.765625 422.417969 399.980469 419.472656 399.90625 419.347656 C 399.761719 419.117188 399.449219 418.976562 399.175781 418.976562 C 398.90625 418.976562 398.589844 419.117188 398.449219 419.347656 "/>
<path style=" stroke:none;fill-rule:nonzero;fill:rgb(0%,0%,0%);fill-opacity:1;" d="M 353.234375 557.398438 C 353.175781 557.464844 353.128906 557.539062 353.097656 557.621094 C 353.007812 557.859375 350.820312 563.460938 349.851562 567.886719 C 348.882812 572.304688 348.59375 575.734375 348.582031 575.878906 C 348.5625 576.148438 348.734375 576.449219 348.953125 576.609375 C 349.171875 576.769531 349.511719 576.839844 349.761719 576.734375 C 349.894531 576.679688 353.070312 575.347656 356.972656 573.058594 C 360.878906 570.769531 365.535156 566.960938 365.730469 566.796875 C 365.796875 566.742188 365.855469 566.675781 365.902344 566.601562 C 367.667969 563.683594 373.230469 553.984375 370.683594 551.601562 L 366.105469 548.265625 C 362.96875 546.53125 355.460938 554.816406 353.234375 557.398438 "/>
<path style=" stroke:none;fill-rule:nonzero;fill:rgb(32.156863%,74.901961%,21.960784%);fill-opacity:1;" d="M 325.53125 479.410156 C 329.703125 478.996094 335.316406 479.289062 335.917969 479.324219 C 341.65625 481.75 347.570312 485.25 347.570312 486.769531 C 347.570312 486.804688 347.566406 486.839844 347.558594 486.871094 L 345.863281 492.074219 C 345.269531 493.328125 338.25 492.683594 332.042969 491.242188 C 331.441406 490.859375 326.789062 487.824219 323.691406 485.074219 C 321.503906 483.128906 319.847656 481.394531 318.925781 480.390625 C 320.261719 480.125 322.621094 479.695312 325.53125 479.410156 Z M 325.53125 479.410156 "/>
<path style=" stroke:none;fill-rule:nonzero;fill:rgb(32.156863%,74.901961%,21.960784%);fill-opacity:1;" d="M 430.078125 553.21875 C 430.078125 552.84375 430.15625 552.566406 430.316406 552.417969 L 434.746094 549.203125 C 435.964844 548.539062 441.265625 553.179688 445.441406 557.996094 C 445.695312 558.652344 447.679688 563.851562 448.570312 567.898438 C 449.199219 570.757812 449.515625 573.132812 449.675781 574.488281 C 448.433594 573.917969 446.277344 572.882812 443.75 571.398438 C 440.183594 569.308594 435.863281 565.824219 435.304688 565.367188 C 432.507812 560.726562 430.078125 555.355469 430.078125 553.21875 Z M 430.078125 553.21875 "/>
<path style=" stroke:none;fill-rule:nonzero;fill:rgb(32.156863%,74.901961%,21.960784%);fill-opacity:1;" d="M 473.902344 478.535156 C 476.816406 478.824219 479.171875 479.253906 480.507812 479.523438 C 479.582031 480.523438 477.929688 482.257812 475.738281 484.203125 C 472.644531 486.953125 467.988281 489.988281 467.390625 490.375 C 461.179688 491.816406 454.164062 492.457031 453.53125 491.113281 L 451.847656 485.90625 C 451.84375 485.878906 451.839844 485.851562 451.839844 485.820312 C 451.839844 484.394531 457.761719 480.886719 463.515625 478.453125 C 464.117188 478.417969 469.726562 478.125 473.898438 478.535156 Z M 473.902344 478.535156 "/>
<path style=" stroke:none;fill-rule:nonzero;fill:rgb(32.156863%,74.901961%,21.960784%);fill-opacity:1;" d="M 396.195312 427.183594 C 397.371094 424.5 398.507812 422.394531 399.175781 421.203125 C 399.84375 422.394531 400.980469 424.5 402.152344 427.183594 C 403.8125 430.980469 405.261719 436.351562 405.445312 437.03125 C 404.894531 443.382812 403.335938 450.253906 401.863281 450.441406 L 396.394531 450.433594 C 395.011719 450.253906 393.457031 443.382812 392.90625 437.03125 C 393.089844 436.351562 394.535156 430.980469 396.195312 427.183594 Z M 396.195312 427.183594 "/>
<path style=" stroke:none;fill-rule:nonzero;fill:rgb(32.156863%,74.901961%,21.960784%);fill-opacity:1;" d="M 365.273438 549.574219 L 369.695312 552.796875 C 369.839844 552.929688 369.90625 553.179688 369.90625 553.519531 C 369.90625 555.570312 367.457031 561.003906 364.636719 565.6875 C 364.074219 566.144531 359.757812 569.628906 356.1875 571.71875 C 353.660156 573.199219 351.503906 574.238281 350.265625 574.804688 C 350.421875 573.453125 350.742188 571.078125 351.367188 568.21875 C 352.253906 564.179688 354.230469 559 354.492188 558.320312 C 358.667969 553.503906 363.972656 548.859375 365.273438 549.574219 Z M 365.273438 549.574219 "/>
<path style=" stroke:none;fill-rule:nonzero;fill:rgb(93.72549%,17.647059%,17.647059%);fill-opacity:1;" d="M 399.324219 491.125 C 399.5 482.324219 399.242188 466.742188 399.113281 451.167969 C 399.027344 441.226562 396.960938 439.648438 391.730469 436.203125 C 387.332031 433.300781 379.039062 433.523438 374.125 436.796875 C 370.242188 439.386719 366.738281 445.847656 359.625 451.039062 C 351.46875 456.992188 342.148438 460.746094 338.523438 464.761719 C 333.609375 470.199219 333.605469 477.1875 336.378906 481.765625 C 338.835938 485.828125 341.503906 486.371094 350.046875 489.226562 C 363.554688 493.746094 378.316406 498.742188 385.863281 501.136719 C 400.535156 505.796875 397.300781 502.5625 397.300781 502.5625 C 397.300781 502.5625 399.03125 506.308594 399.324219 491.125 Z M 399.324219 491.125 "/>
<path style=" stroke:none;fill-rule:nonzero;fill:rgb(93.72549%,17.647059%,17.647059%);fill-opacity:1;" d="M 385.242188 501.9375 C 376.925781 499.054688 362.027344 494.484375 347.175781 489.792969 C 337.695312 486.800781 335.554688 488.28125 330.660156 492.1875 C 326.542969 495.476562 324.191406 503.433594 325.785156 509.117188 C 327.046875 513.609375 332.109375 518.941406 334.851562 527.304688 C 337.992188 536.902344 338.683594 546.929688 341.378906 551.617188 C 345.035156 557.96875 351.679688 560.136719 356.890625 558.914062 C 361.511719 557.828125 362.851562 555.460938 368.210938 548.21875 C 376.683594 536.769531 385.992188 524.273438 390.605469 517.835938 C 399.570312 505.320312 395.492188 507.398438 395.492188 507.398438 C 395.492188 507.398438 399.59375 506.910156 385.242188 501.9375 Z M 385.242188 501.9375 "/>
<path style=" stroke:none;fill-rule:nonzero;fill:rgb(93.72549%,17.647059%,17.647059%);fill-opacity:1;" d="M 391.191406 518.714844 C 385.878906 525.734375 376.925781 538.492188 367.878906 551.167969 C 362.101562 559.257812 362.847656 561.753906 365.054688 567.613281 C 366.910156 572.546875 373.746094 577.242188 379.644531 577.480469 C 384.308594 577.667969 390.941406 574.5 399.746094 574.480469 C 409.847656 574.457031 419.59375 576.898438 424.882812 575.78125 C 432.054688 574.269531 436.167969 568.621094 436.617188 563.285156 C 437.015625 558.554688 435.175781 556.550781 429.945312 549.214844 C 421.675781 537.621094 412.667969 524.90625 407.96875 518.527344 C 398.839844 506.132812 399.554688 510.65625 399.554688 510.65625 C 399.554688 510.65625 400.355469 506.605469 391.191406 518.714844 Z M 391.191406 518.714844 "/>
<path style=" stroke:none;fill-rule:nonzero;fill:rgb(93.72549%,17.647059%,17.647059%);fill-opacity:1;" d="M 409.039062 518.078125 C 414.074219 525.300781 423.441406 537.753906 432.703125 550.277344 C 438.613281 558.269531 441.214844 558.332031 447.464844 558.046875 C 452.734375 557.804688 459.3125 552.753906 461.359375 547.214844 C 462.980469 542.839844 462.019531 535.550781 464.71875 527.171875 C 467.820312 517.558594 473.152344 509.042969 473.726562 503.667969 C 474.503906 496.378906 470.402344 490.722656 465.46875 488.648438 C 461.089844 486.804688 458.613281 487.9375 450.023438 490.644531 C 436.4375 494.929688 421.5625 499.566406 414.046875 502.0625 C 399.4375 506.914062 403.957031 507.632812 403.957031 507.632812 C 403.957031 507.632812 400.355469 505.617188 409.039062 518.078125 Z M 409.039062 518.078125 "/>
<path style=" stroke:none;fill-rule:nonzero;fill:rgb(93.72549%,17.647059%,17.647059%);fill-opacity:1;" d="M 414.046875 500.953125 C 422.472656 498.394531 437.210938 493.335938 451.980469 488.398438 C 461.414062 485.25 462.273438 482.792969 463.933594 476.757812 C 465.332031 471.675781 462.5625 463.855469 457.929688 460.195312 C 454.265625 457.300781 447.039062 455.964844 439.90625 450.808594 C 431.722656 444.890625 425.269531 437.183594 420.332031 434.976562 C 413.640625 431.988281 406.996094 434.140625 403.496094 438.191406 C 400.390625 441.785156 400.703125 444.492188 400.625 453.496094 C 400.5 467.742188 400.3125 483.320312 400.363281 491.242188 C 400.464844 506.636719 402.542969 502.554688 402.542969 502.554688 C 402.542969 502.554688 399.515625 505.363281 414.046875 500.953125 Z M 414.046875 500.953125 "/>
<path style=" stroke:none;fill-rule:nonzero;fill:rgb(0%,0%,0%);fill-opacity:1;" d="M 384.339844 458.785156 C 382.921875 459.636719 381.578125 461.082031 380.027344 462.757812 C 378.097656 464.835938 375.914062 467.191406 372.921875 469.160156 C 370.09375 471.019531 367.160156 472.492188 364.566406 473.792969 C 361.375 475.394531 358.617188 476.773438 357 478.414062 C 352.679688 482.789062 353.582031 488.105469 355.664062 491.332031 C 355.894531 491.691406 356.375 491.792969 356.738281 491.5625 C 357.097656 491.328125 357.199219 490.847656 356.964844 490.488281 C 355.113281 487.613281 354.4375 483.21875 358.109375 479.503906 C 359.542969 478.050781 362.195312 476.71875 365.265625 475.179688 C 367.894531 473.863281 370.875 472.371094 373.777344 470.457031 C 376.925781 468.382812 379.277344 465.851562 381.164062 463.8125 C 382.636719 462.226562 383.910156 460.855469 385.140625 460.117188 C 388.769531 457.945312 395.597656 457.714844 398.667969 459.664062 C 399.027344 459.894531 399.511719 459.789062 399.738281 459.425781 C 399.96875 459.066406 399.863281 458.585938 399.5 458.355469 C 395.898438 456.066406 388.53125 456.277344 384.339844 458.785156 Z M 384.339844 458.785156 "/>
<path style=" stroke:none;fill-rule:nonzero;fill:rgb(0%,0%,0%);fill-opacity:1;" d="M 373.695312 436.152344 C 371.890625 437.355469 370.210938 439.296875 368.265625 441.546875 C 365.828125 444.371094 363.0625 447.566406 359.167969 450.410156 C 355.539062 453.058594 351.625 455.300781 348.171875 457.277344 C 343.800781 459.777344 340.027344 461.9375 337.949219 464.238281 C 332.566406 470.203125 333.015625 477.714844 335.714844 482.167969 C 338.089844 486.09375 340.65625 486.941406 347.527344 489.210938 L 349.800781 489.964844 L 359.367188 493.171875 L 385.628906 501.878906 C 396.238281 505.25 397.6875 504.605469 398.214844 503.738281 C 398.234375 503.707031 398.226562 503.675781 398.242188 503.644531 C 398.976562 503.347656 399.890625 501.914062 400.101562 491.140625 L 400.003906 463.347656 L 399.886719 451.160156 C 399.804688 440.992188 397.59375 439.136719 392.160156 435.554688 C 387.453125 432.453125 378.824219 432.730469 373.695312 436.152344 M 386.097656 500.398438 L 359.863281 491.699219 L 350.292969 488.492188 L 348.015625 487.734375 C 341.359375 485.539062 339.121094 484.796875 337.042969 481.363281 C 334.632812 477.386719 334.25 470.652344 339.101562 465.28125 C 341.015625 463.160156 344.6875 461.058594 348.941406 458.625 C 352.429688 456.628906 356.386719 454.363281 360.085938 451.664062 C 364.121094 448.714844 367.070312 445.304688 369.441406 442.5625 C 371.3125 440.398438 372.925781 438.53125 374.558594 437.445312 C 379.148438 434.382812 387.128906 434.101562 391.304688 436.851562 C 396.21875 440.089844 398.253906 441.429688 398.335938 451.171875 L 398.453125 463.363281 L 398.546875 491.113281 C 398.402344 498.625 397.90625 501.097656 397.617188 501.917969 C 397.371094 501.796875 397.089844 501.761719 396.855469 501.925781 C 396.640625 502.074219 396.523438 502.316406 396.523438 502.5625 C 396.523438 502.664062 396.546875 502.769531 396.589844 502.867188 C 395.820312 502.933594 393.496094 502.75 386.097656 500.398438 M 397.964844 502.269531 C 397.996094 502.277344 398.042969 502.292969 398.042969 502.292969 C 398.121094 502.417969 398.160156 502.554688 398.160156 502.6875 C 398.101562 502.539062 398.058594 502.390625 397.96875 502.269531 "/>
<path style=" stroke:none;fill-rule:nonzero;fill:rgb(0%,0%,0%);fill-opacity:1;" d="M 382.113281 482.394531 C 381.773438 482.65625 381.703125 483.140625 381.960938 483.480469 L 396.980469 503.332031 C 397.238281 503.675781 397.726562 503.742188 398.070312 503.484375 C 398.410156 503.226562 398.476562 502.738281 398.21875 502.398438 L 383.203125 482.546875 C 382.941406 482.203125 382.457031 482.136719 382.113281 482.394531 Z M 382.113281 482.394531 "/>
<path style=" stroke:none;fill-rule:nonzero;fill:rgb(0%,0%,0%);fill-opacity:1;" d="M 349.855469 506.195312 C 350.226562 507.808594 351.1875 509.53125 352.296875 511.523438 C 353.679688 514 355.242188 516.804688 356.195312 520.261719 C 357.089844 523.527344 357.582031 526.769531 358.015625 529.636719 C 358.554688 533.167969 359.015625 536.21875 360.074219 538.261719 C 362.898438 543.722656 368.234375 544.511719 371.945312 543.527344 C 372.359375 543.417969 372.605469 542.992188 372.496094 542.574219 C 372.386719 542.160156 371.960938 541.914062 371.546875 542.023438 C 368.242188 542.902344 363.851562 542.1875 361.453125 537.546875 C 360.511719 535.730469 360.066406 532.800781 359.554688 529.402344 C 359.113281 526.496094 358.613281 523.203125 357.691406 519.847656 C 356.691406 516.214844 355.007812 513.195312 353.65625 510.769531 C 352.601562 508.878906 351.691406 507.246094 351.371094 505.847656 C 350.421875 501.722656 352.316406 495.160156 355.117188 492.84375 C 355.449219 492.570312 355.496094 492.078125 355.222656 491.75 C 354.949219 491.417969 354.460938 491.371094 354.128906 491.644531 C 350.839844 494.363281 348.765625 501.4375 349.855469 506.195312 Z M 349.855469 506.195312 "/>
<path style=" stroke:none;fill-rule:nonzero;fill:rgb(0%,0%,0%);fill-opacity:1;" d="M 325.039062 509.328125 C 325.625 511.414062 326.953125 513.613281 328.496094 516.15625 C 330.421875 519.347656 332.609375 522.964844 334.113281 527.546875 C 335.507812 531.816406 336.429688 536.234375 337.242188 540.128906 C 338.269531 545.058594 339.160156 549.3125 340.707031 552.003906 C 344.710938 558.964844 351.996094 560.859375 357.066406 559.667969 C 361.53125 558.621094 363.132812 556.441406 367.414062 550.609375 L 368.835938 548.679688 L 374.839844 540.574219 L 391.238281 518.289062 C 397.71875 509.238281 397.554688 507.660156 396.894531 506.890625 C 396.871094 506.863281 396.839844 506.863281 396.816406 506.835938 C 396.757812 506.046875 395.675781 504.734375 385.5 501.203125 L 359.035156 492.707031 L 347.410156 489.054688 C 337.710938 485.992188 335.261719 487.519531 330.175781 491.582031 C 325.773438 495.097656 323.371094 503.390625 325.039062 509.328125 M 389.972656 517.382812 L 373.59375 539.648438 L 367.585938 547.757812 L 366.164062 549.691406 C 362.015625 555.339844 360.621094 557.242188 356.710938 558.15625 C 352.183594 559.21875 345.664062 557.503906 342.054688 551.226562 C 340.628906 548.753906 339.765625 544.609375 338.765625 539.8125 C 337.941406 535.875 337.011719 531.414062 335.589844 527.066406 C 334.03125 522.3125 331.695312 518.453125 329.824219 515.351562 C 328.34375 512.90625 327.066406 510.789062 326.535156 508.90625 C 325.042969 503.59375 327.242188 495.914062 331.144531 492.792969 C 335.742188 489.121094 337.648438 487.601562 346.9375 490.535156 L 358.570312 494.1875 C 358.570312 494.1875 384.988281 502.671875 384.988281 502.671875 C 392.089844 505.132812 394.289062 506.371094 394.980469 506.894531 C 394.789062 507.09375 394.664062 507.351562 394.75 507.625 C 394.824219 507.875 395.019531 508.0625 395.253906 508.136719 C 395.351562 508.167969 395.457031 508.179688 395.566406 508.167969 C 395.390625 508.921875 394.496094 511.070312 389.972656 517.382812 M 395.421875 506.671875 C 395.4375 506.648438 395.46875 506.609375 395.46875 506.609375 C 395.613281 506.570312 395.75 506.578125 395.878906 506.617188 C 395.71875 506.632812 395.566406 506.621094 395.421875 506.671875 "/>
<path style=" stroke:none;fill-rule:nonzero;fill:rgb(0%,0%,0%);fill-opacity:1;" d="M 395.621094 506.472656 L 372.097656 514.621094 C 371.695312 514.761719 371.480469 515.203125 371.621094 515.609375 C 371.761719 516.011719 372.203125 516.230469 372.609375 516.085938 L 396.128906 507.941406 C 396.535156 507.800781 396.75 507.355469 396.609375 506.953125 C 396.46875 506.546875 396.023438 506.332031 395.621094 506.472656 Z M 395.621094 506.472656 "/>
<path style=" stroke:none;fill-rule:nonzero;fill:rgb(0%,0%,0%);fill-opacity:1;" d="M 384.308594 553.683594 C 385.957031 553.832031 387.890625 553.449219 390.128906 553.007812 C 392.910156 552.460938 396.0625 551.839844 399.644531 552.003906 C 403.023438 552.160156 406.265625 552.695312 409.121094 553.167969 C 412.648438 553.75 415.691406 554.253906 417.957031 553.878906 C 424.027344 552.878906 426.425781 548.046875 426.636719 544.214844 C 426.660156 543.785156 426.332031 543.417969 425.902344 543.394531 C 425.472656 543.371094 425.109375 543.699219 425.085938 544.128906 C 424.898438 547.542969 422.859375 551.496094 417.707031 552.34375 C 415.691406 552.675781 412.765625 552.195312 409.375 551.636719 C 406.472656 551.15625 403.183594 550.613281 399.714844 550.453125 C 395.949219 550.28125 392.554688 550.949219 389.828125 551.484375 C 387.707031 551.902344 385.871094 552.265625 384.441406 552.136719 C 380.230469 551.765625 374.570312 547.9375 373.234375 544.554688 C 373.074219 544.15625 372.625 543.960938 372.226562 544.117188 C 371.828125 544.273438 371.632812 544.726562 371.789062 545.125 C 373.359375 549.09375 379.441406 553.253906 384.308594 553.683594 Z M 384.308594 553.683594 "/>
<path style=" stroke:none;fill-rule:nonzero;fill:rgb(0%,0%,0%);fill-opacity:1;" d="M 379.613281 578.257812 C 381.78125 578.34375 384.285156 577.757812 387.179688 577.082031 C 390.808594 576.234375 394.925781 575.269531 399.75 575.257812 C 404.238281 575.246094 408.726562 575.738281 412.683594 576.167969 C 417.6875 576.714844 422.007812 577.183594 425.042969 576.542969 C 432.90625 574.886719 436.957031 568.542969 437.390625 563.351562 C 437.777344 558.78125 436.195312 556.585938 431.972656 550.710938 L 430.574219 548.765625 L 424.722656 540.546875 L 408.59375 518.066406 C 401.992188 509.105469 400.441406 508.773438 399.503906 509.164062 C 399.472656 509.179688 399.460938 509.207031 399.429688 509.222656 C 398.660156 509.035156 397.074219 509.65625 390.574219 518.246094 L 374.3125 540.789062 L 367.246094 550.714844 C 361.339844 558.992188 362.035156 561.792969 364.324219 567.886719 C 366.308594 573.160156 373.457031 578.007812 379.613281 578.257812 M 407.34375 518.988281 L 423.457031 541.449219 L 429.3125 549.667969 L 430.710938 551.617188 C 434.800781 557.308594 436.179688 559.222656 435.84375 563.222656 C 435.453125 567.859375 431.808594 573.53125 424.722656 575.023438 C 421.929688 575.613281 417.722656 575.152344 412.851562 574.621094 C 408.851562 574.1875 404.324219 573.695312 399.742188 573.703125 C 394.742188 573.71875 390.351562 574.742188 386.824219 575.570312 C 384.039062 576.21875 381.632812 576.78125 379.679688 576.703125 C 374.164062 576.480469 367.539062 572.019531 365.78125 567.339844 C 363.707031 561.832031 362.851562 559.550781 368.511719 551.621094 L 375.578125 541.6875 C 375.578125 541.6875 391.8125 519.183594 391.8125 519.183594 C 396.347656 513.191406 398.203125 511.480469 398.917969 510.984375 C 399.046875 511.230469 399.25 511.425781 399.539062 511.429688 C 399.800781 511.4375 400.035156 511.308594 400.183594 511.113281 C 400.242188 511.027344 400.285156 510.929688 400.308594 510.824219 C 400.96875 511.222656 402.738281 512.734375 407.34375 518.988281 M 398.839844 510.5 C 398.824219 510.472656 398.796875 510.433594 398.796875 510.433594 C 398.800781 510.285156 398.855469 510.15625 398.929688 510.046875 C 398.894531 510.203125 398.839844 510.34375 398.839844 510.5 "/>
<path style=" stroke:none;fill-rule:nonzero;fill:rgb(0%,0%,0%);fill-opacity:1;" d="M 399.472656 509.457031 C 399.042969 509.464844 398.703125 509.820312 398.710938 510.246094 L 399.191406 535.132812 C 399.203125 535.5625 399.554688 535.902344 399.984375 535.894531 C 400.414062 535.886719 400.753906 535.53125 400.746094 535.101562 L 400.265625 510.214844 C 400.253906 509.789062 399.898438 509.449219 399.472656 509.457031 Z M 399.472656 509.457031 "/>
<path style=" stroke:none;fill-rule:nonzero;fill:rgb(0%,0%,0%);fill-opacity:1;" d="M 440.171875 535.429688 C 440.820312 533.910156 441.054688 531.949219 441.328125 529.683594 C 441.664062 526.871094 442.046875 523.679688 443.3125 520.324219 C 444.503906 517.160156 446.015625 514.242188 447.347656 511.667969 C 448.988281 508.496094 450.410156 505.757812 450.753906 503.484375 C 451.675781 497.40625 447.824219 493.628906 444.242188 492.246094 C 443.84375 492.089844 443.394531 492.289062 443.238281 492.691406 C 443.085938 493.089844 443.28125 493.539062 443.683594 493.695312 C 446.871094 494.929688 450.003906 498.089844 449.21875 503.25 C 448.910156 505.273438 447.546875 507.90625 445.96875 510.957031 C 444.617188 513.566406 443.082031 516.527344 441.859375 519.78125 C 440.53125 523.308594 440.117188 526.742188 439.785156 529.496094 C 439.527344 531.648438 439.304688 533.503906 438.742188 534.824219 C 437.085938 538.714844 431.695312 542.914062 428.066406 543.140625 C 427.636719 543.167969 427.3125 543.535156 427.339844 543.964844 C 427.367188 544.394531 427.734375 544.71875 428.164062 544.691406 C 432.421875 544.425781 438.257812 539.921875 440.171875 535.429688 Z M 440.171875 535.429688 "/>
<path style=" stroke:none;fill-rule:nonzero;fill:rgb(0%,0%,0%);fill-opacity:1;" d="M 462.089844 547.484375 C 462.839844 545.453125 463.058594 542.890625 463.308594 539.929688 C 463.625 536.214844 463.980469 532 465.460938 527.410156 C 466.835938 523.136719 468.6875 519.023438 470.320312 515.390625 C 472.386719 510.800781 474.167969 506.835938 474.496094 503.75 C 475.347656 495.761719 470.570312 489.953125 465.765625 487.929688 C 461.539062 486.152344 458.964844 486.976562 452.070312 489.179688 L 449.789062 489.90625 L 440.164062 492.933594 L 413.800781 501.324219 C 403.238281 504.835938 402.441406 506.210938 402.523438 507.222656 C 402.527344 507.253906 402.550781 507.277344 402.558594 507.308594 C 402.140625 507.984375 402.242188 509.679688 408.402344 518.519531 L 424.816406 540.949219 L 432.078125 550.738281 C 438.121094 558.914062 441 559.117188 447.5 558.820312 C 453.132812 558.5625 459.949219 553.265625 462.089844 547.484375 M 414.292969 502.800781 L 440.628906 494.417969 L 450.257812 491.386719 L 452.542969 490.660156 C 459.21875 488.527344 461.46875 487.808594 465.167969 489.363281 C 469.457031 491.167969 473.722656 496.386719 472.953125 503.585938 C 472.652344 506.425781 470.914062 510.285156 468.90625 514.753906 C 467.253906 518.421875 465.386719 522.578125 463.980469 526.933594 C 462.445312 531.695312 462.066406 536.1875 461.761719 539.796875 C 461.519531 542.648438 461.3125 545.109375 460.632812 546.945312 C 458.714844 552.121094 452.425781 557.042969 447.429688 557.269531 C 441.550781 557.539062 439.117188 557.648438 433.324219 549.816406 L 426.0625 540.023438 C 426.0625 540.023438 409.675781 517.632812 409.675781 517.628906 C 405.378906 511.464844 404.328125 509.171875 404.078125 508.339844 C 404.347656 508.292969 404.597656 508.160156 404.691406 507.886719 C 404.777344 507.636719 404.730469 507.375 404.585938 507.175781 C 404.527344 507.09375 404.445312 507.023438 404.351562 506.96875 C 404.933594 506.460938 406.921875 505.246094 414.292969 502.800781 M 403.589844 508.261719 C 403.5625 508.273438 403.515625 508.285156 403.515625 508.285156 C 403.375 508.234375 403.265625 508.144531 403.183594 508.039062 C 403.324219 508.121094 403.441406 508.21875 403.589844 508.261719 "/>
<path style=" stroke:none;fill-rule:nonzero;fill:rgb(0%,0%,0%);fill-opacity:1;" d="M 402.792969 507.339844 C 402.667969 507.75 402.898438 508.183594 403.3125 508.308594 L 427.125 515.539062 C 427.535156 515.664062 427.972656 515.433594 428.097656 515.023438 C 428.222656 514.613281 427.988281 514.179688 427.578125 514.054688 L 403.761719 506.824219 C 403.351562 506.695312 402.917969 506.929688 402.792969 507.339844 Z M 402.792969 507.339844 "/>
<path style=" stroke:none;fill-rule:nonzero;fill:rgb(0%,0%,0%);fill-opacity:1;" d="M 440.171875 476.707031 C 438.925781 475.621094 437.136719 474.789062 435.0625 473.832031 C 432.492188 472.640625 429.578125 471.289062 426.777344 469.050781 C 424.132812 466.9375 421.828125 464.601562 419.792969 462.539062 C 417.28125 459.996094 415.117188 457.800781 413.058594 456.769531 C 407.5625 454.011719 402.78125 456.511719 400.359375 459.488281 C 400.089844 459.820312 400.140625 460.308594 400.472656 460.582031 C 400.804688 460.851562 401.292969 460.800781 401.5625 460.46875 C 403.722656 457.816406 407.695312 455.816406 412.363281 458.160156 C 414.191406 459.074219 416.273438 461.1875 418.6875 463.632812 C 420.75 465.722656 423.09375 468.09375 425.808594 470.265625 C 428.753906 472.621094 431.890625 474.074219 434.410156 475.242188 C 436.375 476.152344 438.070312 476.9375 439.152344 477.878906 C 442.34375 480.65625 444.667969 487.078125 443.765625 490.601562 C 443.65625 491.019531 443.90625 491.441406 444.324219 491.546875 C 444.738281 491.65625 445.160156 491.40625 445.269531 490.988281 C 446.332031 486.855469 443.855469 479.914062 440.171875 476.707031 Z M 440.171875 476.707031 "/>
<path style=" stroke:none;fill-rule:nonzero;fill:rgb(0%,0%,0%);fill-opacity:1;" d="M 458.410156 459.585938 C 456.710938 458.242188 454.339844 457.246094 451.601562 456.089844 C 448.164062 454.644531 444.269531 453.003906 440.359375 450.175781 C 436.722656 447.546875 433.378906 444.515625 430.429688 441.839844 C 426.703125 438.457031 423.484375 435.535156 420.652344 434.269531 C 413.316406 430.992188 406.3125 433.742188 402.90625 437.683594 C 399.910156 441.15625 399.898438 443.863281 399.863281 451.097656 L 399.847656 453.492188 L 399.753906 463.578125 L 399.585938 491.246094 C 399.660156 502.378906 400.71875 503.558594 401.707031 503.792969 C 401.742188 503.800781 401.769531 503.785156 401.804688 503.789062 C 402.316406 504.394531 403.960938 504.824219 414.269531 501.695312 L 440.675781 493.011719 L 452.226562 489.136719 C 461.871094 485.914062 462.953125 483.238281 464.683594 476.960938 C 466.175781 471.527344 463.246094 463.410156 458.410156 459.585938 M 401.140625 491.234375 L 401.304688 463.59375 L 401.398438 453.503906 L 401.414062 451.105469 C 401.449219 444.097656 401.460938 441.738281 404.082031 438.699219 C 407.125 435.175781 413.40625 432.730469 420.015625 435.6875 C 422.625 436.851562 425.757812 439.695312 429.386719 442.988281 C 432.363281 445.691406 435.742188 448.753906 439.449219 451.4375 C 443.503906 454.367188 447.65625 456.117188 450.996094 457.523438 C 453.632812 458.632812 455.910156 459.59375 457.445312 460.804688 C 461.777344 464.226562 464.511719 471.730469 463.1875 476.550781 C 461.625 482.226562 460.976562 484.574219 451.738281 487.660156 L 440.179688 491.542969 L 413.820312 500.207031 C 406.628906 502.390625 404.121094 502.679688 403.253906 502.664062 C 403.292969 502.390625 403.242188 502.109375 403.011719 501.9375 C 402.800781 501.78125 402.539062 501.742188 402.300781 501.816406 C 402.207031 501.851562 402.113281 501.90625 402.03125 501.976562 C 401.730469 501.265625 401.191406 499 401.140625 491.234375 M 403.027344 503.101562 C 403.027344 503.132812 403.027344 503.179688 403.027344 503.179688 C 402.933594 503.296875 402.816406 503.375 402.691406 503.417969 C 402.8125 503.3125 402.941406 503.230469 403.027344 503.101562 "/>
<path style=" stroke:none;fill-rule:nonzero;fill:rgb(0%,0%,0%);fill-opacity:1;" d="M 415.949219 482.074219 L 401.710938 502.496094 C 401.46875 502.847656 401.554688 503.332031 401.90625 503.574219 C 402.257812 503.820312 402.742188 503.734375 402.988281 503.382812 L 417.226562 482.964844 C 417.46875 482.613281 417.386719 482.128906 417.03125 481.882812 C 416.683594 481.636719 416.195312 481.722656 415.949219 482.074219 Z M 415.949219 482.074219 "/>
<path style=" stroke:none;fill-rule:nonzero;fill:rgb(0%,0%,0%);fill-opacity:1;" d="M 408.648438 503.292969 C 408.648438 503.292969 403.640625 505.453125 403.382812 507.351562 C 403.125 509.25 405.367188 514.171875 405.367188 514.171875 C 405.367188 514.171875 400.964844 510.027344 399.5 510.027344 C 398.03125 510.027344 394.40625 513.824219 394.40625 513.824219 C 394.40625 513.824219 396.566406 508.128906 396.046875 506.917969 C 395.527344 505.710938 390.78125 503.035156 390.78125 503.035156 C 390.78125 503.035156 396.738281 504.246094 397.945312 503.035156 C 399.152344 501.828125 399.757812 496.820312 399.757812 496.820312 C 399.757812 496.820312 400.472656 502.992188 402.542969 503.339844 C 404.613281 503.683594 408.648438 503.296875 408.648438 503.296875 Z M 408.648438 503.292969 "/>
</g>
</svg>
