<?xml version="1.0" encoding="UTF-8" standalone="no"?>
<!-- Created with Inkscape (http://www.inkscape.org/) -->

<svg
   xmlns:dc="http://purl.org/dc/elements/1.1/"
   xmlns:cc="http://creativecommons.org/ns#"
   xmlns:rdf="http://www.w3.org/1999/02/22-rdf-syntax-ns#"
   xmlns:svg="http://www.w3.org/2000/svg"
   xmlns="http://www.w3.org/2000/svg"
   xmlns:sodipodi="http://sodipodi.sourceforge.net/DTD/sodipodi-0.dtd"
   xmlns:inkscape="http://www.inkscape.org/namespaces/inkscape"
   width="674"
   height="700"
   id="svg4442"
   sodipodi:version="0.32"
   inkscape:version="0.91 r13725"
   version="1.0"
   sodipodi:docname="Paris_Saint-Germain_Football_Club_(logo).svg"
   inkscape:output_extension="org.inkscape.output.svg.inkscape">
  <defs
     id="defs4444" />
  <sodipodi:namedview
     id="base"
     pagecolor="#ffffff"
     bordercolor="#666666"
     borderopacity="1.0"
     inkscape:pageopacity="0.0"
     inkscape:pageshadow="2"
     inkscape:zoom="0.48162842"
     inkscape:cx="65.979792"
     inkscape:cy="332.29563"
     inkscape:document-units="px"
     inkscape:current-layer="layer1"
     showgrid="false"
     inkscape:window-width="1440"
     inkscape:window-height="788"
     inkscape:window-x="0"
     inkscape:window-y="1"
     inkscape:window-maximized="1"
     showguides="false" />
  <metadata
     id="metadata4447">
    <rdf:RDF>
      <cc:Work
         rdf:about="">
        <dc:format>image/svg+xml</dc:format>
        <dc:type
           rdf:resource="http://purl.org/dc/dcmitype/StillImage" />
        <dc:title></dc:title>
      </cc:Work>
    </rdf:RDF>
  </metadata>
  <g
     inkscape:label="Logo"
     inkscape:groupmode="layer"
     id="layer1"
     transform="translate(-264.10105,228.35144)">
    <g
       id="g5651"
       transform="matrix(0.80303629,0,0,0.80296619,89.434795,36.917437)">
      <g
         id="g5609">
        <path
           inkscape:connector-curvature="0"
           id="path1919"
           style="fill:#1f53a9;fill-opacity:1;fill-rule:nonzero;stroke:none"
           d="m 846.96841,264.38988 c 35.9766,-45.47233 57.47862,-102.94762 57.47862,-165.418164 0,-135.207097 -100.63856,-246.923356 -231.08973,-264.448646 0,228.05641 86.5717,351.72772 173.61111,429.86681" />
        <path
           inkscape:connector-curvature="0"
           id="path1921"
           style="fill:#ffffff;fill-opacity:1;fill-rule:nonzero;stroke:none"
           d="m 1006.2848,99.438897 c 0,203.643183 -165.25253,368.713963 -369.11997,368.713963 -203.85544,0 -369.11998,-165.07078 -369.11998,-368.713963 0,-203.631207 165.26454,-368.713957 369.11998,-368.713957 203.86744,0 369.11997,165.08275 369.11997,368.713957" />
        <path
           inkscape:connector-curvature="0"
           id="path1923"
           style="fill:none;stroke:#122657;stroke-width:5;stroke-linecap:butt;stroke-linejoin:miter;stroke-miterlimit:4;stroke-dasharray:none;stroke-opacity:1"
           d="m 1006.2848,99.438897 c 0,203.643183 -165.25253,368.713963 -369.11997,368.713963 -203.85544,0 -369.11998,-165.07078 -369.11998,-368.713963 0,-203.631207 165.26454,-368.713957 369.11998,-368.713957 203.86744,0 369.11997,165.08275 369.11997,368.713957 z" />
        <path
           inkscape:connector-curvature="0"
           id="path1925"
           style="fill:#122657;fill-opacity:1;fill-rule:nonzero;stroke:none"
           d="m 992.88952,99.930037 c 0,196.491713 -159.46031,355.776623 -356.1684,355.776623 -196.70809,0 -356.1684,-159.28491 -356.1684,-355.776623 0,-196.491718 159.46031,-355.776627 356.1684,-355.776627 196.70809,0 356.1684,159.284909 356.1684,355.776627" />
        <path
           inkscape:connector-curvature="0"
           id="path1927"
           style="fill:#ffffff;fill-opacity:1;fill-rule:nonzero;stroke:none"
           d="m 356.7032,100.97221 c 0,154.50528 125.40246,279.7698 280.07788,279.7698 154.68741,0 280.07788,-125.26452 280.07788,-279.7698 0,-154.517262 -125.39047,-279.78178 -280.07788,-279.78178 -154.67542,0 -280.07788,125.264518 -280.07788,279.78178" />
        <path
           inkscape:connector-curvature="0"
           id="path1933"
           style="fill:#122657;fill-opacity:1;fill-rule:nonzero;stroke:none"
           d="m 425.21465,267.50442 c -36.38434,-45.95148 -58.1262,-104.03771 -58.1262,-167.1671 0,-136.608638 101.75383,-249.49884 233.66806,-267.2158 0,230.452218 -87.53109,355.41726 -175.54186,434.3829" />
        <path
           inkscape:connector-curvature="0"
           id="path1935"
           style="fill:#122657;fill-opacity:1;fill-rule:nonzero;stroke:none"
           d="m 637.18882,369.97288 c 30.2923,0 59.62522,-4.99525 86.79955,-14.18315 27.16234,-72.08969 9.76166,-165.8494 -86.79955,-165.8494 -96.54922,0 -113.94991,93.75971 -86.78757,165.8494 27.17433,9.1879 56.50726,14.18315 86.78757,14.18315" />
        <path
           inkscape:connector-curvature="0"
           id="path1937"
           style="fill:#122657;fill-opacity:1;fill-rule:nonzero;stroke:none"
           d="m 849.18696,267.50442 c 36.37235,-45.95148 58.11421,-104.03771 58.11421,-167.1671 0,-136.608638 -101.75383,-249.49884 -233.66805,-267.2158 0,230.452218 87.53108,355.41726 175.55384,434.3829" />
        <g
           id="g5575">
          <g
             id="g5571">
            <path
               inkscape:connector-curvature="0"
               id="path1929"
               style="fill:#ed1c24;fill-opacity:1;fill-rule:nonzero;stroke:none"
               d="m 637.18882,183.30395 c 107.36618,0 124.77886,85.47025 121.57694,157.91931 28.4455,-14.3269 53.94092,-33.48134 75.5149,-56.45708 -44.40713,-45.98743 -86.4398,-95.92792 -117.78741,-163.99266 l -158.59567,0 c -31.34882,68.06474 -73.39348,118.00523 -117.78861,163.99266 21.57397,22.97574 47.06939,42.13018 75.51489,56.45708 -3.20191,-72.44906 14.22276,-157.91931 121.56496,-157.91931" />
            <path
               inkscape:connector-curvature="0"
               id="path1931"
               style="fill:#ed1c24;fill-opacity:1;fill-rule:nonzero;stroke:none"
               d="m 713.4952,114.17308 c -31.04781,-70.12513 -50.82296,-159.320846 -50.82296,-282.28539 -8.35856,-0.77864 -16.92099,-1.17395 -25.48342,-1.17395 -8.55044,0 -17.11288,0.39531 -25.47144,1.17395 0,122.964544 -19.77514,212.16026 -50.83495,282.28539" />
          </g>
          <g
             id="g5531">
            <path
               inkscape:connector-curvature="0"
               id="path1939"
               style="fill:#ffffff;fill-opacity:1;fill-rule:nonzero;stroke:none"
               d="m 667.56506,246.34949 0,51.72537 -103.9484,0 c 0,0 4.1493,1.37758 7.19532,7.1874 2.7702,5.27077 4.42512,14.37482 11.08079,20.46016 6.63169,6.08533 9.6897,7.1874 22.41343,7.1874 1.24719,0 4.71293,3.5937 4.71293,7.60667 l 1.37911,0 c 0,-4.01297 3.46574,-7.60667 4.71293,-7.60667 12.78369,0 31.16773,0 47.75295,0 1.24719,0 4.70094,3.5937 4.70094,7.60667 l 1.3911,0 c 0,-4.01297 3.45495,-7.60667 4.70214,-7.60667 25.74606,0 32.25902,-16.59093 32.25902,-35.11048 0,-28.77358 -14.40263,-51.44985 -38.35106,-51.44985" />
            <path
               inkscape:connector-curvature="0"
               id="path1941"
               style="fill:#ffffff;fill-opacity:1;fill-rule:nonzero;stroke:none"
               d="m 636.21745,244.9719 c -1.94274,0 -3.52571,0.27552 -5.04872,6.63637 -1.63094,6.80408 -5.81622,8.85249 -8.58642,8.85249 -1.00734,0 -1.71488,0 -2.21855,0 0,-5.05514 0,-9.95456 0,-9.95456 6.09203,-8.85248 5.54039,-17.14196 -1.93075,-25.44341 -7.47114,8.30145 -8.03477,16.59093 -1.94274,25.44341 0,0 0,4.89942 0,9.95456 -0.50367,0 -1.21121,0 -2.21855,0 -2.75821,0 -6.94349,-2.04841 -8.57443,-8.85249 -1.52301,-6.36085 -3.11797,-6.63637 -5.04871,-6.63637 -1.6909,0 -6.03208,1.24582 -5.48044,4.83952 0.56363,3.59371 2.63828,6.43273 4.29321,5.66607 0.89941,-0.40728 0.73152,-1.78487 1.18723,-2.41976 0.52765,-0.73072 1.6789,-0.59895 2.83016,0.62291 1.39109,1.4854 2.80617,6.38482 6.36785,10.09831 2.60231,2.70726 4.88083,3.21037 6.64368,3.29423 0,1.79685 0,3.21037 0,3.89318 0,3.04266 -3.04601,3.8812 -3.04601,3.8812 l 4.98875,5.52232 4.97677,-5.52232 c 0,0 -3.04602,-0.83854 -3.04602,-3.8812 0,-0.68281 0,-2.09633 0,-3.89318 1.77484,-0.0839 4.05336,-0.58697 6.64368,-3.29423 3.57367,-3.71349 4.97676,-8.61291 6.36786,-10.09831 1.15125,-1.22186 2.31449,-1.35363 2.84215,-0.62291 0.4557,0.63489 0.28781,2.01248 1.17523,2.41976 1.65493,0.76666 3.74157,-2.07236 4.29321,-5.66607 0.55164,-3.5937 -3.78953,-4.83952 -5.46844,-4.83952" />
          </g>
        </g>
        <g
           id="g5583">
          <g
             id="g5525">
            <path
               inkscape:connector-curvature="0"
               id="path1943"
               style="fill:#ffffff;fill-opacity:1;fill-rule:nonzero;stroke:none"
               d="m 568.89323,396.69806 1.64293,-9.19989 16.74111,3.00674 -7.49513,41.78279 -10.85294,-1.9406 5.8522,-32.59489" />
            <path
               inkscape:connector-curvature="0"
               id="path1945"
               style="fill:#ffffff;fill-opacity:1;fill-rule:nonzero;stroke:none"
               d="m 620.41172,407.9703 c 0.27583,-3.83328 -2.6023,-7.16344 -6.43981,-7.42698 -3.88547,-0.27552 -7.20731,2.61142 -7.48313,6.45668 -0.26383,3.83329 2.6143,7.16345 6.4518,7.42699 3.88548,0.27552 7.19532,-2.55153 7.47114,-6.45669 z m -19.5233,27.12049 11.02083,-11.65558 -0.4557,-0.024 -0.39574,-0.0359 -1.45106,-0.1677 c -1.18723,-0.13177 -3.74157,-0.87447 -5.27657,-1.60519 -6.14001,-2.82705 -9.54579,-8.39729 -9.07809,-15.05762 0.67156,-9.48737 8.57442,-15.51282 19.28346,-14.75814 10.31329,0.73072 17.24478,7.63063 16.62119,16.54301 -0.35977,4.9114 -3.21391,10.9009 -7.57907,15.87219 l -10.28931,11.76339 -12.39994,-0.87446" />
            <path
               inkscape:connector-curvature="0"
               id="path1947"
               style="fill:#ffffff;fill-opacity:1;fill-rule:nonzero;stroke:none"
               d="m 638.85573,403.99327 -0.55164,-9.33165 36.49227,-2.14424 -21.69389,43.79526 -12.11213,0.71875 17.26877,-34.1881" />
            <path
               inkscape:connector-curvature="0"
               id="path1949"
               style="fill:#ffffff;fill-opacity:1;fill-rule:nonzero;stroke:none"
               d="m 690.19435,411.20464 c 1.49902,8.06187 5.00075,12.36234 9.34192,11.55974 4.32919,-0.80259 5.96013,-5.94159 4.42513,-14.12325 -1.52301,-8.18167 -4.82087,-12.33838 -9.15005,-11.53579 -4.44911,0.82655 -6.14001,5.92961 -4.617,14.0993 z m 24.56003,-4.50411 c 2.48238,13.34462 -2.95008,23.63459 -13.45525,25.58717 -10.60111,1.96455 -19.3794,-5.66608 -21.88577,-19.08257 -2.48239,-13.35659 2.9261,-23.80229 13.35931,-25.74289 10.72103,-1.98852 19.45135,5.65409 21.98171,19.23829" />
          </g>
          <g
             id="g5505">
            <path
               inkscape:connector-curvature="0"
               id="path1951"
               style="fill:#ffffff;fill-opacity:1;fill-rule:nonzero;stroke:none"
               d="m 358.22621,-59.810075 c 2.09864,-3.617661 1.61895,-6.06138 -1.52301,-7.87021 -3.08199,-1.796852 -5.60036,-0.958321 -7.61505,2.515592 l -1.84679,3.186417 9.16204,5.306702 1.82281,-3.138501 z m 18.08424,14.662309 -5.54039,9.547272 -36.7681,-21.286702 8.81427,-15.177407 c 2.49438,-4.312444 4.74891,-6.277002 8.39454,-7.367092 3.64563,-1.102069 7.37521,-0.515097 11.20072,1.70102 7.98681,4.623898 9.82161,11.511829 5.16864,19.537767 l -3.47774,5.977526 12.20806,7.067616" />
            <path
               inkscape:connector-curvature="0"
               id="path1953"
               style="fill:#ffffff;fill-opacity:1;fill-rule:nonzero;stroke:none"
               d="m 376.29846,-98.130931 7.92685,11.919116 5.57637,-7.283239 -13.50322,-4.635877 z m 12.7597,19.477872 4.07735,6.768141 -7.09938,9.247796 -23.79253,-38.764078 7.31524,-9.52331 43.48373,13.128991 -7.17134,9.33165 -7.54309,-2.276012 -9.26998,12.086822" />
            <path
               inkscape:connector-curvature="0"
               id="path1955"
               style="fill:#ffffff;fill-opacity:1;fill-rule:nonzero;stroke:none"
               d="m 408.56948,-126.03005 c 3.02203,-2.98277 3.44176,-6.18117 1.12726,-8.51707 -1.0673,-1.09009 -2.95008,-1.70102 -4.38914,-1.47342 -1.24719,0.19166 -2.69825,1.06613 -4.1493,2.50361 l -1.45106,1.4255 7.41118,7.49886 1.45106,-1.43748 z m 32.283,1.07811 -9.74966,9.63113 -18.97166,-4.20463 11.46455,11.59568 -7.8549,7.7624 -29.86058,-30.19909 12.20806,-12.06286 c 3.42977,-3.37808 6.43981,-4.75567 10.04947,-4.65984 3.32184,0.14375 6.71563,1.64113 9.18602,4.14474 1.99071,2.01247 3.41778,4.82754 3.80153,7.3072 0.38375,2.64736 -0.22785,4.83952 -1.96672,7.66656 l 21.69389,3.01871" />
            <path
               inkscape:connector-curvature="0"
               id="path1957"
               style="fill:#ffffff;fill-opacity:1;fill-rule:nonzero;stroke:none"
               d="m 452.62883,-133.85234 -8.57443,6.9598 -26.81456,-32.9303 8.56243,-6.9598" />
            <path
               inkscape:connector-curvature="0"
               id="path1959"
               style="fill:#ffffff;fill-opacity:1;fill-rule:nonzero;stroke:none"
               d="m 460.67559,-177.995 c -3.08199,-0.32343 -5.51641,0.21562 -7.57907,1.60519 -2.25453,1.52133 -3.07,3.96505 -1.89477,5.71399 0.43172,0.64686 1.12727,1.07811 2.01469,1.16196 0.98337,0.15573 2.12262,0.012 3.20192,-0.31145 0.64758,-0.15573 1.91875,-0.59895 3.77755,-1.17395 3.90945,-1.18592 6.16399,-1.40154 8.7663,-0.76665 2.74621,0.62291 4.66496,2.06039 6.49977,4.77962 1.45106,2.1682 2.72223,5.25879 2.97407,7.27126 0.58761,5.139 -2.55434,10.72122 -8.23865,14.54252 -2.78219,1.85675 -5.48043,2.92288 -9.13806,3.66558 -2.38644,0.5151 -3.3818,0.56301 -5.85219,0.52708 l -1.03133,-9.94258 c 4.4611,0.53905 7.80692,-0.0599 10.49318,-1.86873 2.72223,-1.82081 3.50172,-4.32442 2.08664,-6.43273 -0.47969,-0.70676 -1.2352,-1.22186 -2.02668,-1.37758 -1.57098,-0.31146 -2.66227,-0.11979 -6.19997,1.01821 -3.48973,1.11405 -4.89282,1.44946 -6.69165,1.62915 -3.71758,0.4552 -6.85954,-1.2578 -9.41388,-5.06712 -4.77289,-7.09158 -3.15395,-15.14147 4.0054,-19.93308 3.70559,-2.49163 8.32259,-4.15671 13.11947,-4.64785" />
            <path
               inkscape:connector-curvature="0"
               id="path1961"
               style="fill:#ffffff;fill-opacity:1;fill-rule:nonzero;stroke:none"
               d="m 510.38327,-203.70196 c -2.98606,-0.82655 -5.48043,-0.70676 -7.74696,0.31146 -2.48239,1.11405 -3.70559,3.39006 -2.84215,5.3067 0.32379,0.71874 0.93539,1.2578 1.78684,1.4854 0.94738,0.32343 2.08664,0.37135 3.21391,0.23958 0.65957,-0.0479 1.9907,-0.27552 3.93344,-0.5151 4.05336,-0.5151 6.2959,-0.34739 8.7663,0.71874 2.59031,1.07811 4.24524,2.81507 5.58836,5.80982 1.06731,2.37185 1.78684,5.64212 1.7029,7.66657 -0.29981,5.16295 -4.32919,10.13424 -10.58912,12.93733 -3.04602,1.36561 -5.88817,1.95258 -9.62974,2.07237 -2.43441,0.10781 -3.41777,-0.012 -5.86418,-0.46718 l 0.68355,-9.97852 c 4.3052,1.29374 7.699,1.2578 10.64908,-0.0599 2.99805,-1.34165 4.18528,-3.67756 3.14195,-6.00149 -0.34777,-0.76665 -1.00734,-1.41352 -1.75086,-1.68904 -1.49902,-0.57499 -2.6143,-0.57499 -6.28391,-0.0359 -3.62165,0.50311 -5.0727,0.58697 -6.87153,0.46718 -3.74157,-0.17969 -6.54774,-2.40778 -8.41853,-6.58846 -3.50172,-7.79834 -0.53965,-15.45292 7.31524,-18.97475 4.08935,-1.82081 8.91021,-2.6833 13.71908,-2.35987" />
            <path
               inkscape:connector-curvature="0"
               id="path1963"
               style="fill:#ffffff;fill-opacity:1;fill-rule:nonzero;stroke:none"
               d="m 543.28987,-212.97371 -0.6116,14.29096 8.80228,-2.59944 -8.19068,-11.69152 z m -1.13926,23.25126 -0.68355,7.87021 -11.18873,3.31819 3.56169,-45.34056 11.5245,-3.41402 27.45016,36.15266 -11.29666,3.34214 -4.7609,-6.26502 -14.60651,4.3364" />
            <path
               inkscape:connector-curvature="0"
               id="path1965"
               style="fill:#ffffff;fill-opacity:1;fill-rule:nonzero;stroke:none"
               d="m 587.62504,-193.1724 -10.86493,2.00049 -7.69899,-41.74685 10.86493,-2.0005" />
            <path
               inkscape:connector-curvature="0"
               id="path1967"
               style="fill:#ffffff;fill-opacity:1;fill-rule:nonzero;stroke:none"
               d="m 592.48189,-237.38693 11.03282,-0.73072 21.96972,24.56895 -1.72688,-25.92258 11.02083,-0.73072 2.81817,42.35778 -11.02083,0.73072 -21.96972,-24.56895 1.72688,25.92258 -11.02083,0.73072" />
            <path
               inkscape:connector-curvature="0"
               id="path1969"
               style="fill:#ffffff;fill-opacity:1;fill-rule:nonzero;stroke:none"
               d="m 661.1972,-196.15518 -11.03282,-0.69478 2.09863,-33.05009 -8.93419,-0.56302 0.59961,-9.31967 29.11707,1.84477 -0.59961,9.31967 -9.15005,-0.57499" />
            <path
               inkscape:connector-curvature="0"
               id="path1971"
               style="fill:#ffffff;fill-opacity:1;fill-rule:nonzero;stroke:none"
               d="m 686.53673,-210.39822 -1.00735,7.45094 -14.21076,-1.92862 1.01934,-7.45094" />
            <path
               inkscape:connector-curvature="0"
               id="path1973"
               style="fill:#ffffff;fill-opacity:1;fill-rule:nonzero;stroke:none"
               d="m 734.68542,-206.25348 c -0.38375,1.54529 -0.73153,2.74319 -0.97137,3.49787 -0.63559,2.12028 -1.35512,3.85724 -2.11063,5.3067 -4.64098,8.94832 -13.71908,12.91337 -24.00839,10.40976 -13.04751,-3.17444 -19.84709,-14.267 -16.68115,-27.24027 3.2259,-13.20087 14.42662,-19.9211 27.85789,-16.63885 5.61235,1.36561 9.59376,3.96505 12.33997,7.95407 1.49903,2.22809 2.19457,3.91713 3.32184,8.14572 l -11.21271,1.76092 c -0.50367,-2.5156 -0.87543,-3.59371 -1.67891,-4.83952 -1.21121,-1.98852 -3.04601,-3.30621 -5.46844,-3.89318 -6.27192,-1.53332 -12.11212,2.81507 -13.94693,10.34986 -1.87078,7.64261 1.39109,14.08732 7.95083,15.68053 2.3025,0.56301 4.44911,0.39531 6.17598,-0.46718 0.67157,-0.35937 1.37911,-0.88645 1.94274,-1.50936 0.79149,-0.85051 1.2352,-1.50935 2.01469,-3.24631 l -8.80228,-2.13226 2.02669,-8.31344" />
            <path
               inkscape:connector-curvature="0"
               id="path1975"
               style="fill:#ffffff;fill-opacity:1;fill-rule:nonzero;stroke:none"
               d="m 756.61916,-207.83471 -2.56634,6.58845 11.56049,4.49213 -3.3818,8.70874 -11.57248,-4.49213 -2.66227,6.86398 12.19607,4.73171 -3.3818,8.70874 -22.49737,-8.7327 15.38599,-39.57865 22.49738,8.74467 -3.38181,8.69677" />
            <path
               inkscape:connector-curvature="0"
               id="path1977"
               style="fill:#ffffff;fill-opacity:1;fill-rule:nonzero;stroke:none"
               d="m 784.77685,-184.51158 c 3.75355,1.97654 6.93149,1.41352 8.47848,-1.4854 0.70754,-1.35363 0.73153,-3.31818 0.072,-4.6239 -0.55165,-1.12602 -1.82282,-2.25205 -3.62165,-3.19839 l -1.79883,-0.95832 -4.92879,9.30769 1.79883,0.95832 z m 8.67036,31.08553 -12.12412,-6.40877 -1.6909,-19.33412 -7.62704,14.41075 -9.77364,-5.16295 19.87107,-37.51827 15.18213,8.01396 c 4.25723,2.25206 6.47579,4.70775 7.45915,8.16969 0.87543,3.21037 0.45571,6.89991 -1.18723,10.00247 -1.31914,2.50361 -3.57367,4.70775 -5.82821,5.8218 -2.41043,1.16196 -4.70094,1.23384 -7.92684,0.41927 l 3.64563,21.58617" />
            <path
               inkscape:connector-curvature="0"
               id="path1979"
               style="fill:#ffffff;fill-opacity:1;fill-rule:nonzero;stroke:none"
               d="m 826.08998,-182.81056 8.73032,6.57648 -6.75161,23.26324 20.9144,-12.60192 8.74232,6.57647 -20.41073,37.7818 -8.82626,-6.63637 12.18408,-21.44243 -22.9171,13.36858 -3.52571,-2.65934 6.94349,-25.38353 -17.62854,17.34561 -8.77829,-6.60043" />
            <path
               inkscape:connector-curvature="0"
               id="path1981"
               style="fill:#ffffff;fill-opacity:1;fill-rule:nonzero;stroke:none"
               d="m 874.46652,-124.29309 -13.02353,5.95357 6.31989,6.64835 6.70364,-12.60192 z m -21.25018,9.53529 -7.32723,2.98278 -8.04677,-8.45719 42.05665,-17.4055 8.27462,8.70874 -19.77514,40.83645 -8.11872,-8.541035 3.42977,-7.079595 -10.49318,-11.04465" />
            <path
               inkscape:connector-curvature="0"
               id="path1983"
               style="fill:#ffffff;fill-opacity:1;fill-rule:nonzero;stroke:none"
               d="m 876.94891,-75.837992 -6.71563,-8.756657 33.72207,-25.838731 6.71563,8.76864" />
            <path
               inkscape:connector-curvature="0"
               id="path1985"
               style="fill:#ffffff;fill-opacity:1;fill-rule:nonzero;stroke:none"
               d="m 918.59783,-91.626328 5.67231,9.475398 -11.90826,30.726163 22.31749,-13.33264 5.67231,9.475398 -36.48028,21.777842 -5.67231,-9.475398 11.92025,-30.714184 -22.32948,13.320661 -5.67231,-9.475398" />
          </g>
        </g>
      </g>
      <g
         id="g5553">
        <path
           style="opacity:1;fill:#c2a571;fill-opacity:1;fill-rule:evenodd;stroke:none;stroke-width:3.20900011;stroke-linecap:round;stroke-linejoin:round;stroke-miterlimit:4;stroke-dasharray:none;stroke-dashoffset:0;stroke-opacity:1"
           d="M 488.31589,-262.61511 A 391.76212,391.76212 0 0 0 245.40183,99.43958 391.76212,391.76212 0 0 0 539.81785,478.40833 L 637.1655,99.43958 541.64011,471.30872 A 384.42133,384.42133 0 0 1 252.74363,99.43958 384.42133,384.42133 0 0 1 491.10496,-255.83191 l -2.78907,-6.7832 z"
           id="path5537"
           inkscape:connector-curvature="0" />
        <path
           style="opacity:1;fill:#c2a571;fill-opacity:1;fill-rule:evenodd;stroke:none;stroke-width:3.20900011;stroke-linecap:round;stroke-linejoin:round;stroke-miterlimit:4;stroke-dasharray:none;stroke-dashoffset:0;stroke-opacity:1"
           d="m 787.46238,-262.22449 -2.81641,6.77735 A 384.42133,384.42133 0 0 1 1021.5854,99.43958 384.42133,384.42133 0 0 1 732.48191,471.53918 l 1.82031,7.10352 A 391.76212,391.76212 0 0 0 1028.9272,99.43958 391.76212,391.76212 0 0 0 787.46238,-262.22449 Z"
           id="circle4648"
           inkscape:connector-curvature="0" />
        <g
           id="g5543">
          <path
             id="path5541"
             d="M 477.71824,-288.39441 A 419.6571,419.6571 0 0 0 217.5073,99.43958 419.6571,419.6571 0 0 0 532.88621,505.3927 l 4.37695,-17.04297 A 402.03922,402.03922 0 0 1 235.12644,99.43958 402.03922,402.03922 0 0 1 484.4116,-272.11316 l -6.69336,-16.28125 z"
             style="opacity:1;fill:#c2a571;fill-opacity:1;fill-rule:evenodd;stroke:none;stroke-width:3.20900011;stroke-linecap:round;stroke-linejoin:round;stroke-miterlimit:4;stroke-dasharray:none;stroke-dashoffset:0;stroke-opacity:1"
             inkscape:connector-curvature="0" />
          <path
             id="circle4652"
             d="M 798.16355,-287.97644 637.1655,99.43958 791.40574,-271.71082 A 402.03922,402.03922 0 0 1 1039.2046,99.43958 402.03922,402.03922 0 0 1 736.85105,488.58997 L 637.1655,99.43958 741.21824,505.64465 A 419.6571,419.6571 0 0 0 1056.8218,99.43958 419.6571,419.6571 0 0 0 798.16355,-287.97644 Z"
             style="opacity:1;fill:#c2a571;fill-opacity:1;fill-rule:evenodd;stroke:none;stroke-width:3.20900011;stroke-linecap:round;stroke-linejoin:round;stroke-miterlimit:4;stroke-dasharray:none;stroke-dashoffset:0;stroke-opacity:1"
             inkscape:connector-curvature="0" />
        </g>
        <g
           id="g5547">
          <path
             transform="translate(264.10105,-272.35144)"
             id="rect5485"
             d="m 434.57422,749.02148 c -0.6733,0.007 -1.35147,0.054 -2.0332,0.14063 l -4.28711,0.54492 c -10.90773,1.38619 -18.40461,12.61311 -16.8086,25.17188 l 1.85938,14.63086 c 1.59601,12.55876 11.66258,21.55416 22.57031,20.16796 l 4.28711,-0.54492 c 10.90773,-1.38619 18.40461,-12.61311 16.80859,-25.17187 l -1.85937,-14.63282 c -1.49626,-11.77384 -10.43767,-20.41466 -20.53711,-20.30664 z m -1.88086,12.78321 c 3.27745,-0.0832 6.13241,2.32586 6.55664,5.66406 l 2.90039,22.82422 c 0.45251,3.56074 -2.03762,6.78955 -5.58398,7.24023 -3.54636,0.45069 -6.76624,-2.05254 -7.21875,-5.61328 l -2.90039,-22.82226 c -0.45252,-3.56075 2.03957,-6.79151 5.58593,-7.24219 0.22165,-0.0282 0.44166,-0.0452 0.66016,-0.0508 z"
             style="opacity:1;fill:#c2a571;fill-opacity:1;fill-rule:evenodd;stroke:none;stroke-width:5;stroke-linecap:round;stroke-linejoin:round;stroke-miterlimit:4;stroke-dasharray:none;stroke-dashoffset:0;stroke-opacity:1"
             inkscape:connector-curvature="0" />
          <path
             sodipodi:nodetypes="cccccccccccsccc"
             id="path5316"
             d="m 569.20317,480.4889 c 6.54798,-4.4943 15.59611,-2.67575 22.39709,-0.31251 5.98248,2.33644 9.16539,8.14392 9.25648,15.1199 -0.55063,7.679 -5.49138,14.31628 -11.10182,19.27192 -3.30376,3.37817 -8.48262,5.22351 -9.61364,10.26844 l 17.32241,1.99416 -1.68164,11.8459 -38.8266,-4.40501 2.01405,-10.71002 c 7.45577,-5.38721 16.05245,-10.57094 22.60044,-17.14869 3.70556,-4.22643 6.42866,-10.93305 3.64603,-15.3729 -2.95762,-3.48321 -7.02432,-2.38169 -9.18814,-0.52492 -2.18864,1.87807 -2.46013,4.54999 -2.92564,7.78724 l -12.63464,-0.93755 c -0.29763,-6.74146 3.40793,-12.96204 8.73562,-16.87596 z"
             inkscape:connector-curvature="0"
             style="fill:#c2a571;fill-opacity:1" />
          <path
             sodipodi:nodetypes="cccccccc"
             id="path5320"
             d="m 649.24726,485.22118 7.51143,-2.98836 12.37571,-0.2855 3.6411,57.81576 -13.23985,0.22323 -2.87219,-46.07403 -7.83763,0.4861 z"
             inkscape:connector-curvature="0"
             style="fill:#c2a571;fill-opacity:1" />
          <path
             inkscape:connector-curvature="0"
             style="opacity:1;fill:#c2a571;fill-opacity:1;fill-rule:evenodd;stroke:none;stroke-width:5;stroke-linecap:round;stroke-linejoin:round;stroke-miterlimit:4;stroke-dasharray:none;stroke-dashoffset:0;stroke-opacity:1"
             d="m 630.44,481.18068 c -0.66531,-0.10369 -1.34198,-0.16876 -2.02868,-0.1953 l -4.31838,-0.1668 c -10.98725,-0.42468 -20.22673,9.41803 -20.71569,22.06837 l -0.56957,14.73753 c -0.48896,12.65032 7.96299,23.17732 18.95024,23.60199 l 4.31838,0.1668 c 10.98725,0.42467 20.22673,-9.41805 20.71568,-22.06837 l 0.5699,-14.73947 c 0.4584,-11.85968 -6.94193,-21.85206 -16.92188,-23.40475 z m -3.95545,12.30052 c 3.24659,0.45638 5.66697,3.30175 5.53701,6.66428 l -0.88881,22.99059 c -0.13866,3.5867 -3.12538,6.36253 -6.6976,6.22447 -3.57221,-0.13808 -6.33708,-3.13628 -6.19846,-6.72298 l 0.88848,-22.98866 c 0.13867,-3.58671 3.12763,-6.36414 6.69984,-6.22607 0.22327,0.009 0.44309,0.0279 0.65954,0.0583 z"
             id="path5494" />
        </g>
        <g
           id="g5498">
          <path
             sodipodi:nodetypes="ccccccccccccc"
             inkscape:connector-curvature="0"
             id="path4343"
             transform="translate(264.10105,-272.35144)"
             d="m 360.35547,-58.009766 -19.06836,54.5703129 13.03711,-0.2011719 2.0918,-6.976563 19.50198,-0.128906 1.8027,6.703094 14.8711,0.3027656 -21.87696,-54.2695316 z m 5.78906,20.486328 4.92774,14.083985 -9.66993,0.244141 z"
             style="fill:#c2a571" />
          <path
             sodipodi:nodetypes="cccccccccccc"
             id="path4345"
             d="m 667.56604,-328.92879 10.59678,1.49602 18.12987,34.63313 4.23904,-31.90278 11.49,1.17479 -3.75359,29.6419 -3.36677,23.85392 -10.2579,-1.37537 -17.98826,-35.09597 -5.09202,32.35958 -10.67338,-2.06304 z"
             inkscape:connector-curvature="0"
             style="fill:#c2a571" />
          <path
             sodipodi:nodetypes="cccccccccccccccc"
             inkscape:connector-curvature="0"
             id="path4349"
             transform="translate(264.10105,-272.35144)"
             d="m 267.28906,-46.964844 -10.65266,3.302903 -14.47145,39.2006005 2.28817,8.8871217 24.60246,-7.5498075 3.08585,10.3996463 10.65083,-3.273611 -3.14879,-10.3204859 5.34892,-1.5134984 -2.45611,-8.8478587 -5.6055,1.49061 z m -5.67667,19.816663 4.71068,15.15427 -10.96022,3.5587671 z"
             style="fill:#c2a571" />
          <path
             sodipodi:nodetypes="ccccccccccccccc"
             id="path4351"
             d="m 733.19656,-318.54195 c 11.31808,-1.7192 23.48143,8.19486 21.69059,20.10033 l -11.43269,-2.13467 c -0.61026,-1.46534 -1.35631,-3.23733 -2.32647,-4.71627 -3.06329,-3.53175 -6.27211,-4.03037 -8.26448,0.0392 -1.45432,3.0308 -0.27039,6.03396 2.43585,8.19163 4.87867,3.88236 10.53825,7.16917 12.98319,13.17603 2.89399,7.69342 -1.17479,16.84817 -8.73927,20.00004 -9.1261,3.45273 -20.64475,0.11461 -26.13186,-8.09457 -1.94843,-3.96849 -1.70488,-8.4814 -1.73353,-12.76507 l 12.80805,2.89399 c -0.34932,7.08747 5.84333,10.19692 10.27254,6.34025 2.76659,-2.58947 -2.59606,-9.26575 -7.43586,-12.85889 -5.84528,-4.26935 -10.21492,-11.66192 -7.93698,-18.15189 2.27794,-6.48997 7.33526,-11.47565 13.81092,-12.02007 z"
             inkscape:connector-curvature="0"
             style="fill:#c2a571" />
          <path
             id="path5496"
             d="m 570.86099,-327.48068 c -0.62159,-0.002 -1.24815,0.0333 -1.87849,0.10501 l -3.9639,0.45069 c -10.08539,1.14642 -17.14246,11.41805 -15.82251,23.03003 l 1.5378,13.52783 c 1.31995,11.61196 10.50223,20.03808 20.58763,18.89165 l 3.9639,-0.45069 c 10.08539,-1.14643 17.14246,-11.41807 15.8225,-23.03003 l -1.53776,-13.52965 c -1.23746,-10.88621 -9.38547,-18.9713 -18.70917,-18.99484 z m -1.89213,11.77672 c 3.02629,-0.0368 5.6322,2.22174 5.98305,5.30827 l 2.39871,21.10349 c 0.37421,3.29231 -1.9637,6.24229 -5.2427,6.61504 -3.279,0.37272 -6.22059,-1.97719 -6.59484,-5.26949 l -2.39874,-21.10169 c -0.3742,-3.29232 1.96552,-6.24408 5.24452,-6.6168 0.205,-0.023 0.40823,-0.0364 0.60998,-0.0389 z"
             style="opacity:1;fill:#c2a571;fill-opacity:1;fill-rule:evenodd;stroke:none;stroke-width:5;stroke-linecap:round;stroke-linejoin:round;stroke-miterlimit:4;stroke-dasharray:none;stroke-dashoffset:0;stroke-opacity:1"
             inkscape:connector-curvature="0" />
        </g>
      </g>
    </g>
  </g>
</svg>
