<?xml version="1.0" encoding="UTF-8"?>
<svg xmlns="http://www.w3.org/2000/svg" xmlns:xlink="http://www.w3.org/1999/xlink" width="800px" height="800px" viewBox="0 0 800 830" version="1.1">
<g id="surface1">
<path style=" stroke:none;fill-rule:nonzero;fill:rgb(12.156863%,32.54902%,66.27451%);fill-opacity:1;" d="M 599.976562 566.253906 C 634.269531 522.960938 654.761719 468.242188 654.761719 408.761719 C 654.761719 280.035156 558.839844 173.671875 434.496094 156.984375 C 434.496094 374.113281 517.015625 491.859375 599.976562 566.253906 "/>
<path style=" stroke:none;fill-rule:nonzero;fill:rgb(100%,100%,100%);fill-opacity:1;" d="M 751.832031 409.207031 C 751.832031 603.09375 594.316406 760.257812 400 760.257812 C 205.695312 760.257812 48.171875 603.09375 48.171875 409.207031 C 48.171875 215.332031 205.695312 58.160156 400 58.160156 C 594.316406 58.160156 751.832031 215.332031 751.832031 409.207031 "/>
<path style="fill:none;stroke-width:5;stroke-linecap:butt;stroke-linejoin:miter;stroke:rgb(7.058824%,14.901961%,34.117647%);stroke-opacity:1;stroke-miterlimit:4;" d="M 1006.286704 99.438168 C 1006.286704 303.08176 841.030269 468.154719 637.164548 468.154719 C 433.311122 468.154719 268.046491 303.08176 268.046491 99.438168 C 268.046491 -104.193116 433.311122 -269.27428 637.164548 -269.27428 C 841.030269 -269.27428 1006.286704 -104.193116 1006.286704 99.438168 Z M 1006.286704 99.438168 " transform="matrix(0.953159,0,0,0.952088,-207.318997,314.533097)"/>
<path style=" stroke:none;fill-rule:nonzero;fill:rgb(7.058824%,14.901961%,34.117647%);fill-opacity:1;" d="M 739.0625 409.675781 C 739.0625 596.753906 587.070312 748.40625 399.578125 748.40625 C 212.082031 748.40625 60.09375 596.753906 60.09375 409.675781 C 60.09375 222.597656 212.082031 70.945312 399.578125 70.945312 C 587.070312 70.945312 739.0625 222.597656 739.0625 409.675781 "/>
<path style=" stroke:none;fill-rule:nonzero;fill:rgb(100%,100%,100%);fill-opacity:1;" d="M 132.675781 410.667969 C 132.675781 557.769531 252.203125 677.03125 399.632812 677.03125 C 547.074219 677.03125 666.59375 557.769531 666.59375 410.667969 C 666.59375 263.554688 547.074219 144.289062 399.632812 144.289062 C 252.203125 144.289062 132.675781 263.554688 132.675781 410.667969 "/>
<path style=" stroke:none;fill-rule:nonzero;fill:rgb(7.058824%,14.901961%,34.117647%);fill-opacity:1;" d="M 197.976562 569.222656 C 163.296875 525.472656 142.574219 470.167969 142.574219 410.0625 C 142.574219 280 239.5625 172.519531 365.296875 155.648438 C 365.296875 375.0625 281.867188 494.039062 197.976562 569.222656 "/>
<path style=" stroke:none;fill-rule:nonzero;fill:rgb(7.058824%,14.901961%,34.117647%);fill-opacity:1;" d="M 400.023438 666.78125 C 428.898438 666.78125 456.855469 662.023438 482.757812 653.277344 C 508.648438 584.640625 492.0625 495.375 400.023438 495.375 C 307.996094 495.375 291.410156 584.640625 317.300781 653.277344 C 343.203125 662.023438 371.160156 666.78125 400.023438 666.78125 "/>
<path style=" stroke:none;fill-rule:nonzero;fill:rgb(7.058824%,14.901961%,34.117647%);fill-opacity:1;" d="M 602.089844 569.222656 C 636.757812 525.472656 657.484375 470.167969 657.484375 410.0625 C 657.484375 280 560.496094 172.519531 434.761719 155.648438 C 434.761719 375.0625 518.191406 494.039062 602.089844 569.222656 "/>
<path style=" stroke:none;fill-rule:nonzero;fill:rgb(92.941176%,10.980392%,14.117647%);fill-opacity:1;" d="M 400.023438 489.054688 C 502.359375 489.054688 518.957031 570.429688 515.90625 639.40625 C 543.019531 625.765625 567.320312 607.53125 587.882812 585.65625 C 545.554688 541.871094 505.492188 494.324219 475.613281 429.519531 L 324.445312 429.519531 C 294.566406 494.324219 254.492188 541.871094 212.175781 585.65625 C 232.738281 607.53125 257.039062 625.765625 284.152344 639.40625 C 281.101562 570.429688 297.707031 489.054688 400.023438 489.054688 "/>
<path style=" stroke:none;fill-rule:nonzero;fill:rgb(92.941176%,10.980392%,14.117647%);fill-opacity:1;" d="M 472.753906 423.234375 C 443.160156 356.46875 424.3125 271.546875 424.3125 154.476562 C 416.347656 153.734375 408.183594 153.359375 400.023438 153.359375 C 391.875 153.359375 383.710938 153.734375 375.746094 154.476562 C 375.746094 271.546875 356.894531 356.46875 327.292969 423.234375 "/>
<path style=" stroke:none;fill-rule:nonzero;fill:rgb(100%,100%,100%);fill-opacity:1;" d="M 428.976562 549.078125 L 428.976562 598.328125 L 329.898438 598.328125 C 329.898438 598.328125 333.851562 599.636719 336.753906 605.167969 C 339.394531 610.1875 340.972656 618.855469 347.316406 624.648438 C 353.636719 630.445312 356.554688 631.492188 368.679688 631.492188 C 369.871094 631.492188 373.171875 634.914062 373.171875 638.734375 L 374.488281 638.734375 C 374.488281 634.914062 377.789062 631.492188 378.980469 631.492188 C 391.164062 631.492188 408.6875 631.492188 424.496094 631.492188 C 425.683594 631.492188 428.976562 634.914062 428.976562 638.734375 L 430.300781 638.734375 C 430.300781 634.914062 433.59375 631.492188 434.785156 631.492188 C 459.324219 631.492188 465.53125 615.695312 465.53125 598.0625 C 465.53125 570.667969 451.804688 549.078125 428.976562 549.078125 "/>
<path style=" stroke:none;fill-rule:nonzero;fill:rgb(100%,100%,100%);fill-opacity:1;" d="M 399.097656 547.769531 C 397.246094 547.769531 395.738281 548.03125 394.285156 554.085938 C 392.730469 560.566406 388.742188 562.515625 386.101562 562.515625 C 385.140625 562.515625 384.464844 562.515625 383.984375 562.515625 C 383.984375 557.703125 383.984375 553.039062 383.984375 553.039062 C 389.792969 544.609375 389.265625 536.714844 382.144531 528.8125 C 375.023438 536.714844 374.488281 544.609375 380.292969 553.039062 C 380.292969 553.039062 380.292969 557.703125 380.292969 562.515625 C 379.8125 562.515625 379.140625 562.515625 378.179688 562.515625 C 375.550781 562.515625 371.5625 560.566406 370.007812 554.085938 C 368.554688 548.03125 367.035156 547.769531 365.195312 547.769531 C 363.582031 547.769531 359.445312 548.953125 359.972656 552.375 C 360.507812 555.796875 362.484375 558.5 364.0625 557.769531 C 364.921875 557.382812 364.761719 556.070312 365.195312 555.464844 C 365.699219 554.769531 366.792969 554.894531 367.890625 556.058594 C 369.21875 557.472656 370.566406 562.136719 373.960938 565.675781 C 376.441406 568.25 378.613281 568.730469 380.292969 568.808594 C 380.292969 570.519531 380.292969 571.867188 380.292969 572.515625 C 380.292969 575.414062 377.390625 576.210938 377.390625 576.210938 L 382.144531 581.46875 L 386.890625 576.210938 C 386.890625 576.210938 383.984375 575.414062 383.984375 572.515625 C 383.984375 571.867188 383.984375 570.519531 383.984375 568.808594 C 385.679688 568.730469 387.851562 568.25 390.320312 565.675781 C 393.726562 562.136719 395.0625 557.472656 396.386719 556.058594 C 397.484375 554.894531 398.59375 554.769531 399.097656 555.464844 C 399.53125 556.070312 399.371094 557.382812 400.21875 557.769531 C 401.792969 558.5 403.785156 555.796875 404.308594 552.375 C 404.835938 548.953125 400.699219 547.769531 399.097656 547.769531 "/>
<path style=" stroke:none;fill-rule:nonzero;fill:rgb(100%,100%,100%);fill-opacity:1;" d="M 334.925781 692.226562 L 336.492188 683.464844 L 352.449219 686.328125 L 345.304688 726.109375 L 334.960938 724.261719 L 340.539062 693.226562 "/>
<path style=" stroke:none;fill-rule:nonzero;fill:rgb(100%,100%,100%);fill-opacity:1;" d="M 384.03125 702.957031 C 384.292969 699.308594 381.550781 696.136719 377.894531 695.886719 C 374.191406 695.625 371.023438 698.371094 370.761719 702.03125 C 370.507812 705.683594 373.253906 708.851562 376.910156 709.105469 C 380.613281 709.367188 383.769531 706.675781 384.03125 702.957031 Z M 365.421875 728.777344 L 375.925781 717.679688 L 375.492188 717.65625 L 375.117188 717.625 L 373.734375 717.464844 C 372.601562 717.339844 370.167969 716.632812 368.703125 715.9375 C 362.851562 713.246094 359.605469 707.941406 360.050781 701.601562 C 360.691406 692.566406 368.222656 686.832031 378.429688 687.546875 C 388.261719 688.246094 394.867188 694.8125 394.273438 703.300781 C 393.929688 707.976562 391.210938 713.675781 387.050781 718.410156 L 377.242188 729.609375 L 365.421875 728.777344 "/>
<path style=" stroke:none;fill-rule:nonzero;fill:rgb(100%,100%,100%);fill-opacity:1;" d="M 401.613281 699.171875 L 401.085938 690.285156 L 435.867188 688.246094 L 415.191406 729.941406 L 403.648438 730.625 L 420.105469 698.074219 "/>
<path style=" stroke:none;fill-rule:nonzero;fill:rgb(100%,100%,100%);fill-opacity:1;" d="M 450.546875 706.035156 C 451.976562 713.710938 455.3125 717.804688 459.449219 717.042969 C 463.578125 716.277344 465.132812 711.386719 463.667969 703.59375 C 462.214844 695.804688 459.074219 691.847656 454.945312 692.613281 C 450.707031 693.398438 449.09375 698.257812 450.546875 706.035156 Z M 473.957031 701.746094 C 476.320312 714.453125 471.144531 724.25 461.128906 726.109375 C 451.027344 727.980469 442.660156 720.714844 440.269531 707.941406 C 437.902344 695.222656 443.058594 685.277344 453.003906 683.429688 C 463.222656 681.539062 471.542969 688.816406 473.957031 701.746094 "/>
<path style=" stroke:none;fill-rule:nonzero;fill:rgb(100%,100%,100%);fill-opacity:1;" d="M 134.128906 257.589844 C 136.128906 254.144531 135.671875 251.816406 132.675781 250.09375 C 129.738281 248.382812 127.335938 249.183594 125.417969 252.492188 L 123.65625 255.523438 L 132.390625 260.578125 Z M 151.363281 271.546875 L 146.082031 280.636719 L 111.039062 260.371094 L 119.4375 245.921875 C 121.816406 241.816406 123.964844 239.945312 127.441406 238.90625 C 130.914062 237.859375 134.46875 238.417969 138.117188 240.527344 C 145.730469 244.929688 147.476562 251.488281 143.042969 259.128906 L 139.726562 264.820312 L 151.363281 271.546875 "/>
<path style=" stroke:none;fill-rule:nonzero;fill:rgb(100%,100%,100%);fill-opacity:1;" d="M 151.351562 221.105469 L 158.910156 232.453125 L 164.222656 225.515625 Z M 163.515625 239.648438 L 167.402344 246.09375 L 160.632812 254.898438 L 137.957031 217.988281 L 144.929688 208.921875 L 186.375 221.421875 L 179.539062 230.308594 L 172.351562 228.140625 L 163.515625 239.648438 "/>
<path style=" stroke:none;fill-rule:nonzero;fill:rgb(100%,100%,100%);fill-opacity:1;" d="M 182.113281 194.542969 C 184.992188 191.703125 185.394531 188.65625 183.1875 186.433594 C 182.167969 185.394531 180.375 184.8125 179.003906 185.03125 C 177.816406 185.210938 176.433594 186.042969 175.046875 187.414062 L 173.664062 188.769531 L 180.730469 195.910156 Z M 212.882812 195.566406 L 203.589844 204.738281 L 185.507812 200.734375 L 196.433594 211.773438 L 188.949219 219.164062 L 160.484375 190.414062 L 172.121094 178.929688 C 175.390625 175.710938 178.261719 174.398438 181.699219 174.492188 C 184.867188 174.628906 188.101562 176.054688 190.457031 178.4375 C 192.355469 180.351562 193.714844 183.035156 194.082031 185.394531 C 194.445312 187.914062 193.863281 190.003906 192.207031 192.695312 L 212.882812 195.566406 "/>
<path style=" stroke:none;fill-rule:nonzero;fill:rgb(100%,100%,100%);fill-opacity:1;" d="M 224.109375 187.09375 L 215.933594 193.71875 L 190.375 162.367188 L 198.539062 155.742188 "/>
<path style=" stroke:none;fill-rule:nonzero;fill:rgb(100%,100%,100%);fill-opacity:1;" d="M 231.777344 145.066406 C 228.839844 144.757812 226.519531 145.269531 224.554688 146.59375 C 222.40625 148.042969 221.628906 150.371094 222.746094 152.035156 C 223.160156 152.652344 223.824219 153.0625 224.667969 153.140625 C 225.605469 153.289062 226.691406 153.152344 227.71875 152.84375 C 228.335938 152.695312 229.550781 152.273438 231.320312 151.726562 C 235.046875 150.597656 237.195312 150.390625 239.675781 150.996094 C 242.292969 151.589844 244.121094 152.957031 245.871094 155.546875 C 247.253906 157.613281 248.464844 160.554688 248.707031 162.46875 C 249.265625 167.363281 246.273438 172.679688 240.855469 176.316406 C 238.203125 178.082031 235.628906 179.097656 232.144531 179.804688 C 229.867188 180.296875 228.921875 180.34375 226.566406 180.308594 L 225.582031 170.839844 C 229.835938 171.355469 233.023438 170.785156 235.585938 169.0625 C 238.179688 167.328125 238.921875 164.945312 237.574219 162.9375 C 237.117188 162.265625 236.394531 161.773438 235.640625 161.625 C 234.144531 161.328125 233.105469 161.511719 229.730469 162.597656 C 226.40625 163.65625 225.066406 163.976562 223.355469 164.148438 C 219.808594 164.582031 216.816406 162.949219 214.378906 159.324219 C 209.832031 152.570312 211.375 144.90625 218.199219 140.34375 C 221.730469 137.972656 226.132812 136.386719 230.703125 135.917969 "/>
<path style=" stroke:none;fill-rule:nonzero;fill:rgb(100%,100%,100%);fill-opacity:1;" d="M 279.15625 120.589844 C 276.3125 119.804688 273.933594 119.917969 271.773438 120.886719 C 269.40625 121.949219 268.242188 124.113281 269.0625 125.941406 C 269.371094 126.625 269.957031 127.136719 270.765625 127.355469 C 271.671875 127.660156 272.757812 127.707031 273.832031 127.582031 C 274.460938 127.535156 275.726562 127.320312 277.578125 127.089844 C 281.445312 126.601562 283.582031 126.761719 285.9375 127.777344 C 288.40625 128.800781 289.980469 130.457031 291.261719 133.308594 C 292.28125 135.566406 292.964844 138.679688 292.886719 140.605469 C 292.597656 145.523438 288.757812 150.253906 282.792969 152.925781 C 279.890625 154.222656 277.179688 154.785156 273.613281 154.898438 C 271.292969 155 270.355469 154.886719 268.023438 154.453125 L 268.675781 144.953125 C 272.777344 146.183594 276.015625 146.148438 278.824219 144.894531 C 281.683594 143.617188 282.816406 141.394531 281.820312 139.179688 C 281.488281 138.449219 280.859375 137.835938 280.152344 137.574219 C 278.722656 137.027344 277.660156 137.027344 274.164062 137.539062 C 270.710938 138.019531 269.328125 138.097656 267.613281 137.984375 C 264.046875 137.8125 261.371094 135.691406 259.589844 131.710938 C 256.25 124.285156 259.074219 117 266.5625 113.644531 C 270.457031 111.910156 275.054688 111.089844 279.636719 111.398438 "/>
<path style=" stroke:none;fill-rule:nonzero;fill:rgb(100%,100%,100%);fill-opacity:1;" d="M 310.523438 111.761719 L 309.941406 125.371094 L 318.328125 122.894531 Z M 309.4375 133.902344 L 308.785156 141.394531 L 298.121094 144.554688 L 301.515625 101.382812 L 312.5 98.132812 L 338.664062 132.554688 L 327.898438 135.738281 L 323.359375 129.773438 L 309.4375 133.902344 "/>
<path style=" stroke:none;fill-rule:nonzero;fill:rgb(100%,100%,100%);fill-opacity:1;" d="M 352.78125 130.617188 L 342.425781 132.519531 L 335.085938 92.773438 L 345.441406 90.871094 "/>
<path style=" stroke:none;fill-rule:nonzero;fill:rgb(100%,100%,100%);fill-opacity:1;" d="M 357.410156 88.519531 L 367.925781 87.824219 L 388.867188 111.214844 L 387.222656 86.535156 L 397.726562 85.839844 L 400.410156 126.167969 L 389.90625 126.863281 L 368.964844 103.472656 L 370.613281 128.152344 L 360.109375 128.847656 "/>
<path style=" stroke:none;fill-rule:nonzero;fill:rgb(100%,100%,100%);fill-opacity:1;" d="M 422.90625 127.777344 L 412.390625 127.113281 L 414.390625 95.648438 L 405.875 95.113281 L 406.445312 86.238281 L 434.199219 87.996094 L 433.628906 96.867188 L 424.90625 96.320312 "/>
<path style=" stroke:none;fill-rule:nonzero;fill:rgb(100%,100%,100%);fill-opacity:1;" d="M 447.058594 114.214844 L 446.097656 121.308594 L 432.554688 119.472656 L 433.527344 112.378906 "/>
<path style=" stroke:none;fill-rule:nonzero;fill:rgb(100%,100%,100%);fill-opacity:1;" d="M 492.953125 118.160156 C 492.585938 119.632812 492.253906 120.773438 492.027344 121.492188 C 491.421875 123.511719 490.734375 125.164062 490.015625 126.542969 C 485.589844 135.0625 476.9375 138.839844 467.132812 136.457031 C 454.695312 133.433594 448.214844 122.871094 451.230469 110.519531 C 454.304688 97.953125 464.984375 91.554688 477.785156 94.679688 C 483.132812 95.980469 486.929688 98.453125 489.546875 102.25 C 490.976562 104.371094 491.636719 105.980469 492.710938 110.007812 L 482.023438 111.683594 C 481.546875 109.289062 481.191406 108.261719 480.425781 107.074219 C 479.269531 105.183594 477.523438 103.929688 475.210938 103.371094 C 469.234375 101.910156 463.667969 106.050781 461.917969 113.222656 C 460.136719 120.5 463.246094 126.636719 469.496094 128.152344 C 471.691406 128.6875 473.738281 128.527344 475.382812 127.707031 C 476.023438 127.367188 476.699219 126.863281 477.234375 126.269531 C 477.992188 125.460938 478.414062 124.832031 479.15625 123.179688 L 470.765625 121.148438 L 472.699219 113.234375 "/>
<path style=" stroke:none;fill-rule:nonzero;fill:rgb(100%,100%,100%);fill-opacity:1;" d="M 513.859375 116.65625 L 511.414062 122.929688 L 522.433594 127.207031 L 519.207031 135.496094 L 508.179688 131.21875 L 505.640625 137.753906 L 517.265625 142.261719 L 514.042969 150.550781 L 492.597656 142.238281 L 507.265625 104.554688 L 528.707031 112.882812 L 525.484375 121.160156 "/>
<path style=" stroke:none;fill-rule:nonzero;fill:rgb(100%,100%,100%);fill-opacity:1;" d="M 540.699219 138.863281 C 544.277344 140.742188 547.304688 140.207031 548.78125 137.449219 C 549.453125 136.160156 549.476562 134.289062 548.847656 133.046875 C 548.320312 131.972656 547.109375 130.902344 545.394531 130 L 543.679688 129.085938 L 538.984375 137.949219 Z M 548.960938 168.457031 L 537.40625 162.355469 L 535.792969 143.949219 L 528.523438 157.667969 L 519.207031 152.753906 L 538.148438 117.03125 L 552.621094 124.664062 C 556.679688 126.804688 558.792969 129.144531 559.730469 132.441406 C 560.5625 135.496094 560.164062 139.011719 558.597656 141.964844 C 557.339844 144.347656 555.191406 146.445312 553.042969 147.507812 C 550.746094 148.613281 548.5625 148.679688 545.488281 147.90625 L 548.960938 168.457031 "/>
<path style=" stroke:none;fill-rule:nonzero;fill:rgb(100%,100%,100%);fill-opacity:1;" d="M 580.074219 140.480469 L 588.398438 146.742188 L 581.960938 168.890625 L 601.898438 156.894531 L 610.230469 163.15625 L 590.773438 199.125 L 582.363281 192.808594 L 593.976562 172.394531 L 572.132812 185.121094 L 568.769531 182.589844 L 575.390625 158.421875 L 558.585938 174.9375 L 550.21875 168.652344 "/>
<path style=" stroke:none;fill-rule:nonzero;fill:rgb(100%,100%,100%);fill-opacity:1;" d="M 626.1875 196.195312 L 613.773438 201.863281 L 619.796875 208.191406 Z M 605.933594 205.273438 L 598.949219 208.113281 L 591.277344 200.0625 L 631.363281 183.488281 L 639.25 191.78125 L 620.402344 230.660156 L 612.664062 222.53125 L 615.933594 215.789062 L 605.933594 205.273438 "/>
<path style=" stroke:none;fill-rule:nonzero;fill:rgb(100%,100%,100%);fill-opacity:1;" d="M 628.550781 242.328125 L 622.152344 233.992188 L 654.292969 209.390625 L 660.695312 217.738281 "/>
<path style=" stroke:none;fill-rule:nonzero;fill:rgb(100%,100%,100%);fill-opacity:1;" d="M 668.25 227.296875 L 673.65625 236.316406 L 662.308594 265.570312 L 683.578125 252.878906 L 688.984375 261.898438 L 654.214844 282.632812 L 648.808594 273.613281 L 660.167969 244.371094 L 638.886719 257.050781 L 633.480469 248.03125 "/>
<path style=" stroke:none;fill-rule:evenodd;fill:rgb(76.078431%,64.705882%,44.313725%);fill-opacity:1;" d="M 258.125 64.5 C 118.152344 121.929688 26.714844 258.058594 26.589844 409.207031 C 26.808594 579.332031 142.242188 727.746094 307.214844 770.019531 L 400 409.207031 L 308.949219 763.261719 C 147.070312 721.78125 33.800781 576.140625 33.585938 409.207031 C 33.710938 260.890625 123.433594 127.3125 260.78125 70.957031 Z M 258.125 64.5 "/>
<path style=" stroke:none;fill-rule:evenodd;fill:rgb(76.078431%,64.705882%,44.313725%);fill-opacity:1;" d="M 543.257812 64.871094 L 540.574219 71.324219 C 677.265625 128.046875 766.367188 261.355469 766.414062 409.207031 C 766.277344 576.28125 652.890625 722.054688 490.851562 763.480469 L 492.585938 770.242188 C 657.71875 728.027344 773.269531 579.472656 773.410156 409.207031 C 773.367188 258.53125 682.5625 122.679688 543.257812 64.871094 Z M 543.257812 64.871094 "/>
<path style=" stroke:none;fill-rule:evenodd;fill:rgb(76.078431%,64.705882%,44.313725%);fill-opacity:1;" d="M 248.023438 39.957031 C 98.082031 101.472656 0.136719 247.296875 0 409.207031 C 0.234375 591.445312 123.886719 750.429688 300.605469 795.710938 L 304.777344 779.484375 C 135.480469 736.101562 17.019531 583.792969 16.792969 409.207031 C 16.925781 254.09375 110.757812 114.394531 254.402344 55.457031 Z M 248.023438 39.957031 "/>
<path style=" stroke:none;fill-rule:evenodd;fill:rgb(76.078431%,64.705882%,44.313725%);fill-opacity:1;" d="M 553.457031 40.355469 L 400 409.207031 L 547.015625 55.839844 C 689.976562 115.164062 783.160156 254.578125 783.207031 409.207031 C 783.0625 583.9375 664.480469 736.390625 495.015625 779.714844 L 400 409.207031 L 499.179688 795.953125 C 676.070312 750.730469 799.847656 591.59375 800 409.207031 C 799.949219 247.800781 702.679688 102.277344 553.457031 40.355469 Z M 553.457031 40.355469 "/>
<path style=" stroke:none;fill-rule:evenodd;fill:rgb(76.078431%,64.705882%,44.313725%);fill-opacity:1;" d="M 458.628906 768.363281 C 457.988281 768.371094 457.339844 768.417969 456.691406 768.5 L 452.605469 769.019531 C 442.207031 770.335938 435.0625 781.027344 436.582031 792.984375 L 438.355469 806.914062 C 439.878906 818.871094 449.472656 827.433594 459.871094 826.117188 L 463.957031 825.597656 C 474.351562 824.277344 481.5 813.585938 479.976562 801.628906 L 478.203125 787.699219 C 476.777344 776.488281 468.253906 768.261719 458.628906 768.363281 Z M 456.835938 780.535156 C 459.960938 780.457031 462.683594 782.75 463.085938 785.929688 L 465.851562 807.660156 C 466.28125 811.050781 463.910156 814.125 460.527344 814.550781 C 457.148438 814.980469 454.078125 812.597656 453.648438 809.207031 L 450.882812 787.480469 C 450.453125 784.089844 452.828125 781.011719 456.207031 780.585938 C 456.417969 780.558594 456.628906 780.542969 456.835938 780.535156 Z M 456.835938 780.535156 "/>
<path style=" stroke:none;fill-rule:nonzero;fill:rgb(76.078431%,64.705882%,44.313725%);fill-opacity:1;" d="M 335.222656 772 C 341.464844 767.722656 350.085938 769.453125 356.570312 771.703125 C 362.273438 773.929688 365.304688 779.457031 365.394531 786.097656 C 364.867188 793.410156 360.160156 799.730469 354.8125 804.449219 C 351.660156 807.664062 346.726562 809.421875 345.648438 814.222656 L 362.160156 816.121094 L 360.554688 827.402344 L 323.546875 823.207031 L 325.46875 813.011719 C 332.574219 807.882812 340.769531 802.945312 347.007812 796.683594 C 350.542969 792.660156 353.136719 786.273438 350.484375 782.046875 C 347.664062 778.730469 343.789062 779.777344 341.726562 781.546875 C 339.640625 783.335938 339.382812 785.878906 338.9375 788.960938 L 326.894531 788.070312 C 326.613281 781.648438 330.144531 775.726562 335.222656 772 Z M 335.222656 772 "/>
<path style=" stroke:none;fill-rule:nonzero;fill:rgb(76.078431%,64.705882%,44.313725%);fill-opacity:1;" d="M 411.515625 776.507812 L 418.675781 773.660156 L 430.472656 773.390625 L 433.941406 828.433594 L 421.324219 828.648438 L 418.585938 784.78125 L 411.113281 785.242188 Z M 411.515625 776.507812 "/>
<path style=" stroke:none;fill-rule:evenodd;fill:rgb(76.078431%,64.705882%,44.313725%);fill-opacity:1;" d="M 393.589844 772.660156 C 392.957031 772.5625 392.3125 772.5 391.65625 772.472656 L 387.539062 772.316406 C 377.066406 771.910156 368.261719 781.28125 367.796875 793.324219 L 367.253906 807.355469 C 366.785156 819.402344 374.84375 829.425781 385.316406 829.828125 L 389.429688 829.988281 C 399.902344 830.390625 408.710938 821.019531 409.175781 808.976562 L 409.71875 794.941406 C 410.15625 783.652344 403.101562 774.136719 393.589844 772.660156 Z M 389.820312 784.371094 C 392.914062 784.804688 395.222656 787.515625 395.097656 790.714844 L 394.25 812.605469 C 394.117188 816.019531 391.273438 818.664062 387.867188 818.53125 C 384.460938 818.398438 381.828125 815.546875 381.957031 812.128906 L 382.804688 790.242188 C 382.9375 786.828125 385.785156 784.183594 389.191406 784.316406 C 389.40625 784.324219 389.613281 784.34375 389.820312 784.371094 Z M 389.820312 784.371094 "/>
<path style=" stroke:none;fill-rule:nonzero;fill:rgb(76.078431%,64.705882%,44.313725%);fill-opacity:1;" d="M 387.886719 0 L 369.710938 51.957031 L 382.136719 51.765625 L 384.132812 45.121094 L 402.722656 45 L 404.4375 51.382812 L 418.613281 51.667969 L 397.761719 0 Z M 393.40625 19.503906 L 398.101562 32.914062 L 388.886719 33.144531 Z M 393.40625 19.503906 "/>
<path style=" stroke:none;fill-rule:nonzero;fill:rgb(76.078431%,64.705882%,44.313725%);fill-opacity:1;" d="M 428.976562 1.363281 L 439.078125 2.789062 L 456.359375 35.761719 L 460.398438 5.386719 L 471.351562 6.507812 L 467.773438 34.726562 L 464.5625 57.4375 L 454.785156 56.128906 L 437.640625 22.714844 L 432.789062 53.523438 L 422.613281 51.558594 Z M 428.976562 1.363281 "/>
<path style=" stroke:none;fill-rule:nonzero;fill:rgb(76.078431%,64.705882%,44.313725%);fill-opacity:1;" d="M 299.179688 10.515625 L 289.027344 13.660156 L 275.234375 50.984375 L 277.414062 59.445312 L 300.863281 52.257812 L 303.804688 62.15625 L 313.957031 59.039062 L 310.957031 49.214844 L 316.054688 47.773438 L 313.714844 39.351562 L 308.371094 40.769531 Z M 293.769531 29.382812 L 298.257812 43.8125 L 287.8125 47.199219 Z M 293.769531 29.382812 "/>
<path style=" stroke:none;fill-rule:nonzero;fill:rgb(76.078431%,64.705882%,44.313725%);fill-opacity:1;" d="M 491.535156 11.253906 C 502.320312 9.617188 513.914062 19.054688 512.207031 30.390625 L 501.3125 28.359375 C 500.730469 26.960938 500.019531 25.277344 499.09375 23.867188 C 496.175781 20.503906 493.117188 20.03125 491.214844 23.90625 C 489.832031 26.789062 490.957031 29.648438 493.539062 31.703125 C 498.1875 35.402344 503.582031 38.53125 505.914062 44.25 C 508.671875 51.574219 504.792969 60.289062 497.582031 63.289062 C 488.882812 66.578125 477.90625 63.398438 472.675781 55.582031 C 470.816406 51.804688 471.050781 47.507812 471.023438 43.429688 L 483.230469 46.1875 C 482.898438 52.933594 488.800781 55.894531 493.023438 52.222656 C 495.660156 49.757812 490.546875 43.398438 485.933594 39.980469 C 480.363281 35.914062 476.199219 28.875 478.371094 22.695312 C 480.539062 16.519531 485.363281 11.769531 491.535156 11.253906 Z M 491.535156 11.253906 "/>
<path style=" stroke:none;fill-rule:evenodd;fill:rgb(76.078431%,64.705882%,44.313725%);fill-opacity:1;" d="M 336.800781 2.742188 C 336.210938 2.742188 335.613281 2.773438 335.011719 2.84375 L 331.234375 3.273438 C 321.621094 4.363281 314.894531 14.144531 316.152344 25.199219 L 317.617188 38.078125 C 318.875 49.132812 327.628906 57.15625 337.242188 56.0625 L 341.019531 55.636719 C 350.632812 54.542969 357.359375 44.765625 356.101562 33.707031 L 354.636719 20.828125 C 353.457031 10.460938 345.6875 2.765625 336.800781 2.742188 Z M 335 13.953125 C 337.882812 13.921875 340.367188 16.070312 340.703125 19.007812 L 342.988281 39.101562 C 343.34375 42.234375 341.117188 45.042969 337.992188 45.398438 C 334.867188 45.753906 332.0625 43.515625 331.703125 40.382812 L 329.417969 20.292969 C 329.0625 17.15625 331.292969 14.347656 334.417969 13.992188 C 334.613281 13.96875 334.804688 13.957031 335 13.953125 Z M 335 13.953125 "/>
</g>
</svg>
