<?xml version="1.0" encoding="UTF-8"?>
<svg xmlns="http://www.w3.org/2000/svg" xmlns:xlink="http://www.w3.org/1999/xlink" width="800px" height="800px" viewBox="0 0 800 800" version="1.1">
<g id="surface1">
<path style=" stroke:none;fill-rule:nonzero;fill:rgb(51.764706%,0%,0%);fill-opacity:1;" d="M 800 400 C 800 620.914062 620.914062 800 400 800 C 179.085938 800 0 620.914062 0 400 C 0 179.085938 179.085938 0 400 0 C 620.914062 0 800 179.085938 800 400 Z M 800 400 "/>
<path style=" stroke:none;fill-rule:nonzero;fill:rgb(93.72549%,65.098039%,7.058824%);fill-opacity:1;" d="M 399.816406 763.445312 C 200.691406 762.003906 39.503906 603.503906 39.445312 402.640625 C 39.445312 202.0625 200.519531 41.28125 401.40625 41.984375 C 600.09375 42.652344 760.554688 202.003906 760.621094 402.5 C 760.621094 603.402344 599.367188 762.234375 399.816406 763.445312 Z M 65.808594 401.960938 C 64.65625 586.398438 216.378906 737.660156 400.863281 738.097656 C 586.457031 738.546875 737.335938 586.972656 737.925781 403.136719 C 738.511719 218.074219 587.402344 65.972656 402.027344 65.84375 C 216.21875 65.707031 64.621094 217.867188 65.808594 401.960938 Z M 65.808594 401.960938 "/>
<path style=" stroke:none;fill-rule:nonzero;fill:rgb(51.764706%,0%,0%);fill-opacity:1;" d="M 65.808594 401.960938 C 64.621094 217.867188 216.21875 65.707031 402.027344 65.84375 C 587.402344 65.972656 738.511719 218.074219 737.925781 403.136719 C 737.335938 586.972656 586.421875 738.582031 400.863281 738.097656 C 216.378906 737.660156 64.644531 586.445312 65.808594 401.960938 Z M 197.222656 585.84375 C 196.414062 583.421875 195.988281 581.820312 195.34375 580.300781 C 188.425781 564.046875 181.070312 548.023438 174.777344 531.515625 C 165.199219 506.476562 155.734375 481.359375 147.46875 455.863281 C 142.988281 442.238281 143.136719 427.515625 147.882812 413.984375 C 149.765625 408.566406 152.496094 405.832031 159.113281 405.914062 C 192.726562 406.304688 226.339844 406.097656 259.953125 406.097656 L 267.113281 406.097656 C 267.457031 413.523438 267.953125 420.183594 268.035156 426.847656 C 268.480469 466.59375 268.863281 506.34375 269.1875 546.097656 C 269.429688 576.253906 269.773438 606.421875 269.5 636.566406 C 269.40625 646.523438 274.445312 652.449219 282.109375 656.796875 C 293.300781 663.160156 312.96875 658.617188 311.78125 639.148438 C 309.925781 608.910156 310.71875 578.488281 310.628906 548.148438 C 310.421875 412.351562 310.253906 276.546875 310.132812 140.738281 C 310.132812 138.558594 309.902344 136.367188 309.707031 132.992188 C 300.714844 136.507812 292.589844 139.273438 284.796875 142.789062 C 219.457031 172.277344 168.851562 217.867188 135.226562 281.511719 C 109.765625 329.707031 97.960938 380.644531 105.730469 435.34375 C 113.648438 491.066406 137.523438 539.480469 173.246094 582.421875 C 174.398438 583.816406 176.148438 585.589844 177.707031 585.683594 C 183.941406 586.0625 190.226562 585.84375 197.199219 585.84375 Z M 545.613281 416.472656 C 549.453125 416.472656 552.726562 416.839844 555.882812 416.390625 C 561.742188 415.5625 564.726562 418.027344 567.34375 423.238281 C 581.84375 452.058594 596.726562 480.644531 611.492188 509.300781 C 621.164062 528.070312 630.789062 546.859375 640.65625 565.523438 C 641.578125 567.273438 644.300781 569.53125 645.832031 569.292969 C 660.738281 566.984375 670.203125 546.445312 662.777344 533.039062 C 640.714844 493.261719 618.644531 453.484375 596.566406 413.707031 C 595.339844 411.554688 594.34375 409.277344 593.589844 406.917969 C 591.941406 401.429688 594.132812 397.589844 599.769531 397.050781 C 605.40625 396.507812 610.824219 397.050781 616.355469 396.863281 C 639.5625 396.160156 662.753906 395.25 685.960938 394.742188 C 690.570312 394.640625 691.851562 393.292969 691.929688 388.785156 C 692.242188 370.699219 691.332031 352.75 687.390625 335.042969 C 667.25 244.738281 615.203125 181.128906 529.335938 145.832031 C 522.546875 143.042969 515.34375 141.222656 507.929688 138.917969 C 507.613281 140.199219 507.394531 141.507812 507.273438 142.824219 C 507.839844 170.664062 508.53125 198.488281 509.003906 226.328125 C 509.925781 280.277344 510.777344 334.230469 511.5625 388.183594 C 512.230469 430.804688 512.90625 473.425781 513.589844 516.046875 C 514.179688 556.566406 515.066406 597.082031 514.882812 637.601562 C 514.882812 648.679688 520.472656 654.546875 528.3125 659.757812 C 533.613281 663.296875 539.089844 661.5 544.011719 658.511719 C 549.117188 655.421875 553.234375 651.179688 553.050781 644.773438 C 551.894531 609.476562 550.398438 574.203125 549.105469 538.917969 C 547.898438 505.734375 546.746094 472.550781 545.648438 439.367188 C 545.40625 432.070312 545.613281 424.785156 545.613281 416.472656 Z M 331.734375 620.082031 L 330.476562 620.253906 C 332.105469 630.433594 332.863281 640.839844 335.550781 650.742188 C 341.234375 671.652344 354.203125 685.867188 376.378906 689.613281 C 391.25 692.125 406.203125 691.320312 421.015625 688.542969 C 435.457031 685.832031 448.566406 680.355469 459.214844 669.867188 C 474.203125 655.101562 479.539062 636.324219 480.761719 616.136719 C 482.445312 588.230469 477.210938 561.164062 469.890625 534.410156 C 458.121094 491.332031 439.644531 450.777344 423.125 409.476562 C 403.527344 360.507812 383.769531 311.597656 365.28125 262.214844 C 356.542969 238.894531 350.71875 214.488281 352.898438 189.058594 C 354.476562 170.617188 362.917969 156.65625 380.449219 149.152344 C 392.324219 144.082031 404.796875 142.730469 417.589844 143.238281 C 437.058594 144.011719 450.476562 155.34375 452.644531 174.640625 C 453.695312 184.023438 452.863281 193.707031 452.082031 203.179688 C 451.710938 207.527344 452.207031 209.257812 456.828125 209.039062 C 462.203125 208.65625 467.597656 208.675781 472.96875 209.09375 C 478.257812 209.625 480.207031 207.308594 480.738281 202.570312 C 482.476562 186.859375 482.960938 171.214844 479.675781 155.609375 C 474.226562 129.753906 458.363281 113.269531 433.476562 108.808594 C 416.785156 105.808594 400.160156 107.929688 383.90625 112.023438 C 355.699219 119.125 334.523438 134.535156 325.40625 163.480469 C 320.171875 180.117188 320.242188 197.28125 321.878906 214.269531 C 324.359375 239.503906 330.363281 264.269531 339.710938 287.839844 C 354.398438 325.128906 370.039062 362.0625 385.695312 398.960938 C 406.375 447.710938 427.609375 496.242188 441.773438 547.421875 C 447.816406 569.257812 452.566406 591.285156 450.6875 614.28125 C 449.027344 634.699219 437.773438 649.683594 417.972656 654.628906 C 409.902344 656.644531 401.292969 656.992188 392.921875 657.039062 C 379.089844 657.117188 367.699219 648.621094 364.621094 635.238281 C 362.8125 627.390625 362.742188 618.949219 363.136719 610.835938 C 363.515625 603.113281 361.117188 597.730469 352.980469 593.542969 C 347.34375 590.617188 343.203125 591.816406 337.292969 597.671875 C 333.554688 601.371094 331.160156 605.394531 331.699219 610.894531 C 331.976562 613.902344 331.734375 617.003906 331.734375 620.082031 Z M 331.734375 620.082031 "/>
<path style=" stroke:none;fill-rule:nonzero;fill:rgb(93.72549%,65.098039%,7.058824%);fill-opacity:1;" d="M 197.199219 585.84375 C 190.226562 585.84375 183.941406 586.0625 177.707031 585.683594 C 176.148438 585.589844 174.410156 583.816406 173.246094 582.421875 C 137.511719 539.46875 113.648438 491.089844 105.730469 435.34375 C 97.960938 380.65625 109.765625 329.707031 135.226562 281.511719 C 168.851562 217.878906 219.457031 172.277344 284.828125 142.800781 C 292.621094 139.285156 300.75 136.519531 309.742188 133.003906 C 309.9375 136.378906 310.167969 138.570312 310.167969 140.75 C 310.335938 276.558594 310.5 412.359375 310.664062 548.160156 C 310.664062 578.5 309.914062 608.921875 311.816406 639.160156 C 312.96875 658.628906 293.371094 663.171875 282.144531 656.808594 C 274.476562 652.460938 269.464844 646.535156 269.53125 636.578125 C 269.808594 606.433594 269.464844 576.265625 269.222656 546.109375 C 268.90625 506.363281 268.523438 466.613281 268.070312 426.859375 C 267.988281 420.183594 267.492188 413.523438 267.148438 406.109375 L 259.988281 406.109375 C 226.375 406.109375 192.761719 406.316406 159.148438 405.925781 C 152.578125 405.84375 149.796875 408.578125 147.917969 413.996094 C 143.167969 427.527344 143.023438 442.25 147.503906 455.875 C 155.769531 481.371094 165.234375 506.488281 174.8125 531.527344 C 181.105469 548 188.507812 564.058594 195.378906 580.3125 C 195.964844 581.820312 196.390625 583.421875 197.199219 585.84375 Z M 268.148438 195.066406 C 256.496094 197.441406 247.214844 202.71875 238.363281 208.796875 C 216.945312 223.503906 200.632812 243.054688 186.28125 264.378906 C 167.550781 292.207031 154.640625 322.144531 152.945312 356.21875 C 152.507812 365.082031 152.644531 365.613281 161.648438 365.613281 L 268.148438 365.613281 Z M 545.613281 416.472656 C 545.613281 424.785156 545.40625 432.070312 545.613281 439.332031 C 546.691406 472.515625 547.84375 505.699219 549.070312 538.882812 C 550.363281 574.167969 551.816406 609.441406 553.015625 644.738281 C 553.234375 651.148438 549.082031 655.390625 543.976562 658.476562 C 539.054688 661.464844 533.601562 663.261719 528.277344 659.722656 C 520.4375 654.511719 514.800781 648.644531 514.847656 637.566406 C 515.03125 597.050781 514.144531 556.53125 513.554688 516.011719 C 512.933594 473.382812 512.257812 430.761719 511.527344 388.148438 L 508.96875 226.292969 C 508.496094 198.457031 507.816406 170.628906 507.238281 142.789062 C 507.359375 141.472656 507.578125 140.167969 507.894531 138.882812 C 515.308594 141.269531 522.511719 143.042969 529.300781 145.796875 C 615.171875 181.09375 667.238281 244.703125 687.355469 334.972656 C 691.296875 352.679688 692.207031 370.628906 691.894531 388.714844 C 691.816406 393.222656 690.488281 394.570312 685.925781 394.675781 C 662.71875 395.179688 639.527344 396.09375 616.324219 396.796875 C 610.789062 396.96875 605.210938 396.460938 599.734375 396.980469 C 594.257812 397.5 591.90625 401.359375 593.554688 406.847656 C 594.304688 409.21875 595.300781 411.507812 596.53125 413.671875 C 618.570312 453.464844 640.640625 493.242188 662.742188 533.003906 C 670.167969 546.410156 660.703125 566.929688 645.796875 569.257812 C 644.265625 569.5 641.542969 567.238281 640.621094 565.488281 C 630.753906 546.824219 621.128906 528.035156 611.457031 509.269531 C 596.691406 480.609375 581.808594 452 567.308594 423.203125 C 564.691406 417.996094 561.707031 415.527344 555.851562 416.355469 C 552.726562 416.839844 549.453125 416.472656 545.613281 416.472656 Z M 542.753906 363.515625 L 658.476562 361.28125 C 657.566406 357.070312 657.082031 354.109375 656.289062 351.238281 C 647.597656 319.769531 632.3125 291.492188 613.808594 264.875 C 597.070312 240.808594 578.535156 218.304688 554.050781 201.476562 C 549.902344 198.628906 545.324219 196.367188 539.34375 192.910156 C 540.449219 250.640625 541.601562 306.421875 542.753906 363.515625 Z M 331.734375 620.082031 C 331.734375 617.003906 331.976562 613.902344 331.675781 610.859375 C 331.136719 605.359375 333.53125 601.335938 337.269531 597.636719 C 343.179688 591.78125 347.320312 590.582031 352.957031 593.511719 C 361.09375 597.730469 363.492188 603.113281 363.113281 610.800781 C 362.71875 618.871094 362.789062 627.355469 364.597656 635.203125 C 367.675781 648.589844 379.125 657.105469 392.898438 657.003906 C 401.269531 657.003906 409.890625 656.609375 417.949219 654.59375 C 437.753906 649.648438 449.003906 634.664062 450.664062 614.246094 C 452.542969 591.25 447.792969 569.222656 441.753906 547.390625 C 427.585938 496.207031 406.351562 447.675781 385.671875 398.929688 C 370.015625 362.039062 354.375 325.09375 339.6875 287.804688 C 330.339844 264.234375 324.335938 239.472656 321.855469 214.234375 C 320.21875 197.246094 320.148438 180.082031 325.382812 163.445312 C 334.5 134.5 355.675781 119.089844 383.882812 111.988281 C 400.136719 107.894531 416.761719 105.773438 433.453125 108.773438 C 458.339844 113.234375 474.203125 129.71875 479.652344 155.574219 C 482.941406 171.179688 482.457031 186.824219 480.714844 202.535156 C 480.183594 207.273438 478.234375 209.589844 472.945312 209.058594 C 467.574219 208.640625 462.179688 208.625 456.808594 209.003906 C 452.195312 209.222656 451.6875 207.492188 452.058594 203.148438 C 452.839844 193.671875 453.671875 183.988281 452.621094 174.605469 C 450.457031 155.308594 437.039062 143.976562 417.566406 143.203125 C 404.773438 142.699219 392.300781 144.046875 380.425781 149.117188 C 362.929688 156.65625 354.476562 170.605469 352.898438 189.050781 C 350.71875 214.476562 356.542969 238.882812 365.28125 262.203125 C 383.722656 311.585938 403.527344 360.496094 423.125 409.464844 C 439.644531 450.765625 458.121094 491.308594 469.890625 534.398438 C 477.210938 561.152344 482.445312 588.21875 480.761719 616.125 C 479.539062 636.3125 474.234375 655.089844 459.214844 669.855469 C 448.566406 680.347656 435.457031 685.820312 421.015625 688.53125 C 406.203125 691.308594 391.25 692.117188 376.378906 689.601562 C 354.203125 685.855469 341.234375 671.644531 335.550781 650.730469 C 332.863281 640.828125 332.09375 630.421875 330.476562 620.242188 Z M 331.734375 620.082031 "/>
<path style=" stroke:none;fill-rule:nonzero;fill:rgb(51.764706%,0%,0%);fill-opacity:1;" d="M 268.148438 195.007812 L 268.148438 365.613281 L 161.648438 365.613281 C 152.644531 365.613281 152.507812 365.082031 152.945312 356.21875 C 154.640625 322.144531 167.550781 292.207031 186.28125 264.378906 C 200.632812 243.054688 216.945312 223.503906 238.363281 208.796875 C 247.214844 202.664062 256.496094 197.382812 268.148438 195.007812 Z M 542.753906 363.515625 C 541.601562 306.421875 540.449219 250.640625 539.296875 192.910156 C 545.28125 196.367188 549.855469 198.675781 554.003906 201.476562 C 578.488281 218.269531 597.027344 240.773438 613.765625 264.875 C 632.207031 291.492188 647.550781 319.769531 656.242188 351.238281 C 657.039062 354.109375 657.523438 357.070312 658.433594 361.28125 Z M 542.753906 363.515625 "/>
</g>
</svg>
